<svg width="552" height="617" viewBox="0 0 552 617" fill="none" xmlns="http://www.w3.org/2000/svg">
<path d="M131.186 334.872C73.2807 281.587 0.160016 359.077 0.160016 359.077C84.897 389.046 131.186 334.872 131.186 334.872Z" fill="#75CE9D"/>
<path d="M88.1483 307.865C86.952 306.911 85.5986 306.165 84.1567 305.651C57.1823 296.024 24.9637 303.462 24.9637 303.462C61.5404 340.694 99.5027 324.224 99.5027 324.224C96.7195 317.101 92.7762 311.786 88.1483 307.865Z" fill="#489C94"/>
<path d="M646.233 403.012C698.149 263.917 593.091 70.2823 268.415 5.70457C208.564 -6.19999 144.453 3.50459 88.9795 33.6183C-32.8425 99.7448 21.7109 195.506 70.6453 307.096C102.088 378.799 95.1557 451.549 137.132 527.08C151.894 553.633 170.255 578.17 197.728 593.152C328.976 664.714 585.916 564.617 646.233 403.012Z" fill="#FAD7AD"/>
<path d="M246.921 85.1267C252.255 85.1267 257.605 85.3662 262.939 85.8485C261.078 91.5683 260.453 97.5912 261.056 103.508C260.842 103.434 260.646 103.371 260.457 103.318C257.082 102.392 253.765 101.995 250.622 101.995C243.614 101.995 237.463 103.977 233.413 106.493C227.538 110.14 215.852 121.879 215.852 121.879C215.685 121.869 215.518 121.861 215.351 121.861C210.201 121.861 204.587 127.159 204.587 127.159L169.781 164.366C169.781 164.366 164.544 170.716 165.266 175.96C165.266 175.96 154.328 188.404 151.08 194.504C147.836 200.608 145.999 211.02 149.719 221.703C153.435 232.386 203.959 290.544 211.036 295.757C218.113 300.97 237.587 313.216 237.587 313.216L339.049 409.178C339.049 409.178 373.665 455.971 398.248 468.774C413.278 476.602 424.484 479.669 433.332 479.669C438.956 479.669 443.626 478.428 447.723 476.388C457.34 471.591 489.572 440.116 495.146 434.639L495.181 434.672C495.181 434.672 495.314 434.52 495.562 434.229C495.832 433.964 495.976 433.823 495.976 433.823L495.942 433.79C501.037 427.86 530.293 393.602 534.436 383.687C538.978 372.822 537.956 358.508 523.544 334.832C509.132 311.157 460.136 279.734 460.136 279.734L357.624 184.898C357.624 184.898 344.108 166.277 338.435 159.564C336.375 157.128 326.965 149.434 315.293 140.486C322.579 138.458 329.422 134.474 334.983 128.564C340.87 122.305 344.512 114.748 345.94 106.881C391.667 122.748 430.063 142.513 461.609 164.721C457.992 163.44 454.199 162.803 450.411 162.803C441.475 162.803 432.561 166.351 425.989 173.377C413.397 186.837 414.104 208.035 427.565 220.626L428.159 221.182L432.42 216.624C437.214 220.108 442.858 221.833 448.491 221.833C455.811 221.833 463.113 218.919 468.507 213.15C478.054 202.945 478.291 187.376 469.568 176.914L473.095 173.145C479.74 178.217 486.049 183.405 492.022 188.689C492.615 190.769 492.838 192.54 492.838 194.339C492.837 198.573 491.604 202.984 491.05 212.076C491.024 212.396 491.01 212.706 491.01 213.001C491.008 216.828 493.112 218.841 496.127 220.035C498.57 221.002 500.921 222.185 503.115 223.632C506.147 225.631 508.68 226.497 510.916 226.497C515.158 226.497 518.331 223.375 521.816 218.919C552.832 255.315 570.022 294.469 574.705 331.849L571.16 328.79L567.598 331.65L564.037 334.506L567.206 340.388C565.542 342.508 564.211 344.914 563.288 347.53L556.626 348.02L556.129 352.56L555.633 357.1L562.032 359.016C562.367 361.771 563.147 364.409 564.312 366.841L559.948 371.896L562.806 375.456L565.665 379.016L571.545 375.848C572.355 376.483 573.207 377.071 574.097 377.605C572.883 385.248 571.101 392.72 568.769 399.967C565.462 410.237 561.123 420.138 555.897 429.613C554.915 428.934 553.835 428.383 552.681 427.976L552.414 424.344L549.94 424.075L547.466 423.803L546.421 427.29C544.919 427.472 543.483 427.896 542.157 428.532L539.402 426.155L537.461 427.711L535.52 429.272L537.247 432.476C536.341 433.63 535.615 434.941 535.112 436.37L531.481 436.635L531.211 439.11L530.94 441.582L534.427 442.627C534.61 444.129 535.035 445.567 535.67 446.891L533.291 449.646L534.849 451.587L536.407 453.529L539.612 451.801C540.009 452.113 540.424 452.404 540.855 452.669C509.458 494.044 460.767 525.087 409.725 540.863C422.308 523.646 420.379 499.342 404.44 484.347C396.154 476.552 385.588 472.69 375.045 472.69C363.628 472.69 352.24 477.219 343.801 486.187C327.57 503.443 328.404 530.589 345.662 546.825C347.718 548.759 349.915 550.454 352.217 551.906C346.879 552.291 341.572 552.487 336.322 552.487C310.07 552.487 285.153 547.598 263.763 537.096C264.079 536.729 264.311 536.279 264.416 535.771L270.245 507.707C270.575 506.121 269.555 504.572 267.969 504.242L217.235 493.706C214.495 489.409 211.911 484.989 209.45 480.496C177.609 422.395 180.668 367.65 156.426 312.709C124.479 240.299 89.9589 176.351 131.784 130.053C133.239 129.891 134.698 129.648 136.15 129.321L142.483 137.934L149.055 134.745L155.631 131.559L152.789 121.252C156.237 118.454 159.147 115.152 161.452 111.506L172.016 113.121L174.415 106.215L176.669 99.7207C188.823 94.4197 201.484 90.5511 214.4 88.1363L214.607 90.9031L217.754 91.2479L220.9 91.5894L222.228 87.1543C223.368 87.0171 224.478 86.7671 225.545 86.4187C226.453 86.3094 227.36 86.2075 228.271 86.1087L231.152 88.6008L233.624 86.6194L234.981 85.5281C238.951 85.2606 242.936 85.1267 246.921 85.1267V85.1267ZM450.411 164.425C457.947 164.425 465.497 167.079 471.525 172.441L468.486 175.689C468.079 175.256 467.655 174.834 467.215 174.422C461.932 169.48 455.209 167.034 448.503 167.034C441.182 167.03 433.882 169.948 428.487 175.714C418.149 186.767 418.727 204.107 429.778 214.441C430.219 214.857 430.669 215.247 431.128 215.627L428.089 218.877C415.852 206.835 415.383 187.098 427.177 174.489C433.428 167.804 441.91 164.425 450.411 164.425V164.425ZM575.743 343.121C576.245 351.668 576.085 360.098 575.28 368.351C573.536 366.692 572.116 364.634 571.173 362.246C568.45 355.358 570.502 347.763 575.743 343.121V343.121ZM548.091 431.616C550.121 431.616 552.092 432.284 553.698 433.485C550.575 438.831 547.173 444.031 543.509 449.09C541.707 448.078 540.228 446.459 539.409 444.387C537.514 439.593 539.865 434.168 544.661 432.273C545.787 431.827 546.949 431.616 548.091 431.616Z" fill="#FCDEBC"/>
<path d="M289.65 325.747L196.507 425.32L262.257 486.825L355.4 387.252L289.65 325.747" fill="#99DDF0"/>
<path d="M244.672 356.695C244.686 358.645 245.872 360.306 247.558 361.028L247.533 357.986L248.709 356.79L250.385 356.776L251.588 357.955L251.61 360.873C253.144 360.074 254.19 358.465 254.172 356.617C254.158 354.787 253.109 353.21 251.585 352.428L251.455 336.74C253.127 335.994 254.288 334.311 254.271 332.361C254.253 330.414 253.067 328.749 251.384 328.031L251.409 331.069L250.23 332.269L248.554 332.283L247.354 331.101L247.329 328.183C245.795 328.982 244.753 330.594 244.767 332.442C244.781 334.272 245.833 335.849 247.354 336.631L247.484 352.316C245.812 353.062 244.654 354.748 244.672 356.695Z" fill="#334F75"/>
<path d="M243.337 343.906L239.367 346.409C238.909 346.694 238.842 347.247 239.212 347.638C239.578 348.028 240.254 348.113 240.712 347.828L244.763 345.279C244.855 345.219 244.978 345.237 245.055 345.318L245.108 345.374C245.196 345.466 245.193 345.614 245.101 345.702L241.243 349.352C240.873 349.704 240.814 350.288 241.141 350.682C241.497 351.112 242.137 351.147 242.538 350.767L246.417 347.096C246.513 347.008 246.66 347.011 246.748 347.106L246.921 347.286C246.998 347.37 247.005 347.504 246.931 347.592L243.799 351.443C243.478 351.841 243.496 352.428 243.869 352.777C244.281 353.157 244.918 353.108 245.266 352.682C245.266 352.682 250.356 347.064 251.226 346.251L251.666 348.989C251.652 349.517 252.067 349.957 252.599 349.975C253.127 349.989 253.57 349.57 253.584 349.042L254.471 342.928C254.478 342.583 254.007 342.08 253.528 341.766C249.962 337.373 249.378 336.726 248.308 335.627L244.056 339.932C242.831 341.171 241.387 342.182 239.8 342.907L239.402 343.09C238.899 343.319 238.691 343.924 238.955 344.417C239.198 344.867 239.761 345.033 240.226 344.822L243.119 343.498C243.207 343.456 243.316 343.477 243.383 343.551C243.485 343.657 243.464 343.829 243.337 343.906" fill="#F8A08C"/>
<path d="M280.445 328.802C281.093 325.94 282.782 319.963 286.348 315.105C281.892 314.007 275.883 312.684 273.609 312.927C269.815 313.331 247.311 336.634 247.311 336.634L254.355 343.734L275.725 327.756L280.445 328.802" fill="#F8A08C"/>
<path d="M235.055 412.669L224.688 423.374L234.879 433.173L244.136 423.574L235.055 412.669Z" fill="#F68964"/>
<path d="M217.5 415.482C217.5 415.482 213.787 413.761 212.439 415.204L233.52 434.923L237.487 430.681C237.487 430.681 237.86 427.211 234.551 426.067C234.551 426.067 228.754 425.335 228.44 419.431L217.5 415.482" fill="white"/>
<path d="M233.52 434.923L211.907 414.707C211.696 414.507 211.362 414.517 211.165 414.732L210.496 415.447C210.295 415.658 210.306 415.992 210.52 416.193L232.13 436.408L233.52 434.923Z" fill="#582F3D"/>
<path d="M225.202 418.263C224.875 420.03 224.22 423.578 223.802 425.835L225.241 427.179C225.614 425.162 226.392 420.935 226.783 418.833L225.202 418.263Z" fill="#D0DFF4"/>
<path d="M222.668 417.348C222.316 419.252 221.83 421.888 221.499 423.677L222.935 425.021C223.238 423.381 223.829 420.185 224.248 417.918L222.668 417.348" fill="#D0DFF4"/>
<path d="M258.963 438.925L252.961 450.305L264.933 458.158L271.005 446.05L258.963 438.925Z" fill="#F68964"/>
<path d="M254.749 446.828L250.782 451.069L271.863 470.788C273.212 469.349 271.247 465.758 271.247 465.758L266.576 455.107C260.666 455.188 259.551 449.45 259.551 449.45C258.188 446.226 254.749 446.828 254.749 446.828" fill="white"/>
<path d="M271.751 472.745L272.416 472.03C272.616 471.819 272.606 471.485 272.391 471.288L250.782 451.069L249.392 452.554L271.004 472.77C271.216 472.97 271.55 472.96 271.751 472.745Z" fill="#582F3D"/>
<path d="M267.284 456.722C265.214 457.25 261.05 458.31 259.061 458.817L260.497 460.161C262.722 459.594 266.217 458.704 267.96 458.26L267.284 456.722" fill="#D0DFF4"/>
<path d="M268.365 459.19C266.133 459.756 262.983 460.559 261.367 460.971L262.803 462.315C264.567 461.865 267.164 461.203 269.041 460.728L268.365 459.19Z" fill="#D0DFF4"/>
<path d="M283.134 391.226C304.941 373.654 325.74 360.764 325.74 360.764L317.07 328L266.914 373.203L228.821 413.926C232.682 423.684 239.571 429.048 239.571 429.048C238.81 429.865 267.71 403.651 283.134 391.226" fill="#323F6A"/>
<path d="M307.187 410.878L348.948 357.817L315.677 351.351C315.677 351.351 304.202 372.964 288.122 395.893C276.753 412.11 252.525 442.695 253.289 441.882C253.289 441.882 259.1 448.397 269.093 451.6L307.187 410.878Z" fill="#323F6A"/>
<path d="M253.287 441.878L253.288 441.879L253.287 441.878Z" fill="#180F18"/>
<path d="M306.779 367.536C306.863 367.395 306.817 367.215 306.68 367.134C306.539 367.05 306.36 367.096 306.279 367.233C306.173 367.409 295.687 384.879 288.555 394.763C281.424 404.654 253.338 441.332 253.056 441.702L252.891 441.913L253.088 442.096C253.458 442.434 262.177 450.354 269.03 451.885C269.188 451.921 269.343 451.822 269.379 451.664C269.414 451.505 269.315 451.35 269.157 451.315C263.014 449.942 255.042 443.047 253.683 441.843C256.02 438.794 282.181 404.605 289.031 395.104C296.176 385.199 306.673 367.712 306.779 367.536" fill="#040606"/>
<path d="M277.154 364.368L303.66 340.59C303.783 340.485 303.79 340.298 303.684 340.179C303.575 340.055 303.392 340.048 303.269 340.157L276.763 363.932C276.644 364.041 276.633 364.224 276.742 364.343L276.76 364.364C276.869 364.467 277.041 364.47 277.154 364.368" fill="#040606"/>
<path d="M307.416 411.057L338.389 371.707C338.489 371.581 338.465 371.391 338.34 371.296C338.213 371.197 338.029 371.218 337.929 371.345L306.958 410.695C306.863 410.818 306.877 410.987 306.986 411.089L307.007 411.107C307.134 411.209 307.317 411.184 307.416 411.057Z" fill="#040606"/>
<path d="M209.236 359.898L207.152 360.338C207.944 361.32 209.246 361.834 210.57 361.556C211.875 361.281 212.854 360.299 213.192 359.099L224.4 356.737C225.174 357.824 226.547 358.412 227.937 358.117C229.331 357.824 230.348 356.733 230.62 355.424L228.448 355.881L227.42 355.213L227.17 354.016L227.839 352.984L229.926 352.548C229.131 351.562 227.828 351.048 226.508 351.327C225.199 351.605 224.224 352.583 223.886 353.787L212.678 356.149C211.904 355.058 210.531 354.473 209.137 354.766C207.747 355.061 206.726 356.149 206.455 357.458L208.627 357.001L209.654 357.67L209.908 358.866L209.236 359.898" fill="#334F75"/>
<path d="M204.357 392.757L202.72 392.908C203.241 393.736 204.195 394.242 205.233 394.147C206.265 394.052 207.099 393.387 207.469 392.493L216.283 391.673C216.782 392.577 217.786 393.148 218.88 393.046C219.975 392.943 220.855 392.197 221.179 391.215L219.472 391.374L218.74 390.768L218.652 389.828L219.261 389.096L220.897 388.945C220.376 388.118 219.422 387.607 218.384 387.706C217.353 387.801 216.515 388.466 216.149 389.36L207.335 390.18C206.835 389.276 205.832 388.705 204.737 388.808C203.642 388.91 202.762 389.656 202.438 390.638L204.146 390.476L204.878 391.085L204.966 392.025L204.357 392.757" fill="#334F75"/>
<path d="M334.984 128.563C351.215 111.308 350.382 84.162 333.123 67.9243C315.864 51.6865 288.714 52.5137 272.483 69.7652C256.252 87.0168 257.087 114.166 274.345 130.404C291.604 146.638 318.754 145.815 334.984 128.563Z" fill="#151516"/>
<path d="M325.477 119.619C336.77 107.616 336.19 88.7273 324.182 77.4281C312.175 66.1325 293.287 66.7062 281.991 78.7094C270.699 90.7126 271.279 109.604 283.286 120.9C295.296 132.196 314.185 131.622 325.477 119.619Z" fill="#909197"/>
<path d="M319.053 73.5457C320.862 74.6298 322.583 75.9252 324.181 77.4282C324.417 77.65 324.646 77.8717 324.871 78.1005C324.646 77.8717 324.417 77.65 324.181 77.4282C322.583 75.9252 320.862 74.6298 319.053 73.5457ZM333.36 102.818C332.617 108.904 329.999 114.814 325.477 119.619C324.593 120.559 323.664 121.425 322.696 122.224C323.664 121.425 324.593 120.559 325.477 119.619C329.998 114.814 332.617 108.904 333.36 102.818Z" fill="#111212"/>
<path d="M303.734 69.3181C309.031 69.3181 314.343 70.7226 319.053 73.5456C320.862 74.6298 322.583 75.9252 324.181 77.4282C324.417 77.6499 324.646 77.8717 324.871 78.1005C331.579 84.8202 334.438 94.0039 333.36 102.818C332.617 108.904 329.999 114.814 325.477 119.619C324.593 120.559 323.664 121.425 322.696 122.224C317.226 126.733 310.492 129.003 303.748 129.003C302.361 129.003 300.977 128.908 299.601 128.718C299.362 128.542 299.122 128.366 298.883 128.194C304.11 126.817 309.028 124.012 313.002 119.784C314.776 117.901 316.258 115.845 317.448 113.674C317.729 113.41 318.007 113.132 318.275 112.843C321.897 108.996 323.692 104.085 323.696 99.1888C323.699 93.8701 321.591 88.5619 317.409 84.6266C317.289 84.5175 317.17 84.4048 317.05 84.2957C315.635 81.874 313.854 79.6141 311.706 77.5936C307.479 73.616 302.393 71.1168 297.088 70.0644C299.27 69.568 301.502 69.3181 303.734 69.3181" fill="#6F727A"/>
<path d="M318.275 112.843C325.829 104.817 325.441 92.184 317.409 84.6266C309.38 77.0727 296.746 77.4564 289.192 85.4855C281.642 93.5111 282.029 106.144 290.058 113.702C298.091 121.256 310.724 120.872 318.275 112.843" fill="#D0D2D5"/>
<path d="M316.966 84.1831C316.993 84.2056 317.02 84.2303 317.05 84.255C317.02 84.2303 316.993 84.2056 316.966 84.1831Z" fill="#AAABAF"/>
<path d="M317.05 84.2959C317.169 84.405 317.289 84.5177 317.409 84.6268C321.59 88.5621 323.699 93.8703 323.695 99.189C323.699 93.8703 321.59 88.5621 317.409 84.6268C317.289 84.5141 317.169 84.405 317.05 84.2959Z" fill="#939499"/>
<path d="M303.737 79.2058C308.433 79.2058 313.142 80.8532 316.919 84.1831C316.962 84.2183 317.004 84.257 317.05 84.2957C317.169 84.4049 317.289 84.514 317.409 84.6266C321.59 88.562 323.699 93.8701 323.695 99.1889C323.692 104.085 321.897 108.996 318.275 112.843C314.35 117.018 309.052 119.123 303.74 119.123C302.611 119.123 301.481 119.028 300.365 118.837C304.057 117.972 307.546 116.053 310.337 113.086C317.891 105.057 317.504 92.4234 309.471 84.8695C306.504 82.0746 302.903 80.3709 299.164 79.7338C300.667 79.3818 302.199 79.2058 303.737 79.2058" fill="#DBDDDE"/>
<path d="M406.302 544.983C422.533 527.733 421.699 500.582 404.441 484.346C387.182 468.11 360.033 468.935 343.801 486.189C327.571 503.44 328.405 530.591 345.662 546.826C362.922 563.062 390.07 562.238 406.302 544.983" fill="#151516"/>
<path d="M396.793 536.042C408.086 524.039 407.506 505.15 395.498 493.855C383.49 482.556 364.601 483.128 353.307 495.135C342.015 507.138 342.594 526.027 354.603 537.326C366.611 548.621 385.5 548.049 396.793 536.042" fill="#909197"/>
<path d="M396.224 494.555C407.526 505.918 407.856 524.282 396.795 536.042C396.725 536.116 396.655 536.19 396.585 536.26C396.655 536.19 396.725 536.116 396.794 536.042C407.856 524.282 407.526 505.918 396.224 494.555Z" fill="#111212"/>
<path d="M375.05 485.739C382.384 485.739 389.736 488.428 395.5 493.85C395.746 494.081 395.988 494.316 396.225 494.554C407.527 505.919 407.857 524.282 396.795 536.041C396.725 536.112 396.655 536.187 396.585 536.258C390.737 542.353 382.911 545.425 375.065 545.425C373.109 545.425 371.152 545.233 369.224 544.853C374.814 543.583 380.098 540.692 384.321 536.205C386.094 534.32 387.575 532.265 388.765 530.096C388.772 530.089 388.781 530.078 388.789 530.071C388.796 530.064 388.804 530.056 388.811 530.049C388.813 530.049 388.815 530.046 388.817 530.046C389.082 529.793 389.34 529.534 389.593 529.264C393.215 525.416 395.01 520.505 395.013 515.609C395.017 510.289 392.908 504.98 388.728 501.047C388.652 500.976 388.577 500.909 388.502 500.838C388.479 500.82 388.456 500.799 388.434 500.777C388.424 500.77 388.416 500.759 388.406 500.752C388.393 500.742 388.38 500.727 388.366 500.717C386.953 498.295 385.172 496.034 383.026 494.014C378.795 490.035 373.711 487.535 368.406 486.482C370.589 485.988 372.818 485.739 375.05 485.739" fill="#6F727A"/>
<path d="M389.593 529.266C397.145 521.237 396.758 508.604 388.727 501.05C380.696 493.496 368.063 493.88 360.511 501.905C352.958 509.934 353.346 522.568 361.377 530.122C369.407 537.679 382.04 537.295 389.593 529.266Z" fill="#D0D2D5"/>
<path d="M388.406 500.754C388.415 500.761 388.424 500.771 388.433 500.778C388.424 500.771 388.415 500.761 388.406 500.754ZM388.501 500.842C388.577 500.909 388.652 500.979 388.727 501.049C392.907 504.981 395.016 510.289 395.013 515.608C395.016 510.289 392.907 504.981 388.727 501.049C388.652 500.979 388.577 500.909 388.501 500.842ZM389.593 529.266C389.34 529.533 389.081 529.794 388.817 530.047C389.081 529.794 389.34 529.533 389.593 529.266ZM388.811 530.054C388.803 530.061 388.796 530.065 388.789 530.075C388.796 530.065 388.803 530.061 388.811 530.054Z" fill="#939499"/>
<path d="M375.053 495.629C379.822 495.629 384.601 497.326 388.406 500.754C388.415 500.761 388.424 500.772 388.433 500.779C388.456 500.8 388.479 500.821 388.501 500.842C388.577 500.909 388.652 500.979 388.727 501.05C392.907 504.982 395.016 510.29 395.013 515.608C395.01 520.508 393.214 525.415 389.593 529.266C389.34 529.534 389.081 529.794 388.817 530.047C388.815 530.047 388.813 530.051 388.811 530.055C388.803 530.062 388.796 530.065 388.789 530.076C384.959 533.712 380.015 535.546 375.058 535.546C373.93 535.546 372.8 535.451 371.683 535.257C375.376 534.395 378.864 532.476 381.656 529.505C389.209 521.48 388.821 508.847 380.79 501.289C377.821 498.498 374.222 496.794 370.483 496.153C371.984 495.805 373.518 495.629 375.053 495.629" fill="#DBDDDE"/>
<path d="M523.544 334.831C509.133 311.156 460.136 279.733 460.136 279.733L357.625 184.897C357.625 184.897 344.109 166.276 338.436 159.564C332.763 152.851 271.367 106.317 260.459 103.318C249.554 100.322 239.286 102.846 233.415 106.493C227.54 110.14 215.853 121.879 215.853 121.879C210.577 121.513 204.589 127.159 204.589 127.159L169.784 164.365C169.784 164.365 164.546 170.715 165.267 175.96C165.267 175.96 154.331 188.403 151.082 194.503C147.836 200.607 146.002 211.019 149.72 221.702C153.437 232.386 203.959 290.543 211.038 295.756C218.113 300.969 237.589 313.215 237.589 313.215L339.05 409.177C339.05 409.177 373.666 455.972 398.249 468.774C422.832 481.577 437.182 481.64 447.723 476.385C457.34 471.59 489.573 440.115 495.147 434.638L495.181 434.669C495.181 434.669 495.314 434.518 495.562 434.229C495.833 433.962 495.977 433.821 495.977 433.821L495.942 433.789C501.037 427.861 530.293 393.601 534.437 383.686C538.978 372.819 537.956 358.507 523.544 334.831" fill="#D22351"/>
<path d="M419.267 390.958C428.157 401.155 440.604 404.464 453.023 404.464C476.011 404.464 498.893 393.119 498.893 393.119C498.893 393.119 445.048 451.372 424.836 458.475C423.098 459.088 421.315 459.366 419.502 459.366C405.419 459.366 389.722 442.498 382.296 433.423L382.02 425.144C389.295 418.689 406.277 403.489 419.267 390.958Z" fill="#D83261"/>
<path d="M173.715 168.138C173.715 168.138 230.377 214.31 277.27 214.31C288.657 214.31 299.471 211.589 308.757 204.82L308.102 205.542C294.437 217.144 282.177 229.305 279.667 231.815L279.65 231.801C279.65 231.801 279.576 231.889 279.431 232.051C279.28 232.206 279.196 232.287 279.196 232.287L279.21 232.301C278.851 232.713 278.277 233.368 277.531 234.237V234.24C276.056 235.948 273.902 238.475 271.325 241.569C269.442 243.836 267.337 246.409 265.109 249.19C262.303 252.692 259.308 256.529 256.326 260.496C253.559 264.185 250.81 267.99 248.241 271.76L247.811 272.239L170.586 178.917L173.715 168.138" fill="#D83261"/>
<path d="M277.53 234.241C276.055 235.948 273.901 238.475 271.325 241.569C269.441 243.836 267.336 246.409 265.108 249.19C262.303 252.693 259.307 256.529 256.326 260.496C247.885 271.757 239.588 284.102 236.153 293.141C235.956 293.662 235.773 294.165 235.611 294.665L378.462 428.295C378.462 428.295 379.781 427.133 382.019 425.144C392.724 415.644 424.444 387.22 433.539 376.209C443.914 366.406 470.161 332.861 478.93 321.547C480.763 319.182 481.835 317.788 481.835 317.788L338.983 184.158C338.496 184.355 338.003 184.57 337.496 184.802C318.07 193.708 284.042 227.437 279.667 231.815L279.649 231.801C279.649 231.801 279.575 231.889 279.431 232.051C279.28 232.206 279.195 232.287 279.195 232.287L279.209 232.301C278.85 232.713 278.277 233.368 277.53 234.237V234.241" fill="#465481"/>
<path d="M156.678 186.351C154.369 189.333 152.183 192.374 151.004 194.584C147.755 200.688 145.928 211.104 149.642 221.787C150.032 222.903 150.934 224.54 152.247 226.588C152.247 226.588 158.343 210.417 161.166 202.508C163.989 194.609 156.678 186.351 156.678 186.351" fill="#F8A348"/>
<path d="M186.422 212.716L244.26 277.611L240.109 284.52L186.422 212.716" fill="#C91D3E"/>
<path d="M265.503 105.514C263.373 104.342 261.68 103.55 260.54 103.237C249.631 100.242 239.363 102.762 233.488 106.409C231.359 107.732 228.472 110.115 225.649 112.618C225.649 112.618 234.379 119.366 242.074 116.022C249.772 112.678 265.503 105.514 265.503 105.514Z" fill="#F8A348"/>
<path d="M253.94 140.542L329.162 189.322L322.545 193.926L253.94 140.542Z" fill="#C91D3E"/>
<path d="M513.058 402.923L526.98 379.867C527.388 379.187 527.171 378.307 526.494 377.899L520.714 374.411C520.037 374.002 519.157 374.217 518.748 374.897L504.826 397.953C504.418 398.628 504.635 399.508 505.312 399.917L511.092 403.409C511.769 403.817 512.649 403.599 513.058 402.923Z" fill="#841334"/>
<path d="M442.79 469.866L464.869 454.438C465.517 453.984 465.675 453.093 465.222 452.445L461.355 446.909C460.902 446.261 460.009 446.102 459.361 446.557L437.282 461.985C436.634 462.435 436.476 463.329 436.929 463.977L440.797 469.51C441.249 470.162 442.142 470.317 442.79 469.866" fill="#841334"/>
<path d="M230.778 305.042L222.098 316.295C222.098 316.295 217.719 321.825 227.529 328.101L239.716 311.554L230.778 305.042Z" fill="#323F6A"/>
<path d="M359.668 169.23L349.016 178.646L356.11 187.126L371.809 173.866C364.89 164.496 359.668 169.23 359.668 169.23Z" fill="#323F6A"/>
<path d="M265.109 249.19L314.98 250.813C310.499 255.076 307.363 258.17 307.363 258.17L307.349 258.184C307.349 258.184 306.074 259.662 304.054 262.049L256.326 260.496C259.308 256.529 262.303 252.693 265.109 249.19Z" fill="#56638D"/>
<path d="M277.53 234.237L331.219 235.983C328.556 238.278 325.772 240.781 323.072 243.252L271.325 241.569C273.901 238.475 276.055 235.948 277.53 234.241V234.237Z" fill="#56638D"/>
<path d="M342.02 178.266L336.31 179.557L337.497 184.802L346.705 225.458C345.717 225.786 344.595 226.243 343.317 226.877C340.66 228.186 336.159 231.731 331.22 235.983C328.557 238.278 325.772 240.781 323.072 243.252C320.176 245.909 317.384 248.528 314.98 250.813C310.499 255.076 307.363 258.17 307.363 258.17L307.349 258.184C307.349 258.184 306.074 259.662 304.054 262.049C297.105 270.282 281.329 289.35 278.523 296.14C277.981 297.456 277.598 298.607 277.337 299.614L236.153 293.141L230.845 292.303L229.937 298.086L241.152 299.85L277.566 305.573C277.967 306.214 278.414 306.404 278.414 306.404L328.261 353.034L310.633 371.88L314.906 375.878L332.536 357.032L374.024 395.84C374.024 395.84 374.456 396.115 375.207 396.404L376.622 438.809L382.469 438.615L382.02 425.144L381.073 396.759C382.55 396.386 384.152 395.605 385.771 394.179C391.223 389.378 414.18 366.712 418.334 362.608L418.359 362.633C418.359 362.633 418.459 362.513 418.657 362.288C418.865 362.08 418.98 361.967 418.98 361.967L418.955 361.943C422.774 357.525 443.858 333.11 448.284 327.352C449.601 325.638 450.272 323.99 450.55 322.494L492.401 321.097L492.205 315.25L449.798 316.665C449.464 315.929 449.162 315.517 449.162 315.517L407.674 276.709L425.3 257.867L421.026 253.868L403.4 272.711L353.551 226.081C353.551 226.081 353.332 225.648 352.667 225.289L344.529 189.347L342.02 178.266" fill="#D22351"/>
<path d="M350.694 247.902C351.969 247.902 353.246 248.367 354.25 249.307L428.009 318.302C430.109 320.266 430.219 323.561 428.254 325.662L383.283 373.735C382.258 374.833 380.871 375.386 379.48 375.386C378.205 375.386 376.928 374.921 375.924 373.982L302.167 304.986C300.066 303.022 299.957 299.727 301.921 297.626L346.891 249.553C347.916 248.455 349.303 247.902 350.694 247.902" fill="#D83261"/>
<path d="M277.52 299.892L277.576 299.677C277.851 298.618 278.245 297.46 278.752 296.235C281.543 289.48 297.51 270.19 304.244 262.211C306.24 259.849 307.525 258.36 307.539 258.346C307.57 258.314 310.724 255.206 315.152 250.992C318.018 248.268 320.742 245.723 323.241 243.435C326.311 240.619 328.975 238.243 331.381 236.17C337.03 231.308 341.085 228.264 343.426 227.098C344.615 226.511 345.744 226.039 346.783 225.694L346.996 225.624L337.738 184.746L337.255 184.855L346.415 225.296C345.414 225.641 344.336 226.095 343.207 226.651C340.829 227.841 336.738 230.904 331.058 235.796C328.648 237.873 325.98 240.253 322.907 243.069C320.404 245.36 317.68 247.905 314.811 250.633C310.379 254.85 307.222 257.962 307.183 258.001L307.162 258.022C307.148 258.036 305.863 259.528 303.864 261.89C297.116 269.888 281.111 289.226 278.295 296.045C277.816 297.206 277.432 298.315 277.154 299.336L236.192 292.894L236.114 293.384L277.298 299.86L277.52 299.892" fill="#171717"/>
<path d="M344.287 189.399L352.425 225.342L352.45 225.451L352.548 225.507C353.128 225.821 353.329 226.19 353.331 226.194L353.35 226.232L403.412 273.059L417.866 257.61L376.563 218.971L376.225 219.333L417.166 257.631L403.388 272.362L353.747 225.923C353.672 225.803 353.423 225.444 352.884 225.127L344.77 189.29L344.287 189.399" fill="#171717"/>
<path d="M373.854 396.023L373.891 396.052C373.91 396.062 374.353 396.34 375.118 396.636L375.295 396.171C374.664 395.932 374.263 395.696 374.174 395.643L332.524 356.684L318.134 372.2L352.394 404.25L352.732 403.887L318.831 372.175L332.549 357.384L373.854 396.023Z" fill="#171717"/>
<path d="M418.34 362.273L418.33 362.266L418.16 362.432C411.844 368.673 390.829 389.395 385.607 393.992C384.167 395.263 382.621 396.111 381.012 396.519L380.819 396.569L381.772 425.155L382.267 425.137L381.327 396.949C382.943 396.502 384.492 395.636 385.935 394.365C391.12 389.796 411.821 369.391 418.338 362.953L418.38 362.991L418.549 362.791C418.55 362.791 418.649 362.671 418.833 362.463C419.036 362.256 419.151 362.147 419.152 362.147L419.34 361.967L419.298 361.925C425.286 354.998 444.269 332.98 448.481 327.499C449.651 325.979 450.415 324.377 450.755 322.733L478.421 321.811C475.981 325.046 459.636 346.599 443.775 364.744L444.147 365.072C461.268 345.486 478.951 321.931 479.128 321.695L479.438 321.283L450.343 322.251L450.307 322.448C450.003 324.081 449.257 325.679 448.088 327.2C443.848 332.716 424.574 355.064 418.768 361.781L418.613 361.96L418.624 361.971C418.58 362.016 418.53 362.066 418.472 362.126C418.422 362.182 418.378 362.231 418.34 362.273" fill="#171717"/>
<path d="M440.892 279.825L441.231 279.465L421.779 261.267L407.324 276.72L448.974 315.683C449.033 315.767 449.292 316.151 449.572 316.767L449.641 316.918L466.112 316.369L466.096 315.873L449.953 316.411C449.641 315.757 449.373 315.387 449.361 315.373L449.348 315.352L408.024 276.699L421.802 261.968L440.892 279.825Z" fill="#171717"/>
<path d="M282.641 338.32L282.304 338.682L314.121 368.448L314.304 368.617L328.444 353.202L328.609 353.023L278.583 306.225L278.551 306.193L278.512 306.179C278.509 306.175 278.125 305.999 277.773 305.443L277.713 305.348L241.19 299.607L241.112 300.096L277.418 305.802C277.77 306.32 278.143 306.545 278.27 306.608L327.912 353.048L314.276 367.916L282.641 338.32" fill="#171717"/>
<path d="M423.594 334.251C423.594 334.251 423.947 333.079 424.905 331.217C427.503 326.179 440.133 314.352 440.133 314.352C440.133 314.352 434.799 312.233 431.019 311.019C427.239 309.804 424.543 307.559 424.543 307.559C424.543 307.559 415.716 309.329 411.94 314.915C408.164 320.502 404.54 323.568 404.54 323.568C404.54 323.568 409.688 324.645 412.239 330.104C414.79 335.564 423.594 334.251 423.594 334.251" fill="#323F6A"/>
<path d="M432.598 310.794L434.506 308.069L424.243 305.211C424.253 305.264 424.172 305.676 424.179 305.729C422.313 307.658 420.143 309.896 419.607 310.445C418.622 311.449 416.437 315.923 416.312 317.806C416.085 321.22 417.312 320.15 417.312 320.15C417.409 323.719 419.187 321.741 419.187 321.741C418.993 324.948 421.027 323.41 421.027 323.41C421.1 325.141 421.714 325.367 422.213 325.254C422.578 325.17 422.875 324.902 423.024 324.561C423.301 323.927 423.906 322.533 424.516 321.058H424.516C424.516 321.058 427.159 317.133 432.598 310.794Z" fill="#F68B62"/>
<path d="M421.194 323.441C421.197 323.42 421.575 321.389 422.074 320.178C422.11 320.094 422.069 319.991 421.983 319.956C421.913 319.928 421.835 319.949 421.789 320.006L421.762 320.048C421.249 321.294 420.877 323.293 420.861 323.378C420.844 323.473 420.905 323.561 420.997 323.578C421.088 323.592 421.177 323.533 421.194 323.441" fill="#F35B5C"/>
<path d="M419.353 321.773C419.356 321.755 419.64 320.192 420.432 318.812C420.478 318.731 420.45 318.626 420.369 318.58C420.297 318.538 420.208 318.555 420.156 318.619L420.138 318.643C419.316 320.079 419.032 321.646 419.02 321.713C419.004 321.804 419.065 321.892 419.157 321.91C419.249 321.924 419.337 321.864 419.353 321.773" fill="#F35B5C"/>
<path d="M417.48 320.171C417.482 320.157 417.68 318.724 418.329 317.51C418.373 317.429 418.342 317.327 418.26 317.281C418.188 317.242 418.101 317.263 418.051 317.323L418.03 317.351C417.353 318.618 417.153 320.065 417.144 320.128C417.132 320.22 417.197 320.304 417.29 320.319C417.382 320.329 417.468 320.266 417.48 320.171" fill="#F35B5C"/>
<path d="M452.437 348.729C452.28 349.218 452.448 349.848 454.166 350.077C454.166 350.077 452.45 351.964 455.66 352.062C455.66 352.062 453.53 353.653 457.077 354.072C457.077 354.072 455.9 355.195 459.322 355.28C461.209 355.325 465.86 353.555 466.95 352.664C467.544 352.178 469.971 350.218 472.06 348.535C472.11 348.546 472.528 348.504 472.583 348.518L470.661 338.039L467.776 339.693C460.97 344.536 456.822 346.814 456.822 346.814H456.823C455.299 347.289 453.857 347.764 453.2 347.986C452.845 348.102 452.553 348.373 452.437 348.729" fill="#F68B62"/>
<path d="M457.579 349.647L457.626 349.626C457.685 349.584 457.713 349.51 457.69 349.436C457.663 349.348 457.568 349.299 457.479 349.327C456.228 349.714 454.171 349.908 454.15 349.908C454.058 349.918 453.989 349.999 453.997 350.094C454.006 350.186 454.088 350.253 454.181 350.246C454.267 350.239 456.294 350.049 457.579 349.647" fill="#F35B5C"/>
<path d="M458.834 351.394L458.861 351.379C458.926 351.33 458.952 351.246 458.917 351.168C458.878 351.084 458.778 351.045 458.693 351.087C457.244 351.749 455.663 351.89 455.647 351.893C455.553 351.9 455.484 351.981 455.492 352.076C455.5 352.168 455.582 352.238 455.675 352.231C455.742 352.224 457.329 352.083 458.834 351.394" fill="#F35B5C"/>
<path d="M459.929 353.607L459.961 353.589C460.024 353.547 460.05 353.463 460.019 353.385C459.982 353.301 459.883 353.262 459.797 353.297C458.53 353.836 457.084 353.903 457.07 353.903C456.976 353.906 456.904 353.984 456.908 354.079C456.912 354.17 456.991 354.244 457.084 354.241C457.146 354.237 458.606 354.17 459.929 353.607" fill="#F35B5C"/>
<path d="M520.744 285.457C520.014 268.666 505.531 264.685 505.531 264.685C491.474 245.336 474.656 259.078 474.656 259.078L489.046 298.579C489.046 298.579 521.472 302.244 520.744 285.457" fill="#323F6A"/>
<path d="M471.171 352.118C478.492 351.872 515.31 329.572 520.795 323.708C526.279 317.847 525.785 308.519 518.415 296.305C512.538 286.565 492.302 264.709 474.635 255.35C462.028 248.672 452.616 248.94 447.132 254.804C441.647 260.665 421.851 298.889 422.095 306.21C422.095 306.21 425.292 314.165 433.864 312.962L455.234 277.987L472.106 294.116L472.051 294.225L475.965 297.808L479.799 301.472L479.903 301.412L497.123 317.168L463.649 340.822C463.02 349.457 471.171 352.118 471.171 352.118" fill="white"/>
<path d="M484.65 302.539C490.397 296.397 494.105 290.525 484.987 281.996C476.516 274.073 470.258 277.558 464.511 283.7C458.764 289.842 458.614 299.04 464.175 304.243C469.736 309.445 478.903 308.681 484.65 302.539Z" fill="#3F1927"/>
<path d="M475.024 308.238C480.127 302.782 480.781 295.101 476.485 291.085C472.189 287.065 464.569 288.23 459.466 293.686C454.363 299.139 453.709 306.82 458.005 310.839C462.301 314.859 469.921 313.694 475.024 308.238" fill="#222F50"/>
<path d="M483.138 303.461C488.241 298.005 488.024 289.512 482.654 284.489C477.284 279.466 468.794 279.814 463.691 285.27C458.588 290.726 458.804 299.22 464.175 304.243C469.545 309.266 478.035 308.917 483.138 303.461" fill="#323F6A"/>
<path d="M474.192 295.094C474.601 294.658 474.583 293.978 474.154 293.577C473.724 293.172 473.045 293.201 472.636 293.637C472.228 294.074 472.246 294.753 472.676 295.158C473.105 295.559 473.784 295.531 474.192 295.094" fill="#558BD0"/>
<path d="M260.951 538.045C262.535 538.372 264.087 537.355 264.418 535.767L270.244 507.706C270.575 506.122 269.558 504.57 267.97 504.239L214.466 493.13C212.882 492.799 211.33 493.82 210.999 495.404L205.173 523.465C204.842 525.049 205.86 526.601 207.447 526.932L260.951 538.045Z" fill="#75CE9D"/>
<path d="M216.012 498.096C216.209 498.096 216.41 498.118 216.61 498.16L264.004 508.002C265.588 508.329 266.608 509.881 266.278 511.469L262.275 530.737C261.987 532.124 260.769 533.075 259.407 533.075C259.209 533.075 259.009 533.054 258.808 533.015L211.415 523.173C209.831 522.842 208.81 521.29 209.141 519.706L213.143 500.434C213.432 499.05 214.65 498.096 216.012 498.096" fill="#80D2A5"/>
<path d="M247.822 507.657L233.109 504.601C232.574 504.489 232.049 504.834 231.936 505.369L228.511 521.867L245.161 525.327L248.59 508.825C248.699 508.29 248.357 507.766 247.822 507.657" fill="#75CE9D"/>
<path d="M229.701 513.922C229.233 513.827 228.775 514.127 228.676 514.595L226.934 522.983L246.35 527.017L248.093 518.629C248.191 518.16 247.889 517.699 247.42 517.604C246.952 517.506 246.495 517.808 246.396 518.277L245.006 524.968L228.983 521.638L230.373 514.947C230.472 514.479 230.169 514.021 229.701 513.922" fill="#323F6A"/>
<path d="M208.627 410.146L199.608 419.787L200.714 420.822L209.732 411.18L208.627 410.146Z" fill="#222F50"/>
<path d="M275.482 472.686L266.464 482.327L267.573 483.362L276.587 473.72L275.482 472.686Z" fill="#222F50"/>
<path d="M265.925 348.89L256.91 358.532L258.015 359.567L267.034 349.925L265.925 348.89Z" fill="#222F50"/>
<path d="M332.783 411.43L323.766 421.071L324.871 422.106L333.889 412.465L332.783 411.43Z" fill="#222F50"/>
<path d="M172.983 161.306L187.813 145.456L187.45 145.118L172.624 160.968C164.271 169.895 164.986 175.749 165.021 175.995L165.51 175.925C165.503 175.868 164.817 170.039 172.983 161.306" fill="#171717"/>
<path d="M245.337 134.562L245.066 134.977L324.019 186.281L324.287 185.866L245.337 134.562Z" fill="#171717"/>
<path d="M180.055 204.475L179.661 204.771L236.111 280.127L236.505 279.831L180.055 204.475Z" fill="#171717"/>
<path d="M260.557 108.031L260.353 107.581C260.275 107.616 252.528 111.108 244.154 114.839C235.927 118.507 231.19 115.413 231.144 115.377L230.866 115.789C231.063 115.923 235.857 119.077 244.358 115.293C252.732 111.562 260.479 108.066 260.557 108.031" fill="#171717"/>
<path d="M145.32 285.217C160.139 291.599 167.911 261.246 167.911 261.246L137.371 234.856C137.371 234.856 119.3 245.262 131.87 264.477C131.87 264.477 130.504 278.835 145.32 285.217Z" fill="#323F6A"/>
<path d="M207.888 247.624C209.855 247.311 211.879 247.462 213.706 248.261C214.41 248.571 215.181 248.765 216.001 248.814C219.349 249.021 222.38 246.649 222.985 243.351C223.689 239.507 220.996 235.927 217.177 235.48C216.55 235.406 215.934 235.424 215.343 235.519C213.375 235.832 211.348 235.681 209.524 234.878C208.82 234.568 208.05 234.375 207.229 234.325C203.882 234.121 200.851 236.49 200.246 239.792C199.542 243.636 202.231 247.212 206.05 247.659C206.677 247.733 207.293 247.719 207.888 247.624" fill="#FBC06F"/>
<path d="M199.521 202.423C193.442 204.648 189.753 212.466 189.753 212.466C189.753 212.466 191.224 215.497 191.481 219.302C191.738 223.103 191.354 233.044 191.354 233.044L197.849 226.261C201.612 222.329 206.42 219.527 211.717 218.274C213.671 217.809 214.843 217.753 214.843 217.753C214.843 217.753 218.106 209.851 213.604 206.211C209.106 202.571 209.296 197.527 209.296 197.527C209.296 197.527 205.6 200.195 199.521 202.423" fill="#323F6A"/>
<path d="M201.203 207.165C199.419 206.845 194.744 207.848 193.582 208.534C192.949 208.907 190.358 210.41 188.13 211.702C188.084 211.685 187.679 211.667 187.63 211.642L187.922 221.868L190.904 220.72C198.07 217.12 202.34 215.56 202.34 215.56H202.337C203.854 215.335 205.29 215.092 205.945 214.983C206.3 214.92 206.617 214.705 206.779 214.384C207.001 213.948 206.934 213.321 205.336 212.853C205.336 212.853 207.24 211.315 204.206 210.755C204.206 210.755 206.462 209.555 203.157 208.64C203.157 208.64 204.438 207.742 201.203 207.165" fill="#F68B62"/>
<path d="M205.325 213.015C205.417 213.022 205.494 212.955 205.498 212.864C205.505 212.776 205.434 212.698 205.346 212.691C205.262 212.688 203.312 212.571 202.034 212.762L201.985 212.776C201.925 212.807 201.886 212.874 201.897 212.945C201.911 213.036 201.995 213.096 202.083 213.082C203.326 212.899 205.307 213.015 205.325 213.015Z" fill="#F35B5C"/>
<path d="M204.195 210.917C204.286 210.921 204.364 210.854 204.367 210.766C204.374 210.674 204.308 210.597 204.22 210.59C204.153 210.586 202.625 210.488 201.097 210.924L201.069 210.935C201.002 210.97 200.964 211.047 200.988 211.125C201.013 211.209 201.101 211.262 201.189 211.237C202.66 210.819 204.181 210.914 204.195 210.917" fill="#F35B5C"/>
<path d="M203.139 208.798C203.227 208.809 203.308 208.745 203.319 208.657C203.329 208.566 203.262 208.488 203.174 208.478C203.115 208.471 201.721 208.323 200.383 208.661L200.351 208.671C200.284 208.706 200.246 208.784 200.267 208.858C200.288 208.946 200.376 208.999 200.464 208.974C201.745 208.65 203.125 208.798 203.139 208.798" fill="#F35B5C"/>
<path d="M201.858 251.654L200.26 254.417L210.313 256.304C210.299 256.255 210.341 255.85 210.33 255.804C211.957 253.805 213.847 251.481 214.315 250.915C215.174 249.873 216.895 245.413 216.86 243.6C216.793 240.316 215.709 241.442 215.709 241.442C215.322 238.032 213.783 240.073 213.783 240.073C213.702 236.99 211.886 238.63 211.886 238.63C211.671 236.979 211.066 236.814 210.598 236.965C210.256 237.074 209.996 237.352 209.88 237.694C209.669 238.324 209.204 239.707 208.743 241.168V241.164C208.743 241.164 206.539 245.138 201.858 251.654" fill="#F68B62"/>
<path d="M211.439 241.949L211.46 241.904C211.848 240.672 212.038 238.729 212.048 238.644C212.055 238.556 211.992 238.475 211.9 238.468C211.812 238.458 211.731 238.524 211.724 238.612C211.721 238.634 211.527 240.608 211.151 241.809C211.123 241.893 211.172 241.985 211.256 242.009C211.327 242.034 211.397 242.006 211.439 241.949" fill="#F35B5C"/>
<path d="M213.114 243.143L213.128 243.114C213.797 241.675 213.938 240.151 213.945 240.087C213.952 239.996 213.889 239.918 213.797 239.911C213.709 239.904 213.628 239.968 213.621 240.059C213.621 240.073 213.477 241.59 212.833 242.981C212.798 243.062 212.833 243.157 212.914 243.195C212.984 243.227 213.069 243.206 213.114 243.143Z" fill="#F35B5C"/>
<path d="M215.234 244.206L215.251 244.177C215.797 242.91 215.867 241.506 215.871 241.449C215.874 241.358 215.804 241.284 215.716 241.277C215.628 241.273 215.55 241.344 215.547 241.432C215.547 241.446 215.476 242.833 214.952 244.047C214.917 244.132 214.956 244.227 215.04 244.262C215.11 244.294 215.191 244.269 215.234 244.206" fill="#F35B5C"/>
<path d="M190.301 208.443C183.318 207.605 145.122 223.388 139.061 228.151C132.999 232.914 132.105 241.84 137.315 254.505C141.472 264.604 149.797 278.864 153.003 284.232C153.845 285.64 155.327 286.562 156.967 286.657C162.039 286.956 164.736 285.773 164.736 285.773C164.736 285.773 189.217 297.213 196.271 294.517C203.322 291.821 216.462 254.614 216.462 254.614C209.774 246.906 201.087 249.936 201.087 249.936L189.076 273.288L160.568 237.817L195.793 220.259C197.648 212.156 190.301 208.443 190.301 208.443" fill="white"/>
<path d="M182.505 262.785C188.855 257.797 190.344 249.088 185.824 243.34C181.308 237.592 172.497 236.976 166.144 241.967C159.794 246.959 155.946 252.657 162.824 261.412C170.234 270.838 176.155 267.776 182.505 262.785Z" fill="#3F1927"/>
<path d="M188.753 254.048C194.392 249.616 196.134 242.425 192.642 237.983C189.154 233.541 181.751 233.533 176.112 237.965C170.473 242.397 168.731 249.588 172.219 254.03C175.711 258.473 183.11 258.48 188.753 254.048Z" fill="#222F50"/>
<path d="M183.511 261.415C189.15 256.984 190.185 248.891 185.824 243.34C181.463 237.789 173.353 236.881 167.714 241.313C162.075 245.744 161.04 253.837 165.401 259.388C169.766 264.939 177.872 265.847 183.511 261.415Z" fill="#323F6A"/>
<path d="M176.246 252.168C176.697 251.813 176.778 251.165 176.429 250.721C176.081 250.278 175.433 250.204 174.983 250.559C174.532 250.915 174.448 251.563 174.796 252.006C175.145 252.45 175.796 252.524 176.246 252.168" fill="#558BD0"/>
<path d="M496.127 220.034C498.57 221.002 500.922 222.185 503.115 223.631C512.273 229.668 516.877 225.388 522.498 218.035C524.989 214.779 527.747 211.734 530.676 208.865C533.434 206.158 535.301 203.3 535.058 198.467C535.336 178.044 522.116 182.412 514.439 167.78C505.591 157.558 483.534 159.719 486.63 176.537C496.154 194.461 492.182 193.493 491.05 212.075C490.685 216.507 492.877 218.746 496.127 220.034" fill="#9EDEDD"/>
<path d="M427.177 174.489C438.971 161.88 458.697 161.035 471.525 172.44L428.09 218.876C415.853 206.834 415.384 187.097 427.177 174.489ZM473.831 172.356L473.237 171.803C459.776 159.208 438.581 159.916 425.99 173.376C413.398 186.837 414.105 208.034 427.566 220.625L428.159 221.181L473.831 172.356" fill="#334F75"/>
<path d="M468.508 213.149C478.845 202.1 478.267 184.76 467.216 174.422C456.164 164.084 438.825 164.664 428.487 175.714C418.149 186.766 418.727 204.106 429.779 214.441C440.831 224.779 458.17 224.202 468.508 213.149Z" fill="#334F75"/>
<path d="M466.732 211.491C476.153 201.42 475.626 185.619 465.555 176.196C455.484 166.776 439.683 167.304 430.262 177.375C420.842 187.446 421.369 203.247 431.44 212.667C441.51 222.09 457.311 221.562 466.732 211.491" fill="#9EDEDD"/>
<path d="M466.732 211.491C476.153 201.42 475.626 185.619 465.555 176.196C455.484 166.776 439.683 167.304 430.262 177.375C420.842 187.446 421.369 203.247 431.44 212.667C441.51 222.09 457.311 221.562 466.732 211.491" fill="#9EDEDD"/>
<path d="M448.503 169.462C454.614 169.462 460.74 171.694 465.555 176.196C466.558 177.136 467.466 178.135 468.279 179.188C467.466 178.135 466.558 177.136 465.555 176.196C460.74 171.694 454.614 169.462 448.502 169.462C446.288 169.462 444.075 169.754 441.927 170.339C444.075 169.754 446.288 169.462 448.503 169.462ZM430.229 177.41C430.225 177.414 430.222 177.417 430.218 177.421C430.222 177.417 430.225 177.414 430.229 177.41ZM430.195 177.446C430.191 177.453 430.187 177.456 430.183 177.46C430.187 177.456 430.191 177.453 430.195 177.446ZM430.152 177.495C430.148 177.498 430.145 177.502 430.141 177.505C430.145 177.502 430.148 177.498 430.152 177.495ZM430.119 177.53C430.114 177.534 430.11 177.541 430.105 177.544C430.11 177.541 430.114 177.534 430.119 177.53ZM430.084 177.565C430.08 177.572 430.076 177.576 430.072 177.579C430.076 177.576 430.08 177.572 430.084 177.565ZM430.041 177.614C430.037 177.618 430.033 177.625 430.028 177.629C430.032 177.625 430.037 177.618 430.041 177.614ZM430.009 177.65C430.004 177.657 429.999 177.66 429.994 177.667C429.999 177.66 430.004 177.653 430.009 177.65ZM429.977 177.685C429.968 177.695 429.959 177.706 429.95 177.713C429.959 177.706 429.968 177.695 429.977 177.685ZM429.933 177.734C429.928 177.738 429.921 177.745 429.916 177.752C429.922 177.745 429.927 177.741 429.933 177.734ZM429.901 177.769C429.895 177.776 429.89 177.78 429.884 177.787C429.889 177.783 429.896 177.776 429.901 177.769ZM429.865 177.812C429.857 177.819 429.85 177.826 429.842 177.836C429.85 177.826 429.857 177.819 429.865 177.812ZM429.824 177.854C429.819 177.861 429.813 177.868 429.808 177.875C429.813 177.868 429.819 177.861 429.824 177.854ZM429.792 177.893C429.787 177.896 429.781 177.903 429.776 177.91C429.781 177.903 429.787 177.896 429.792 177.893ZM429.753 177.935C429.746 177.945 429.739 177.952 429.732 177.959C429.739 177.952 429.746 177.942 429.753 177.935ZM429.717 177.977C429.711 177.984 429.706 177.991 429.699 177.998C429.706 177.991 429.711 177.984 429.717 177.977ZM429.687 178.012C429.675 178.023 429.664 178.037 429.652 178.051C429.664 178.037 429.676 178.023 429.687 178.012ZM429.642 178.062C429.636 178.069 429.63 178.076 429.625 178.083C429.63 178.076 429.636 178.069 429.642 178.062ZM429.61 178.1C429.605 178.107 429.598 178.114 429.593 178.118C429.599 178.114 429.604 178.107 429.61 178.1ZM429.578 178.135C429.569 178.146 429.559 178.157 429.55 178.171C429.559 178.157 429.569 178.146 429.578 178.135ZM429.536 178.185C429.53 178.192 429.525 178.199 429.519 178.206C429.524 178.199 429.53 178.192 429.536 178.185ZM429.503 178.223C429.498 178.23 429.493 178.234 429.488 178.241C429.493 178.234 429.498 178.23 429.503 178.223ZM429.468 178.266C429.46 178.273 429.454 178.28 429.446 178.29C429.453 178.283 429.461 178.273 429.468 178.266ZM429.429 178.311C429.424 178.315 429.42 178.322 429.415 178.329C429.42 178.322 429.425 178.315 429.429 178.311ZM429.398 178.347C429.393 178.354 429.388 178.361 429.383 178.364C429.388 178.361 429.393 178.354 429.398 178.347ZM429.356 178.396C429.351 178.403 429.346 178.41 429.342 178.414C429.346 178.41 429.351 178.403 429.356 178.396ZM429.325 178.435C429.32 178.442 429.316 178.445 429.311 178.452C429.315 178.445 429.32 178.442 429.325 178.435ZM429.29 178.477C429.287 178.48 429.282 178.487 429.278 178.491C429.282 178.484 429.286 178.48 429.29 178.477ZM429.251 178.523C429.247 178.526 429.243 178.533 429.239 178.537C429.243 178.533 429.247 178.526 429.251 178.523ZM429.22 178.561C429.216 178.565 429.212 178.572 429.208 178.575C429.212 178.572 429.216 178.565 429.22 178.561ZM429.182 178.607C429.179 178.611 429.174 178.618 429.171 178.621C429.174 178.618 429.179 178.611 429.182 178.607ZM429.148 178.649C429.144 178.653 429.141 178.656 429.137 178.663C429.141 178.656 429.144 178.653 429.148 178.649ZM429.116 178.688C429.113 178.692 429.109 178.695 429.106 178.699C429.11 178.695 429.112 178.692 429.116 178.688ZM429.076 178.737C429.074 178.741 429.072 178.741 429.07 178.744C429.072 178.741 429.074 178.741 429.076 178.737ZM429.044 178.776C429.042 178.78 429.039 178.783 429.037 178.787C429.039 178.783 429.042 178.78 429.044 178.776ZM428.974 178.864C428.972 178.868 428.971 178.868 428.97 178.871C428.971 178.868 428.972 178.868 428.974 178.864ZM428.941 178.906C428.939 178.906 428.939 178.91 428.937 178.91C428.938 178.91 428.94 178.906 428.941 178.906ZM428.871 178.994C428.871 178.994 428.871 178.994 428.871 178.994H428.871ZM468.281 179.191C468.288 179.202 468.296 179.213 468.303 179.22C468.296 179.209 468.288 179.202 468.281 179.191ZM468.31 179.23C468.319 179.241 468.327 179.251 468.335 179.262C468.326 179.251 468.319 179.241 468.31 179.23ZM468.356 179.29C468.358 179.294 468.361 179.297 468.364 179.301C468.361 179.297 468.358 179.294 468.356 179.29ZM468.389 179.332C468.39 179.336 468.392 179.336 468.393 179.336C468.391 179.336 468.391 179.336 468.389 179.332Z" fill="#2C4B70"/>
<path d="M448.502 169.462C454.614 169.462 460.739 171.694 465.555 176.196C466.557 177.136 467.466 178.135 468.279 179.188C468.279 179.191 468.28 179.191 468.281 179.191C468.288 179.202 468.296 179.209 468.303 179.22C468.305 179.223 468.308 179.227 468.31 179.23C468.319 179.241 468.326 179.251 468.335 179.262C468.341 179.269 468.349 179.279 468.355 179.29C468.358 179.294 468.361 179.297 468.364 179.301C468.373 179.311 468.381 179.322 468.389 179.332C468.391 179.336 468.391 179.336 468.393 179.336C473.074 185.492 474.533 193.37 472.694 200.604C471.43 196.735 469.203 193.12 466.02 190.142C461.204 185.637 455.08 183.408 448.968 183.408C442.298 183.408 435.643 186.062 430.727 191.318C427.75 194.503 425.769 198.259 424.766 202.205C422.241 194.468 423.573 185.714 428.871 178.994C428.871 178.994 428.87 178.994 428.871 178.994C428.893 178.966 428.915 178.938 428.937 178.91C428.938 178.91 428.939 178.906 428.941 178.906C428.95 178.892 428.96 178.882 428.969 178.871C428.971 178.868 428.972 178.868 428.974 178.864C428.995 178.836 429.015 178.811 429.037 178.787C429.039 178.783 429.042 178.78 429.044 178.776C429.053 178.766 429.062 178.755 429.07 178.744C429.072 178.741 429.074 178.741 429.076 178.737C429.086 178.723 429.096 178.713 429.106 178.699C429.109 178.695 429.113 178.692 429.116 178.688C429.122 178.681 429.13 178.67 429.137 178.663C429.14 178.656 429.144 178.653 429.148 178.649C429.156 178.639 429.163 178.632 429.171 178.621C429.174 178.618 429.178 178.611 429.182 178.607C429.191 178.597 429.199 178.586 429.208 178.575C429.212 178.572 429.216 178.565 429.22 178.561C429.226 178.554 429.233 178.544 429.239 178.537C429.243 178.533 429.247 178.526 429.251 178.523C429.26 178.512 429.269 178.502 429.278 178.491C429.282 178.487 429.287 178.48 429.29 178.477C429.297 178.466 429.304 178.459 429.311 178.452C429.315 178.445 429.32 178.442 429.325 178.435C429.33 178.428 429.336 178.421 429.342 178.414C429.346 178.41 429.351 178.403 429.356 178.396C429.364 178.389 429.374 178.375 429.383 178.364C429.388 178.361 429.392 178.354 429.397 178.347C429.403 178.34 429.409 178.336 429.415 178.329C429.42 178.322 429.424 178.315 429.429 178.311C429.435 178.304 429.44 178.297 429.446 178.29C429.454 178.28 429.46 178.273 429.467 178.266C429.474 178.259 429.481 178.248 429.488 178.241C429.493 178.234 429.498 178.23 429.503 178.223C429.509 178.216 429.513 178.213 429.518 178.206C429.524 178.199 429.529 178.192 429.535 178.185C429.54 178.181 429.545 178.174 429.549 178.171C429.559 178.157 429.568 178.146 429.578 178.135C429.583 178.132 429.588 178.125 429.593 178.118C429.598 178.114 429.604 178.107 429.61 178.1C429.615 178.093 429.62 178.09 429.624 178.083C429.63 178.076 429.636 178.069 429.642 178.062C429.645 178.058 429.648 178.054 429.652 178.051C429.664 178.037 429.675 178.023 429.687 178.012C429.691 178.005 429.695 178.002 429.699 177.998C429.705 177.991 429.711 177.984 429.717 177.977C429.722 177.97 429.727 177.966 429.731 177.959C429.739 177.952 429.746 177.945 429.753 177.935C429.761 177.928 429.768 177.917 429.776 177.91C429.781 177.903 429.787 177.896 429.792 177.893C429.797 177.886 429.802 177.878 429.807 177.875C429.813 177.868 429.818 177.861 429.824 177.854C429.83 177.847 429.836 177.843 429.842 177.836C429.849 177.826 429.857 177.819 429.865 177.812C429.871 177.801 429.877 177.794 429.884 177.787C429.89 177.78 429.895 177.776 429.901 177.769C429.906 177.762 429.911 177.759 429.916 177.752C429.921 177.745 429.928 177.738 429.932 177.734C429.938 177.727 429.944 177.72 429.95 177.713C429.959 177.706 429.968 177.695 429.976 177.685C429.982 177.678 429.988 177.671 429.994 177.667C429.999 177.66 430.004 177.657 430.009 177.65C430.016 177.643 430.022 177.636 430.028 177.629C430.032 177.625 430.037 177.618 430.041 177.614C430.051 177.604 430.062 177.59 430.072 177.579C430.076 177.576 430.08 177.572 430.084 177.565C430.091 177.558 430.098 177.551 430.105 177.544C430.109 177.541 430.114 177.534 430.119 177.53C430.126 177.519 430.134 177.512 430.141 177.505C430.145 177.502 430.148 177.498 430.151 177.495C430.162 177.484 430.173 177.47 430.183 177.46C430.187 177.456 430.191 177.453 430.195 177.446C430.202 177.438 430.211 177.431 430.218 177.421C430.222 177.417 430.225 177.414 430.229 177.41C430.24 177.4 430.251 177.386 430.262 177.375C430.416 177.21 430.571 177.048 430.728 176.889C433.927 173.647 437.807 171.458 441.927 170.339C444.075 169.754 446.287 169.462 448.502 169.462" fill="#84D6D5"/>
<path d="M450.717 200.956C451.367 200.452 451.926 199.875 452.391 199.245C453.936 197.157 455.958 195.45 458.386 194.532C459.324 194.176 460.219 193.648 461.026 192.948C464.329 190.086 464.985 185.112 462.535 181.49C459.682 177.273 453.913 176.4 449.951 179.469C449.302 179.973 448.743 180.55 448.277 181.18C446.733 183.268 444.711 184.975 442.282 185.893C441.345 186.249 440.45 186.773 439.642 187.474C436.34 190.339 435.684 195.313 438.133 198.935C440.987 203.152 446.756 204.025 450.717 200.956Z" fill="#FBC06F"/>
<path d="M486.515 175.844V175.847V175.844ZM486.527 175.925C486.528 175.929 486.527 175.925 486.528 175.929C486.528 175.929 486.527 175.929 486.527 175.925ZM486.533 175.964C486.533 175.964 486.534 175.968 486.534 175.971C486.534 175.968 486.533 175.964 486.533 175.964ZM486.546 176.045C486.546 176.045 486.546 176.049 486.547 176.053C486.546 176.049 486.546 176.045 486.546 176.045ZM486.552 176.084C486.552 176.088 486.552 176.088 486.553 176.091C486.552 176.088 486.552 176.088 486.552 176.084ZM486.559 176.127C486.559 176.13 486.559 176.13 486.56 176.134C486.559 176.13 486.559 176.13 486.559 176.127ZM486.565 176.166C486.565 176.169 486.566 176.173 486.567 176.176C486.566 176.173 486.565 176.169 486.565 176.166ZM486.572 176.205C486.572 176.208 486.572 176.212 486.573 176.212C486.572 176.212 486.572 176.208 486.572 176.205ZM486.579 176.247C486.58 176.254 486.58 176.254 486.58 176.258C486.58 176.254 486.579 176.251 486.579 176.247ZM486.585 176.286C486.586 176.29 486.586 176.293 486.587 176.297C486.586 176.293 486.586 176.29 486.585 176.286ZM486.593 176.332C486.593 176.336 486.594 176.336 486.594 176.339C486.594 176.336 486.593 176.336 486.593 176.332ZM486.599 176.367C486.6 176.375 486.601 176.378 486.602 176.382C486.601 176.378 486.6 176.375 486.599 176.367ZM486.607 176.41C486.607 176.413 486.608 176.413 486.608 176.417C486.608 176.417 486.607 176.413 486.607 176.41ZM486.615 176.456C486.615 176.456 486.616 176.459 486.616 176.463C486.616 176.459 486.615 176.456 486.615 176.456ZM486.621 176.491C486.622 176.495 486.623 176.498 486.624 176.502C486.623 176.498 486.622 176.495 486.621 176.491Z" fill="#C2D0A8"/>
<path d="M493.101 162.978C489.157 165.27 486.735 169.533 487.905 175.886C497.428 193.814 493.456 192.842 492.325 211.424C491.96 215.859 494.152 218.098 497.402 219.386C499.844 220.354 502.196 221.534 504.389 222.98C507.422 224.98 509.953 225.849 512.189 225.849C513.357 225.849 514.444 225.61 515.478 225.177C514.065 226.022 512.572 226.497 510.916 226.497C508.68 226.497 506.147 225.631 503.115 223.631C500.922 222.185 498.57 221.002 496.127 220.034C493.112 218.841 491.008 216.827 491.011 213.001C491.011 212.705 491.024 212.396 491.05 212.075C491.604 202.983 492.837 198.573 492.838 194.338C492.838 189.917 491.494 185.693 486.63 176.537C486.628 176.523 486.626 176.513 486.624 176.499C486.623 176.495 486.622 176.492 486.622 176.488C486.62 176.481 486.618 176.47 486.617 176.46C486.616 176.456 486.615 176.453 486.615 176.453C486.613 176.439 486.611 176.428 486.608 176.414C486.608 176.411 486.607 176.411 486.607 176.407C486.605 176.397 486.604 176.389 486.602 176.379C486.601 176.375 486.6 176.372 486.6 176.365C486.598 176.358 486.596 176.347 486.594 176.337C486.594 176.333 486.594 176.333 486.593 176.33C486.591 176.319 486.589 176.305 486.587 176.294C486.587 176.291 486.586 176.287 486.586 176.284C486.584 176.277 486.582 176.266 486.581 176.256C486.58 176.252 486.58 176.252 486.579 176.245C486.577 176.235 486.575 176.224 486.573 176.21C486.573 176.21 486.573 176.206 486.572 176.203C486.57 176.196 486.569 176.185 486.567 176.175C486.567 176.171 486.566 176.168 486.565 176.164C486.563 176.154 486.562 176.143 486.56 176.133C486.56 176.129 486.56 176.129 486.559 176.125C486.557 176.115 486.555 176.101 486.553 176.09C486.553 176.087 486.553 176.087 486.553 176.083C486.551 176.073 486.549 176.062 486.547 176.052C486.547 176.048 486.547 176.045 486.546 176.045C486.542 176.02 486.538 175.995 486.535 175.971C486.534 175.967 486.534 175.964 486.534 175.964C486.532 175.953 486.53 175.939 486.528 175.928C486.528 175.925 486.528 175.928 486.528 175.925C486.524 175.9 486.52 175.872 486.516 175.847V175.844C485.545 169.23 488.58 164.992 493.101 162.978" fill="#84D6D5"/>
<path d="M524.917 190.04C526.284 190.04 526.963 192.244 527.504 193.349C528.573 197.876 527.397 202.645 524.432 206.239C522.418 209.055 520.302 212.1 517.505 214.11C517.137 214.282 516.753 214.367 516.382 214.367C515.084 214.367 513.945 213.371 514.234 211.846C514.848 209.301 517.344 207.777 518.989 205.898C525.317 200.646 518.326 192.293 524.158 190.248C524.432 190.103 524.685 190.04 524.917 190.04Z" fill="#CAEDEB"/>
<path d="M522.662 183.686C522.835 183.686 523.019 183.718 523.211 183.788C524.19 184.144 524.879 184.855 524.723 185.738C524.428 186.597 523.893 186.911 523.269 186.911C522.902 186.911 522.503 186.801 522.104 186.633C520.513 185.953 521.199 183.686 522.662 183.686" fill="#CAEDEB"/>
<path d="M136.732 40.3555L143.636 42.7489L150.543 45.1464L148.928 55.7133C152.577 58.019 155.877 60.9264 158.673 64.3758L168.981 61.5317L172.17 68.1107L175.359 74.6861L166.747 81.0148C167.721 85.3483 167.962 89.7447 167.514 94.0356L176.811 99.312L176.67 99.7202C171.836 101.829 167.084 104.163 162.429 106.725C149.41 113.888 139.35 121.682 131.787 130.052C130.294 130.221 128.798 130.306 127.309 130.306C125.909 130.306 124.516 130.231 123.135 130.087L117.857 139.384L110.949 136.986L104.049 134.593L105.66 124.026C102.012 121.72 98.712 118.809 95.9119 115.36L85.6116 118.204L82.4227 111.628L79.23 105.05L87.845 98.7205C86.8709 94.3874 86.6265 89.9947 87.0783 85.7035L77.7781 80.427L80.1745 73.5209L82.5671 66.6148L93.1341 68.2337C95.4415 64.5836 98.3527 61.2853 101.801 58.4871L98.9528 48.1805L105.534 44.9912L112.109 41.8022L118.439 50.4191C121.376 49.7576 124.342 49.4335 127.283 49.4335C128.68 49.4335 130.076 49.5076 131.457 49.6517L136.732 40.3555V40.3555ZM127.276 117.292C135.698 117.292 144.013 113.42 149.388 106.113C158.358 93.9122 155.74 76.7488 143.536 67.7763C138.643 64.1788 132.954 62.4469 127.317 62.4469C118.887 62.4469 110.575 66.3155 105.201 73.6264C96.2305 85.8268 98.8528 102.99 111.053 111.963C115.946 115.56 121.635 117.292 127.276 117.292Z" fill="#FBC58F"/>
<path d="M176.669 99.7205L174.416 106.215L172.019 113.121L161.452 111.505C159.15 115.152 156.239 118.454 152.789 121.252L155.633 131.559L149.058 134.744L142.482 137.934L136.15 129.32C134.7 129.648 133.242 129.89 131.785 130.052C139.35 121.682 149.41 113.888 162.43 106.725C167.084 104.163 171.836 101.829 176.669 99.7205" fill="#FBCB99"/>
<path d="M559.779 428.383L561.337 430.322L562.895 432.265L560.516 435.018C561.151 436.345 561.577 437.781 561.759 439.284L565.247 440.33L564.976 442.801L564.705 445.275L561.074 445.543C560.572 446.968 559.846 448.278 558.939 449.436L560.666 452.643L558.725 454.198L556.785 455.758L554.029 453.378C552.704 454.012 551.267 454.438 549.766 454.621L548.721 458.109L546.247 457.838L543.772 457.567L543.506 453.938C542.569 453.607 541.682 453.181 540.855 452.667C541.752 451.488 542.641 450.288 543.509 449.091C544.897 449.872 546.477 450.295 548.096 450.295C549.238 450.295 550.399 450.084 551.525 449.64C556.321 447.743 558.673 442.318 556.777 437.524C556.119 435.856 555.034 434.486 553.698 433.487C554.449 432.198 555.179 430.914 555.897 429.611C556.128 429.77 556.354 429.935 556.574 430.108L559.779 428.383Z" fill="#FAB87B"/>
<path d="M547.466 423.803L549.94 424.074L552.414 424.342L552.681 427.974C553.835 428.383 554.915 428.935 555.897 429.611C555.179 430.914 554.449 432.198 553.698 433.487C552.092 432.283 550.121 431.614 548.09 431.614C546.949 431.614 545.787 431.825 544.661 432.272C539.865 434.166 537.514 439.59 539.409 444.388C540.229 446.461 541.707 448.077 543.509 449.091C542.641 450.288 541.752 451.488 540.855 452.667C540.424 452.403 540.009 452.111 539.612 451.801L536.408 453.53L534.85 451.587L533.291 449.647L535.67 446.891C535.035 445.567 534.61 444.128 534.427 442.628L530.94 441.583L531.211 439.108L531.481 436.634L535.112 436.37C535.615 434.94 536.341 433.631 537.247 432.473L535.521 429.27L537.461 427.71L539.402 426.155L542.157 428.531C543.483 427.897 544.92 427.471 546.421 427.288L547.466 423.803" fill="#FABF85"/>
<path d="M219.302 47.9622L222.449 48.3036L225.596 48.6486L225.938 53.2668C227.75 53.9039 229.415 54.8297 230.887 55.9807L234.963 53.7842L236.945 56.2553L238.926 58.7228L235.903 62.2252C236.709 63.9113 237.251 65.7381 237.483 67.6495L241.918 68.9765L241.573 72.1234L241.229 75.2703L236.61 75.6082C235.973 77.4245 235.047 79.0895 233.896 80.5608L236.093 84.637L234.981 85.5276C232.742 85.6789 230.503 85.8725 228.271 86.1084L227.652 85.5733C226.973 85.9007 226.269 86.1823 225.547 86.4181C221.816 86.8722 218.099 87.4425 214.403 88.1359L214.269 86.2844C212.453 85.6437 210.788 84.7215 209.316 83.5704L205.24 85.7634L203.258 83.2959L201.277 80.8284L204.304 77.326C203.494 75.6399 202.956 73.813 202.723 71.9017L198.288 70.5746L198.629 67.4277L198.974 64.2809L203.593 63.9429C204.233 62.1266 205.156 60.4617 206.31 58.9903L204.114 54.9142L206.581 52.9324L209.049 50.9506L212.555 53.9778C214.237 53.1682 216.068 52.6262 217.975 52.3938L219.302 47.9622V47.9622ZM220.105 81.652C221.559 81.652 223.034 81.3845 224.466 80.8178C230.566 78.4101 233.555 71.5109 231.147 65.4108C229.303 60.7433 224.829 57.8956 220.098 57.8956C218.648 57.8956 217.169 58.1666 215.737 58.7298C209.637 61.141 206.648 68.0402 209.059 74.1404C210.904 78.8079 215.374 81.652 220.105 81.652" fill="#FAB87B"/>
<path d="M234.981 85.5276L233.626 86.6188L231.154 88.6005L228.272 86.1084C230.503 85.8725 232.742 85.6789 234.981 85.5276ZM225.547 86.4181C224.481 86.7666 223.368 87.0165 222.228 87.1538L220.901 91.589L217.754 91.2476L214.607 90.9026L214.403 88.1359C218.099 87.4425 221.816 86.8722 225.547 86.4181" fill="#FABF85"/>
</svg>
