<svg width="637" height="461" viewBox="0 0 637 461" fill="none" xmlns="http://www.w3.org/2000/svg">
<path d="M633.132 310.083C632.333 314.946 631.379 319.725 630.288 324.412C629.268 328.767 628.121 333.041 626.847 337.221C624.69 344.308 622.166 351.134 619.275 357.644C604.958 389.922 581.62 414.489 549.16 424.979C487.909 444.77 379.49 460.902 268.424 460.902C132.543 460.902 -7.31551 436.756 -69.6322 365.636C-72.7392 362.088 -75.6534 358.424 -78.365 354.644L-78.3712 354.638C-80.6527 351.453 -82.7914 348.18 -84.7848 344.821C-86.1266 342.559 -87.4013 340.253 -88.6038 337.909C-88.7207 337.68 -88.8379 337.45 -88.9551 337.221C-89.9107 335.331 -90.8218 333.416 -91.6856 331.475C-94.0334 326.202 -96.2007 320.3 -98.0928 313.901C-98.1243 313.801 -98.1531 313.696 -98.1846 313.591C-103.557 295.301 -106.687 272.99 -105.434 249.698C-105.025 242.122 -104.155 234.439 -102.744 226.756C-92.521 171.038 -54.0016 115.378 40.9428 99.7468C207.005 72.4115 222.918 -25.694 438.992 7.49745C518.978 19.7864 574.96 73.2964 606.382 138.349C625.583 178.09 635.623 222.138 636.375 263.724C636.662 279.668 635.585 295.244 633.132 310.083" fill="#EBF3FA"/>
<path d="M517.22 337.909L89.3597 336.588L-87.6896 336.043C-87.6896 336.043 -92.7486 327.654 -98.0927 313.9C-103.522 295.551 -106.693 273.12 -105.434 249.697C-105.025 242.121 -104.155 234.438 -102.744 226.756C-96.6817 230.064 -90.5338 231.65 -86.3006 228.351C-79.5293 223.073 -60.1364 207.648 -45.452 195.956L-45.4459 195.95C-35.346 187.906 -27.4741 181.626 -27.4741 181.626C-27.4741 181.626 -19.222 173.667 -13.8241 175.897C-11.3273 176.928 -8.89426 179.39 -6.75523 181.645L-6.73638 181.664C-4.25882 184.271 -2.17073 186.59 -0.809816 186.079C0.423948 185.616 9.47944 176.335 20.0062 166.023C31.2039 155.055 44.0626 142.919 50.9321 138.983C50.9321 138.983 57.3235 132.417 64.2625 139.937C67.8186 143.788 73.2831 153.631 79.3929 165.465C93.4826 192.765 110.986 230.676 116.299 230.169C123.918 229.446 135.77 212.472 142.966 210.776C150.16 209.079 182.924 268.454 196.895 271C203.367 272.18 212.567 268.165 222.724 264.15C234.488 259.501 247.535 254.852 259.119 258.27C280.711 264.634 315.634 300.282 348.018 293.915C360.276 291.504 385.16 296.95 411.949 302.396C441.79 308.463 474.006 314.53 493.796 309.74C504.485 315.151 511.905 313.274 516.482 311.401C524.283 308.204 523.822 305.007 517.22 337.909" fill="#D9E9FC"/>
<path d="M79.3912 165.466C76.041 166.548 71.3788 167.129 70.7989 162.617C69.9524 156.04 51.1169 168.77 41.3818 171.527C31.6467 174.287 37.1492 163.041 36.9375 159.861C36.8085 157.914 27.3441 162.312 20.007 166.025C31.2023 155.057 44.0611 142.918 50.9329 138.984C50.9329 138.984 57.3242 132.418 64.2635 139.937C67.8169 143.787 73.2835 153.632 79.3912 165.466" fill="#F8FBFF"/>
<path d="M425.9 46.6631C425.9 41.5418 430.037 37.3946 435.146 37.3946C440.251 37.3946 444.391 41.5418 444.391 46.6631C444.391 51.7809 440.251 55.9316 435.146 55.9316C430.037 55.9316 425.9 51.7809 425.9 46.6631Z" fill="#F8FBFF"/>
<path d="M238.307 66.4725C238.307 66.4725 246.822 54.4015 267.193 55.742C267.193 55.742 296.766 35.6214 328.304 53.0577C328.304 53.0577 361.829 48.7383 386.655 56.8011C403.206 62.1763 408.673 67.813 408.673 67.813L238.307 66.4725" fill="#F8FCFF"/>
<path d="M391.778 100.318C391.778 100.318 398.085 89.2998 413.176 90.5263C413.176 90.5263 435.078 72.1574 458.434 88.0773C458.434 88.0773 483.264 84.1312 501.651 91.4899C513.913 96.3957 517.961 101.544 517.961 101.544L391.778 100.318" fill="#F8FCFF"/>
<path d="M626.846 337.221C613.997 379.435 588.165 412.373 549.16 424.979C544.942 426.34 540.506 427.684 535.861 429.007C472.983 446.914 371.85 460.902 268.423 460.902C168.492 460.902 66.413 447.845 -5.39527 412.643C-43.2376 394.094 -72.6729 369.397 -88.9552 337.221H626.846Z" fill="#B3DDAA"/>
<path d="M433.586 337.221H102.75L-5.39487 412.642C66.4139 447.845 168.493 460.902 268.424 460.902C371.85 460.902 472.981 446.914 535.864 429.007L433.586 337.221Z" fill="#ADC8FE"/>
<path d="M90.0587 337.909H-88.6039C-88.7208 337.68 -88.8379 337.45 -88.9551 337.221C-89.9107 335.331 -90.8218 333.419 -91.6856 331.475C-94.0334 326.202 -96.2007 320.3 -98.093 313.901C-103.522 295.552 -106.693 273.12 -105.434 249.697C-98.308 252.846 -91.559 257.176 -86.4963 262.83C-71.3089 279.789 -54.8556 244.6 -5.39496 257.568C44.066 270.531 39.4337 312.481 60.3165 315.753C77.8455 318.504 86.901 332.247 89.3595 336.589C89.8311 337.42 90.0587 337.909 90.0587 337.909" fill="#9BCC8F"/>
<path d="M61.9777 352.446C60.9589 353.828 -49.7299 354.485 -78.3714 354.638C-80.6526 351.452 -82.7914 348.18 -84.7847 344.821C-86.1263 342.559 -87.4013 340.253 -88.6039 337.909C-88.7208 337.68 -88.8379 337.45 -88.9551 337.221C-89.9107 335.331 -90.8218 333.419 -91.6856 331.475C-94.0334 326.202 -96.2007 320.3 -98.093 313.901C-98.1245 313.798 -98.1531 313.696 -98.1846 313.59C-87.1896 310.799 -65.386 307.918 -49.5591 322.843C-27.553 343.587 7.89102 323.723 25.3977 329.375C42.9046 335.023 37.4687 343.882 48.8467 345.785C60.2247 347.689 63.1421 350.861 61.9777 352.446" fill="#8EBF83"/>
<path d="M626.846 337.221H447.917C447.917 337.221 454.56 312.71 493.794 309.74C533.028 306.77 540.621 272.72 584.288 276.738C604.886 278.636 622.253 271.268 636.371 263.724C636.842 289.739 633.673 314.789 626.846 337.221" fill="#9BCC8F"/>
<path d="M449.819 217.621H485.864C489.308 217.621 492.099 214.823 492.099 211.371V204.921C492.099 198.619 487.004 193.511 480.716 193.511H455.695C452.45 193.511 449.819 196.148 449.819 199.401V217.621Z" fill="#FF9F57"/>
<path d="M449.818 207.239H433.359V217.621H449.818V207.239Z" fill="#FF9F57"/>
<path d="M88.0777 199.143V217.622H52.3164C48.7146 217.622 45.7956 214.946 45.7956 211.646V204.419C45.7956 198.395 51.1262 193.513 57.7001 193.513H81.9296C85.3246 193.513 88.0777 196.032 88.0777 199.143Z" fill="#FF9F57"/>
<path d="M104.533 207.237V217.622H52.3164C48.7146 217.622 45.7956 214.946 45.7956 211.646V207.237H104.533" fill="#FF9F57"/>
<path d="M86.1978 227.092L96.1986 211.646H441.028L444.734 227.092L345.987 285.504H159.953L86.1978 227.092Z" fill="#ED7D2B"/>
<path d="M147.17 117.558C179.884 114.681 286.807 106.912 389.195 117.565C394.829 118.149 400.046 121.821 403.645 127.704C413.623 144.026 433.686 179.065 441.026 208.06C442.341 213.252 439.506 218.653 435.444 218.653H101.432C97.3754 218.653 94.6274 213.077 96.1981 208.028C101.273 191.716 112.571 159.27 130.113 129.607C134.297 122.535 140.48 118.145 147.17 117.558Z" fill="#F99746"/>
<path d="M427.105 218.653V218.656C427.061 218.682 427.016 218.709 426.968 218.734C426.325 219.096 425.613 219.295 424.856 219.295H112.035C111.968 219.295 111.9 219.295 111.833 219.29C110.355 219.217 109.073 218.35 108.165 217.041C107.82 216.547 107.532 215.991 107.303 215.388C106.622 213.601 106.484 211.425 107.133 209.346C111.884 194.066 122.466 163.681 138.893 135.899C142.812 129.276 148.603 125.167 154.87 124.615C185.509 121.923 285.651 114.645 381.539 124.619C386.821 125.167 391.701 128.604 395.075 134.12C404.419 149.403 423.209 182.219 430.08 209.373C431.05 213.196 429.616 217.143 427.105 218.653" fill="#C2D9FF"/>
<path d="M142.322 131.246C145.869 127.371 150.24 125.023 154.87 124.615C185.507 121.922 285.648 114.649 381.54 124.621C386.818 125.17 390.045 127.381 392.468 130.597C392.869 131.127 142.322 131.246 142.322 131.246" fill="#F9DDBF"/>
<path d="M60.2696 285.505C60.2696 285.505 53.7824 250.2 86.1972 227.093C86.1972 227.093 174.515 218.631 197.064 285.505H60.2696Z" fill="#FFA969"/>
<path d="M470.659 285.505C470.659 285.505 477.146 250.2 444.733 227.093C444.733 227.093 356.416 218.632 333.862 285.505H470.659" fill="#FFA969"/>
<path d="M122.986 403.206H86.0808C80.4345 403.206 75.8574 398.619 75.8574 392.96V343.69C75.8574 338.028 80.4345 333.441 86.0808 333.441H122.986C128.632 333.441 133.209 338.028 133.209 343.69V392.96C133.209 398.619 128.632 403.206 122.986 403.206Z" fill="#233862"/>
<path d="M451.443 403.206H414.54C408.89 403.206 404.316 398.618 404.316 392.959V343.689C404.316 338.027 408.89 333.44 414.54 333.44H451.443C457.09 333.44 461.667 338.027 461.667 343.689V392.959C461.667 398.618 457.09 403.206 451.443 403.206Z" fill="#233862"/>
<path d="M471.189 285.505V366.208C471.189 374.583 463.781 381.374 454.642 381.374H359.73C356.35 381.374 353.247 380.296 350.808 378.493C349.271 377.359 348 375.939 347.078 374.321C345.022 370.684 341.016 368.325 336.546 368.325H192.762C186.84 368.325 182.515 371.076 179.285 375.625C177.098 378.706 174.841 381.552 169.568 381.374H75.8378C67.2403 381.374 60.2686 374.985 60.2686 367.107V285.505H471.189Z" fill="#FFA969"/>
<path d="M459.182 249.581V274.238C459.182 277.607 456.202 280.337 452.526 280.337H362.956C359.904 280.337 358.077 277.232 359.752 274.896L368.788 262.298C375.398 253.078 386.442 247.335 398.468 246.86L453.595 244.678C456.643 244.559 459.182 246.79 459.182 249.581" fill="#F9DDBF"/>
<path d="M177.58 280.337H88.0088C84.3318 280.337 81.3533 277.607 81.3533 274.238V249.581C81.3533 246.79 83.8933 244.559 86.9376 244.678L91.551 244.865L122.624 246.088L128.017 246.304L142.066 246.857C151 247.211 159.39 250.472 165.824 255.902C168.054 257.784 170.05 259.925 171.749 262.298L180.783 274.897C182.458 277.232 180.632 280.337 177.58 280.337" fill="#F9DDBF"/>
<path d="M123.971 343.085H79.185C77.3466 343.085 75.8574 344.451 75.8574 346.136V358.464C75.8574 359.86 77.1273 360.975 78.6496 360.916L80.9562 360.824L96.4927 360.211L99.1892 360.103L106.215 359.825C110.681 359.65 114.876 358.019 118.093 355.305C119.208 354.363 120.205 353.294 121.056 352.106L125.572 345.807C126.41 344.64 125.497 343.085 123.971 343.085" fill="#F9DDBF"/>
<path d="M409.891 343.085H454.678C456.516 343.085 458.005 344.451 458.005 346.136V358.464C458.005 359.86 456.736 360.975 455.212 360.916L452.905 360.824L437.37 360.211L434.674 360.103L427.649 359.825C423.184 359.649 418.988 358.019 415.77 355.305C414.656 354.363 413.657 353.294 412.807 352.106L408.291 345.807C407.454 344.64 408.366 343.085 409.891 343.085Z" fill="#F9DDBF"/>
<path d="M192.403 254.503H338.634C340.918 254.503 342.426 256.82 341.462 258.837L334.198 274.035C332.362 277.88 328.41 280.337 324.062 280.337H208.263C204.305 280.337 200.657 278.242 198.735 274.864L189.702 258.988C188.558 256.977 190.049 254.503 192.403 254.503" fill="#FFA969"/>
<path d="M331.265 337.74H207.084C204.664 337.74 202.701 335.774 202.701 333.347V317.163C202.701 314.736 204.664 312.77 207.084 312.77H331.265C333.687 312.77 335.648 314.736 335.648 317.163V333.347C335.648 335.774 333.687 337.74 331.265 337.74Z" fill="#F9DDBF"/>
<path d="M165.883 257.387C165.883 267.944 156.543 276.506 145.021 276.506C133.498 276.506 124.158 267.944 124.158 257.387C124.158 253.256 125.587 249.433 128.017 246.304L142.066 246.857C151 247.211 159.39 250.472 165.824 255.902C165.862 256.394 165.883 256.888 165.883 257.387" fill="#FFF3E9"/>
<path d="M122.931 248.952C122.931 257.055 115.765 263.621 106.926 263.621C98.0845 263.621 90.9183 257.055 90.9183 248.952C90.9183 247.532 91.1376 246.16 91.551 244.864L122.624 246.088C122.824 247.016 122.931 247.972 122.931 248.952Z" fill="#FFF3E9"/>
<path d="M374.733 257.387C374.733 267.944 384.071 276.506 395.594 276.506C407.116 276.506 416.457 267.944 416.457 257.387C416.457 253.256 415.027 249.433 412.599 246.304L398.548 246.857C389.615 247.211 381.224 250.472 374.79 255.902C374.753 256.394 374.733 256.888 374.733 257.387" fill="#FFF3E9"/>
<path d="M417.686 248.953C417.686 257.055 424.85 263.622 433.687 263.622C442.531 263.622 449.695 257.055 449.695 248.953C449.695 247.533 449.478 246.161 449.062 244.865L417.992 246.088C417.789 247.017 417.686 247.973 417.686 248.953Z" fill="#FFF3E9"/>
<path d="M350.807 378.493C349.269 377.359 347.999 375.939 347.079 374.321C345.023 370.685 341.018 368.325 336.545 368.325H192.762C186.84 368.325 182.514 371.076 179.284 375.626C179.284 375.626 182.502 352.057 198.944 352.003C215.387 351.949 333.867 352.003 333.867 352.003C333.867 352.003 348.85 352.457 350.807 378.493" fill="#233862"/>
<path d="M360.288 162.644H339.873C337.551 162.644 335.648 160.739 335.648 158.409V149.941C335.648 147.614 337.551 145.706 339.873 145.706H360.288C362.613 145.706 364.513 147.614 364.513 149.941V158.409C364.513 160.739 362.613 162.644 360.288 162.644Z" fill="#ABCBF7"/>
<path d="M191.626 162.644H171.211C168.889 162.644 166.988 160.738 166.988 158.408V149.941C166.988 147.61 168.889 145.707 171.211 145.707H191.626C193.951 145.707 195.849 147.61 195.849 149.941V158.408C195.849 160.738 193.951 162.644 191.626 162.644Z" fill="#ABCBF7"/>
<path d="M218.875 219.295H129.604C128.834 217.648 128.403 215.812 128.403 213.882V178.253C128.403 178.188 128.403 178.123 128.406 178.058C128.511 171.073 134.242 165.387 141.237 165.387H207.242C209.766 165.387 212.128 166.127 214.118 167.404C216.558 168.967 218.444 171.333 219.394 174.122C219.114 174.945 218.915 175.804 218.807 176.689C218.745 177.202 218.713 177.724 218.713 178.253V213.882C218.713 215.324 218.953 216.714 219.394 218.013C219.244 218.453 219.071 218.88 218.875 219.295" fill="#ABCBF7"/>
<path d="M309.186 219.295H219.913C219.716 218.881 219.544 218.454 219.392 218.013C219.835 216.715 220.075 215.324 220.075 213.882V178.255C220.075 178.152 220.075 178.049 220.07 177.949C220.04 176.615 219.803 175.33 219.392 174.124C220.062 172.171 221.184 170.426 222.636 169.016C224.158 167.542 226.039 166.435 228.136 165.856C229.221 165.55 230.365 165.388 231.545 165.388H297.552C299.039 165.388 300.469 165.645 301.8 166.119H301.802C302.849 166.487 303.835 166.992 304.733 167.609H304.736C305.052 167.82 305.357 168.05 305.645 168.291C306.593 169.062 307.421 169.963 308.117 170.969V170.972C309.548 173.047 310.387 175.558 310.387 178.255V213.882C310.387 215.814 309.955 217.651 309.186 219.295" fill="#ABCBF7"/>
<path d="M219.394 218.013C218.952 216.714 218.713 215.324 218.713 213.882V178.253C218.713 177.724 218.745 177.202 218.807 176.689C218.915 175.804 219.114 174.945 219.394 174.122C219.804 175.329 220.041 176.614 220.07 177.948C220.076 178.048 220.076 178.15 220.076 178.253V213.882C220.076 215.324 219.836 216.714 219.394 218.013" fill="#A0C4F3"/>
<path d="M401.326 219.296H312.056C311.286 217.649 310.855 215.813 310.855 213.882V178.253C310.855 174.237 312.716 170.635 315.614 168.272C317.821 166.469 320.634 165.386 323.689 165.386H389.693C394.945 165.386 399.485 168.596 401.466 173.151C402.148 174.715 402.527 176.443 402.527 178.253V213.882C402.527 213.963 402.527 214.041 402.524 214.12C402.501 215.419 402.282 216.671 401.9 217.848V217.851C401.737 218.348 401.548 218.829 401.326 219.296" fill="#ABCBF7"/>
<path d="M202.074 189.952V217.2C202.074 217.397 202.071 217.594 202.063 217.789C202.049 218.296 202.012 218.799 201.958 219.295H124.274C124.198 218.607 124.158 217.908 124.158 217.2V189.952C124.158 185.451 125.753 181.306 128.405 178.058C131.611 174.127 136.362 171.508 141.705 171.154C142.117 171.125 142.532 171.111 142.952 171.111H183.282C185.45 171.111 187.535 171.484 189.477 172.17C196.792 174.751 202.074 181.763 202.074 189.952" fill="#73A3DD"/>
<path d="M411.777 189.953V217.201C411.777 217.909 411.737 218.608 411.661 219.297H333.979C333.903 218.608 333.863 217.909 333.863 217.201V189.953C333.863 179.59 342.318 171.113 352.655 171.113H392.985C396.034 171.113 398.913 171.849 401.463 173.151C407.57 176.272 411.777 182.644 411.777 189.953" fill="#73A3DD"/>
<path d="M383.356 167.229H358.359C353.79 167.229 350.053 163.482 350.053 158.902V151.799C350.053 147.219 353.79 143.472 358.359 143.472H383.356C387.928 143.472 391.666 147.219 391.666 151.799V158.902C391.666 163.482 387.928 167.229 383.356 167.229Z" fill="#73A3DD"/>
<path d="M175.628 167.231H150.631C146.06 167.231 142.322 163.481 142.322 158.902V151.801C142.322 147.219 146.06 143.471 150.631 143.471H175.628C180.198 143.471 183.937 147.219 183.937 151.801V158.902C183.937 163.481 180.198 167.231 175.628 167.231Z" fill="#73A3DD"/>
<path d="M264.982 219.295H251.162C250.626 217.889 250.317 217.027 250.317 217.027L250.879 194.034C250.879 194.034 256.829 197.596 258.827 202.156C259.245 203.106 259.719 204.308 260.233 205.679C261.655 209.484 263.377 214.6 264.982 219.295" fill="#FFB27D"/>
<path d="M221.837 204.251C221.837 204.251 221.159 204.994 220.076 206.19C219.672 206.635 219.214 207.143 218.713 207.699C217.528 209.014 216.109 210.601 214.641 212.262C212.545 214.638 210.35 217.171 208.594 219.295H198.017C198.912 217.403 199.873 215.526 200.859 213.698V213.696C201.26 212.95 201.664 212.216 202.074 211.492C203.625 208.728 205.201 206.128 206.647 203.83C208.198 201.365 209.601 199.251 210.671 197.66C211.487 196.451 217.676 192.611 217.676 192.611L218.713 195.511L220.076 199.324L221.837 204.251" fill="#FFB27D"/>
<path d="M260.969 203.652C260.969 203.652 260.742 204.51 260.233 205.679C259.415 207.559 257.866 210.24 255.35 211.474L255.205 219.295H214.988C214.996 218.045 214.972 216.795 214.918 215.542L214.902 215.181L214.781 212.316C214.732 212.297 214.686 212.281 214.641 212.262C209.022 210.07 207.215 205.928 206.647 203.83C206.431 203.044 206.394 202.545 206.394 202.545C209.028 198.1 214.522 192.633 217.525 190.994C217.875 190.802 218.274 190.63 218.713 190.47C219.13 190.319 219.586 190.184 220.076 190.063C222.287 189.509 225.18 189.239 228.352 189.163C232.411 189.069 236.933 189.293 241.086 189.649H241.089C242.517 189.774 243.898 189.914 245.204 190.06C252.121 190.837 255.781 195.052 255.781 195.052C255.781 195.052 258.057 196.81 260.969 203.652" fill="#B23F36"/>
<path d="M239.597 193.853C236.99 195.117 231.66 196.032 228.191 192.83C227.676 192.355 227.835 191.483 228.002 190.805C228.342 189.452 228.859 186.814 228.826 183.345C228.808 181.185 228.581 178.698 227.962 176.004L239.177 179.727C239.177 179.727 239.077 180.729 239.131 182.176C239.15 182.586 239.177 183.034 239.223 183.507C239.314 184.444 239.479 185.473 239.764 186.496C239.883 186.906 240.014 187.319 240.171 187.719C240.351 188.189 240.564 188.642 240.812 189.08C241.857 190.91 241.49 192.933 239.597 193.853" fill="#FFB27D"/>
<path d="M239.764 186.496C230.935 186.717 228.826 183.345 228.826 183.345L239.223 183.507C239.314 184.444 239.479 185.473 239.764 186.496Z" fill="#F4A671"/>
<path d="M242.528 183.977C242.528 183.977 231.226 188.923 225.71 180.162C219.758 170.704 223.429 162.571 227.356 161.453C235.18 159.22 240.287 161.551 242.188 164.558C244.087 167.566 248.773 181.304 242.528 183.977" fill="#FFB27D"/>
<path d="M237.038 179.414C237.038 179.414 237.72 180.556 240.723 179.39C240.723 179.39 243.244 178.409 242.735 177.078C242.735 177.078 239.936 176.908 237.038 179.414Z" fill="white"/>
<path d="M228.32 183.121C228.32 183.121 226.311 179.271 226.141 177.073C226.141 177.073 222.459 173.62 224.102 172.369C225.743 171.119 227.068 173.293 227.41 172.774C227.749 172.253 227.197 164.431 229.411 164.337C231.625 164.242 240.06 165.495 243.117 161.896C246.177 158.297 235.775 147.705 221.977 154.56C208.177 161.418 213.636 177.13 228.32 183.121" fill="#2C3A64"/>
<path d="M215.796 162.015C215.796 162.015 214.837 160.152 215.325 158.637C215.325 158.637 215.659 160.565 216.548 161.31C217.439 162.053 215.796 162.015 215.796 162.015Z" fill="#2C3A64"/>
<path d="M215.888 160.592C215.888 160.592 214.062 160.668 213.426 162.182C213.426 162.182 214.56 161.129 215.977 161.839L215.888 160.592" fill="#2C3A64"/>
<path d="M281.95 201.138L279.297 219.295H270.918C271.373 216.352 272.388 209.746 273.051 205.366C273.42 202.952 273.678 201.216 273.678 201.138H281.95Z" fill="#FFB27D"/>
<path d="M291.694 161.866C291.694 161.866 288.634 160.392 285.2 161.866C281.764 163.338 279.264 169.607 280.802 175.464C282.343 181.317 277.147 181.417 279.553 186.112C280.406 187.778 291.694 189.196 292.079 182.71C292.316 178.69 288.688 178.493 289.747 174.127C290.805 169.759 291.694 161.866 291.694 161.866Z" fill="#2C3A64"/>
<path d="M284.339 163.646C284.433 163.489 288.338 157.301 295.637 156.067C301.549 155.065 307.084 159.253 307.994 165.196C308.907 171.165 307.975 178.904 298.258 181.693L284.339 163.646Z" fill="#2C3A64"/>
<path d="M286.122 190.254L297.121 196.802L299.898 189.042C299.898 189.042 298.624 186.215 298.255 181.69C298.099 179.789 298.102 177.586 298.43 175.169L288.869 179.333C288.869 179.333 289.036 180.205 289.103 181.482C289.173 182.862 289.128 184.711 288.627 186.439C288.198 187.924 287.433 189.317 286.122 190.254" fill="#FFB27D"/>
<path d="M288.632 186.439C293.905 186.634 298.258 181.693 298.258 181.693L289.106 181.482C289.176 182.859 289.13 184.711 288.632 186.439" fill="#ED975D"/>
<path d="M286.262 183.334C286.262 183.334 296.591 186.785 300.746 178.642C305.231 169.853 301.358 162.995 297.819 162.325C290.762 160.986 286.458 163.441 285.025 166.235C283.592 169.03 280.56 181.482 286.262 183.334" fill="#FFB27D"/>
<path d="M290.727 178.885C290.727 178.885 290.218 179.943 287.484 179.158C287.484 179.158 285.192 178.499 285.532 177.286C285.532 177.286 287.98 176.914 290.727 178.885" fill="white"/>
<path d="M313.403 219.296H276.791C276.463 214.908 276.213 210.506 276.09 206.597C276.028 204.631 275.995 202.789 275.998 201.139C276.012 196.936 276.267 193.942 276.854 193.196C276.908 193.141 276.936 193.111 276.936 193.111C281.511 189.113 286.859 188.707 287.579 188.636C287.573 188.677 287.571 188.718 287.568 188.758V188.761C287.456 190.352 288.057 191.823 290.829 192.365C294.483 193.084 297.939 190.878 299.831 189.224L299.833 189.222C299.901 189.167 299.964 189.11 300.029 189.053C302.76 189.622 307.428 191.485 310.39 194.144C310.547 194.285 310.705 194.43 310.854 194.58C310.939 194.664 311.023 194.746 311.104 194.833C312.596 196.405 313.224 206.652 313.403 219.296" fill="#F9DDBF"/>
<path d="M293.499 163.292C293.499 163.292 292.521 173.004 301.713 176.446C305.368 177.815 307.27 162.979 299.634 160.017C291.996 157.055 284.465 160.573 283.563 165.752C282.663 170.93 283.35 172.01 283.35 172.01C283.35 172.01 286.924 162.158 293.499 163.292" fill="#2C3A64"/>
<path d="M304.91 161.946C304.91 161.946 307.967 160.29 311.402 161.946C314.836 163.606 317.337 170.663 315.798 177.257C314.261 183.85 319.453 183.961 317.051 189.251C316.197 191.126 304.91 192.719 304.524 185.419C304.285 180.893 307.915 180.67 306.857 175.752C305.797 170.837 304.91 161.946 304.91 161.946" fill="#2C3A64"/>
<path d="M276.935 193.111C276.935 193.111 272.359 197.963 271.917 204.578C271.917 204.578 274.998 207.137 277.813 206.608C280.63 206.079 276.935 193.111 276.935 193.111" fill="#F9DDBF"/>
<path d="M309.698 208.371C309.698 208.371 308.291 213.814 306.424 219.297H295.326C296.915 213.392 298.788 204.314 298.788 204.314C303.363 208.9 309.698 208.371 309.698 208.371Z" fill="#FFB27D"/>
<path d="M411.778 193.022C409.674 190.859 407.848 189.183 406.569 188.167C405.37 187.215 403.999 186.35 402.526 185.573C394.322 181.234 383.027 179.533 381.365 179.301C381.232 179.279 381.16 179.271 381.16 179.271C381.16 182.543 374.2 185.373 368.528 185C363.755 184.687 360.65 181.047 360.65 179.074L360.647 179.066L360.636 179.068C360.619 179.071 360.561 179.082 360.458 179.103C358.721 179.438 345.11 182.292 335.292 189.55C334.877 189.86 334.394 190.265 333.863 190.762C328.832 195.449 319.237 207.988 314.416 219.296H424.855C425.036 219.296 425.218 219.285 425.396 219.258C426.006 219.182 426.579 218.974 427.106 218.656V218.653C427.874 218.191 428.542 217.498 429.07 216.65C424.618 207.567 417.258 198.652 411.778 193.022" fill="#B23F36"/>
<path d="M367.737 186.406C359.902 185.472 360.46 179.098 360.46 179.098C360.46 179.098 361.281 177.183 361.805 174.012C362.144 171.947 362.354 169.344 362.125 166.39L364.592 165.984L379.696 166.286C379.718 166.302 379.743 166.321 379.762 166.336C379.868 166.427 379.915 166.506 379.906 166.569C379.075 171.994 380.47 176.875 381.367 179.293C381.577 184.212 375.57 187.336 367.737 186.406" fill="#FFB27D"/>
<path d="M379.773 166.288L379.764 166.338C379.467 167.816 375.624 173.122 367.679 174.049C366.526 174.187 364.029 174.184 361.805 174.012C362.145 171.948 362.355 169.342 362.126 166.391L364.595 165.984L379.695 166.288H379.773" fill="#E2915A"/>
<path d="M381.198 163.151C379.438 172.652 367.211 172.34 361.924 171.742C360.436 171.577 359.5 171.386 359.5 171.386C357.823 170.938 356.89 168.289 356.452 164.82C355.59 157.956 356.681 147.88 357.838 145.304C359.58 141.425 362.859 137.231 375.172 140.258C387.491 143.285 383.46 150.977 381.198 163.151Z" fill="#FFB27D"/>
<path d="M357.908 164.227C357.908 164.227 358.25 166.168 359.82 166.417C363.523 167.009 364.416 165.053 364.416 165.053C364.416 165.053 360.235 163.568 357.908 164.227" fill="white"/>
<path d="M381.464 135.338C381.496 135.312 381.525 135.283 381.544 135.251C381.714 134.936 382.201 135.007 382.201 135.007C381.509 134.692 380.426 134.891 380.426 134.891C380.452 134.875 380.407 134.824 380.311 134.753C380.17 133.806 379.215 133.128 379.215 133.128C379.538 133.597 379.676 134.066 379.734 134.406C377.609 133.285 373.552 129.44 365.871 133.057C362.384 134.699 358.994 135.717 356.356 136.337C352.937 137.137 351.376 141.162 353.389 144.047C354.411 145.512 355.699 146.89 357.125 147.873C361.692 149.312 367.903 146.768 370.892 149.194C373.882 151.622 371.037 155.622 374.453 157.048L374.472 157.058C375.34 157.418 376.347 157.096 376.834 156.29C377.667 154.909 378.824 153.627 380.035 154.408C382.547 156.027 381.307 161.035 380.702 162.069C379.772 163.66 379.904 166.57 379.904 166.57C379.904 166.57 386.374 162.853 388.245 158.481C392.847 147.703 389.562 139.257 381.464 135.338Z" fill="#233862"/>
<path d="M336.101 219.295H341.361C341.668 217.262 341.897 215.413 342.051 214.042C342.065 213.917 342.08 213.798 342.091 213.685C342.225 212.473 342.291 211.712 342.297 211.648L342.3 211.642C342.329 211.549 342.865 209.824 341.309 208.813C340.587 208.345 339.414 208.028 337.524 208.104C337.524 208.104 336.719 208.45 335.389 209.077C334.939 209.286 334.426 209.533 333.864 209.806C329.839 211.77 323.269 215.256 318.253 219.295H333.98H336.101" fill="#C65447"/>
<path d="M411.778 208.81C409.375 207.3 407.744 206.398 407.744 206.398H407.734C405.746 206.32 404.251 206.857 403.138 207.616V207.619C402.92 207.765 402.716 207.921 402.525 208.083C401.954 208.575 401.504 209.117 401.16 209.628V209.63C400.432 210.71 400.177 211.647 400.177 211.647C400.177 211.647 400.279 212.851 400.496 214.709C400.514 214.863 400.534 215.025 400.551 215.19C400.697 216.375 400.881 217.784 401.109 219.296H424.854C425.038 219.296 425.218 219.285 425.395 219.258C421.164 215.022 415.533 211.172 411.778 208.81Z" fill="#C65447"/>
<path d="M202.074 196.818C201.223 194.11 199.418 191.013 196.399 187.479C191.607 181.873 189.967 176.849 189.477 172.17C189.229 169.831 189.27 167.58 189.348 165.387C189.375 164.607 189.404 163.837 189.431 163.071C189.436 162.933 189.439 162.792 189.439 162.644C189.455 158.745 188.047 151.528 184.284 145.707C180.718 140.183 175.033 135.914 166.441 136.924C166.441 136.924 161.795 135.131 155.853 138.06C152.904 139.513 150.701 141.422 149.028 143.628C144.964 148.99 144.04 156.091 143.187 162.593C143.065 163.54 142.941 164.475 142.812 165.387C142.519 167.439 142.185 169.389 141.705 171.154C140.841 174.335 139.499 176.924 137.059 178.447C132.841 181.077 130.032 184.301 128.403 187.676C125.912 192.841 126.181 198.368 128.403 202.682C128.788 203.433 129.235 204.148 129.733 204.818C132.949 209.114 138.419 211.56 145.021 209.972C144.776 209.497 145.837 208.482 147.655 207.407C154.227 203.522 170.683 198.835 171.006 215.829C171.006 215.829 179 215.631 186.956 213.585C191.481 212.421 195.992 210.661 199.014 207.996C200.39 206.784 201.457 205.382 202.074 203.765C202.833 201.791 202.917 199.494 202.074 196.818" fill="#163560"/>
<path d="M187.586 219.295H147.248C147.383 215.197 147.523 211.133 147.655 207.407C147.994 197.733 148.28 190.308 148.28 190.308C149.026 190.076 150.523 189.868 151.342 189.687C153.925 189.112 156.061 187.292 156.952 184.795C158.021 181.787 158.875 177.348 158.854 171.781V171.778L159.662 171.937L173.223 174.629C173.223 174.629 173.217 174.713 173.207 174.87C173.204 174.905 173.201 174.943 173.198 174.986V175.002C173.196 175.026 173.193 175.053 173.193 175.08C173.182 175.213 173.174 175.372 173.163 175.558C173.158 175.618 173.155 175.68 173.15 175.744C173.147 175.796 173.145 175.85 173.142 175.906C173.139 175.96 173.134 176.017 173.131 176.077C173.118 176.311 173.104 176.568 173.088 176.846C173.085 176.903 173.083 176.957 173.08 177.016C173.066 177.289 173.05 177.58 173.037 177.886C173.031 177.991 173.026 178.096 173.023 178.207C173.021 178.245 173.021 178.282 173.018 178.32C173.013 178.428 173.01 178.539 173.005 178.65C172.999 178.79 172.994 178.933 172.988 179.079C172.978 179.371 172.967 179.67 172.956 179.973C172.951 180.164 172.945 180.359 172.94 180.553C172.929 180.945 172.921 181.342 172.916 181.738C172.913 181.801 172.913 181.863 172.913 181.922C172.908 182.26 172.905 182.6 172.905 182.937V183.037C172.889 186.539 175.178 189.628 178.534 190.597C180.198 191.08 181.656 191.494 181.734 191.518H181.736C181.736 191.518 185.273 201.637 186.956 213.585C187.217 215.453 187.435 217.368 187.586 219.295" fill="#FFB27D"/>
<path d="M173.223 174.63C173.223 174.63 172.913 178.906 172.905 182.938C165.315 182.724 161.305 175.782 159.662 171.938L173.223 174.63" fill="#E8945B"/>
<path d="M175.757 178.445C175.757 178.445 157.803 178.742 157.79 167.531C157.776 156.321 155.452 148.807 166.915 148.145C178.378 147.481 180.608 151.755 181.521 155.497C182.434 159.237 180.425 178.08 175.757 178.445" fill="#FFB27D"/>
<path d="M175.092 147.87C175.092 147.87 170.176 161.021 162.632 162.968C155.088 164.912 151.816 162.884 151.816 162.884C151.816 162.884 157.601 158.278 158.802 150.232C158.802 150.232 171.383 141.608 175.092 147.87" fill="#163560"/>
<path d="M173.874 148.936C173.874 148.936 177.518 150.302 179.019 152.967C180.487 155.576 181.736 159.026 181.445 163.26C181.445 163.26 185.149 154.32 180.987 149.263C176.573 143.901 173.874 148.936 173.874 148.936Z" fill="#163560"/>
<path d="M171.849 171.489C171.849 171.489 173.088 173.123 175.566 173.007C177.564 172.912 178.335 171.176 178.335 171.176C178.335 171.176 174.666 170.291 171.849 171.489" fill="#EBF3FA"/>
<path d="M172.248 171.789C172.248 171.789 172.56 173.112 175.838 172.907C175.838 172.907 178.59 172.737 178.507 171.284C178.507 171.284 175.838 170.253 172.248 171.789Z" fill="white"/>
<path d="M202.063 217.789C202.211 218.299 202.354 218.801 202.494 219.295H127.175C127.557 216.501 127.961 213.758 128.403 211.214C128.809 208.873 129.248 206.703 129.733 204.818C130.231 202.882 130.778 201.251 131.387 200.047C136.725 189.501 148.253 190.311 148.277 190.308H148.28C167.041 205.647 181.486 191.758 181.733 191.518H181.736V191.515C181.736 191.515 190.899 193.454 194.098 197.577C195.865 199.853 197.519 203.714 199.014 207.996C199.658 209.848 200.274 211.779 200.859 213.696V213.698C201.279 215.081 201.68 216.458 202.063 217.789" fill="#F9DDBF"/>
<path d="M403.224 207.729C403.224 207.729 403.195 207.688 403.138 207.618V207.615C403.059 207.504 402.917 207.318 402.729 207.086C402.709 207.059 402.686 207.035 402.666 207.008C402.623 206.954 402.577 206.894 402.527 206.838C402.372 206.646 402.193 206.435 402.001 206.211C399.119 202.769 395.639 199.839 391.726 197.582H391.723C386.104 194.347 379.596 192.495 372.666 192.495C361.511 192.495 351.454 197.29 344.44 204.931L344.437 204.934C344.136 205.261 343.839 205.598 343.548 205.938V205.941C343.393 206.117 343.244 206.295 343.099 206.473C342.471 207.229 341.876 208.009 341.307 208.814C340.031 210.628 338.908 212.556 337.953 214.581C337.235 216.101 336.617 217.675 336.102 219.295H342.821C343.472 217.624 344.259 216.023 345.167 214.503C346.01 213.091 346.959 211.751 348 210.49C353.88 203.382 362.757 198.845 372.666 198.845C382.515 198.845 391.339 203.328 397.216 210.364C398.366 211.738 399.404 213.212 400.313 214.767C400.398 214.908 400.478 215.048 400.554 215.189C401.043 216.053 401.492 216.938 401.899 217.848V217.851C402.114 218.326 402.315 218.807 402.504 219.295H409.226C407.888 215.078 405.839 211.176 403.224 207.729" fill="#142644"/>
<path d="M403.23 213.938C403.23 213.938 402.978 213.997 402.527 214.118C402.053 214.246 401.357 214.442 400.501 214.707C400.438 214.726 400.376 214.745 400.314 214.766C397.641 215.604 393.516 217.091 389.594 219.294H356.683C353.699 217.153 349.93 215.415 345.169 214.502C344.175 214.31 343.136 214.156 342.054 214.04C341.845 214.019 341.636 214 341.426 213.981H341.423C341.26 213.965 341.093 213.951 340.926 213.938L342.299 211.648L342.302 211.643L343.567 209.529C343.708 209.529 344.43 209.712 345.678 209.996C346.316 210.139 347.094 210.306 348.002 210.49C356.091 212.126 374.475 214.859 397.219 210.363C398.504 210.109 399.804 209.831 401.118 209.529L401.164 209.626V209.628L402.53 212.474L403.23 213.938" fill="#142644"/>
<path d="M407.742 206.399C407.742 206.399 406.332 204.565 404.298 202.502C401.744 199.912 398.21 196.96 395.247 196.813C393.54 196.728 388.332 198.362 388.909 200.224C389.572 202.341 394.542 203.223 398.342 203.444C400.165 203.55 403.224 207.731 403.224 207.731C403.224 207.731 405.046 206.397 407.742 206.399" fill="#FFB27D"/>
<path d="M338.286 204.605C339.191 204.414 342.042 205.668 342.683 206.156C345.082 207.985 348.015 210.205 342.686 213.367C339.973 214.977 336.736 214.844 335.734 213.867C334.776 212.935 334.879 205.324 338.286 204.605" fill="#FFB27D"/>
<path d="M339.13 204.694C339.13 204.694 342.705 204.504 344.021 204.271C345.341 204.037 344.045 205.611 343.503 205.97C342.967 206.33 341.19 206.931 341.19 206.931L339.13 204.694Z" fill="#FFB27D"/>
<path d="M275.058 162.644H254.642C252.318 162.644 250.416 160.738 250.416 158.408V149.941C250.416 147.61 252.318 145.707 254.642 145.707H275.058C277.379 145.707 279.281 147.61 279.281 149.941V158.408C279.281 160.738 277.379 162.644 275.058 162.644Z" fill="#ABCBF7"/>
<path d="M257.809 165.387H256.519V162.644H257.809V165.387Z" fill="#95BEEF"/>
<path d="M343.634 165.391H342.345V162.644H343.634V165.391Z" fill="#95BEEF"/>
<path d="M272.534 165.387H271.244V162.644H272.534V165.387Z" fill="#95BEEF"/>
<path d="M426.971 218.733C426.326 219.095 425.613 219.295 424.858 219.295H112.036C111.969 219.295 111.901 219.295 111.834 219.289C110.356 219.216 109.074 218.349 108.166 217.04C109.833 216.503 113.806 215.42 119.114 215.277C126.211 215.085 412.694 215.277 412.694 215.277C412.694 215.277 425.002 215.758 426.971 218.733Z" fill="#FFA969"/>
<path d="M285.424 140.137H240.607C239.339 140.137 238.304 139.097 238.304 137.826V130.271C238.304 128.999 239.339 127.963 240.607 127.963H285.424C286.693 127.963 287.727 128.999 287.727 130.271V137.826C287.727 139.097 286.693 140.137 285.424 140.137Z" fill="#2C3A64"/>
<path d="M263.651 127.963H262.38V119.525H263.651V127.963Z" fill="#2C3A64"/>
<path d="M470.956 294.113H60.2681V285.5H470.956V294.113Z" fill="#FFBB8D"/>
<path d="M267.247 396.826H256.21V374.937H267.247V396.826Z" fill="white"/>
<path d="M267.247 442.855H256.21V420.967H267.247V442.855Z" fill="white"/>
<path d="M633.132 310.083C616.605 307.899 588.906 302.277 582.998 288.75C574.452 269.191 598.184 259.771 597.71 237.118C597.235 214.465 569.705 207.43 580.149 175.501C586.532 155.975 598.246 144.398 606.382 138.349C625.583 178.089 635.623 222.138 636.375 263.724C636.662 279.668 635.585 295.244 633.132 310.083" fill="#82B378"/>
<path d="M630.287 324.412C629.271 328.767 628.12 333.041 626.847 337.221C624.689 344.308 622.167 351.133 619.277 357.643C597.943 360.546 532.736 361.391 542.166 354.349C542.166 354.349 553.609 342.191 571.168 340.509C586.695 339.024 608.146 319.155 630.287 324.412" fill="#82B378"/>
<path d="M1.78114 365.452C-0.573107 366.397 -46.3379 365.932 -69.632 365.635C-72.7391 362.088 -75.6533 358.424 -78.3649 354.644C-80.6494 351.455 -82.7914 348.183 -84.7847 344.821C-76.5014 344.548 -64.56 345.418 -52.9132 350.723C-32.0301 360.238 -15.8904 347.343 -7.8249 350.723C0.243521 354.104 4.94526 364.183 1.78114 365.452Z" fill="#82B378"/>
</svg>
