<svg width="1013" height="676" viewBox="0 0 1013 676" fill="none" xmlns="http://www.w3.org/2000/svg">
<g clip-path="url(#clip0_9_387)">
<path d="M79.8955 608.296C79.8955 608.296 -24.3272 378.049 180.295 378.049C288.411 378.049 243.872 315.449 317.376 243.001C390.88 170.554 647.941 112.672 702.653 252.571C757.365 392.47 622.15 498.688 752.81 480.469C909.822 458.571 972.284 608.296 972.284 608.296H79.8955Z" fill="#FBECDB"/>
<path d="M308.996 304.388V585.89C308.996 599.093 319.173 607.999 332.369 607.999H569.083C582.282 607.999 593.35 599.093 593.35 585.89V304.388C593.35 291.186 582.653 280.484 569.457 280.484H332.889C319.694 280.484 308.996 291.186 308.996 304.388Z" fill="#82B378"/>
<path d="M296.03 304.39V585.894C296.03 599.096 306.458 607.999 319.654 607.999L481.958 608.037C495.154 608.037 505.674 599.096 505.674 585.894V304.39C505.674 291.187 494.976 280.485 481.78 280.485H319.923C306.727 280.485 296.03 291.187 296.03 304.39Z" fill="#A8D29F"/>
<path d="M538.16 422.6V584.391C538.16 597.593 548.857 608.296 562.053 608.296H893.02C906.215 608.296 916.914 597.593 916.914 584.391V422.6C916.914 409.398 906.215 398.695 893.02 398.695H562.053C548.857 398.695 538.16 409.398 538.16 422.6Z" fill="#74ACBE"/>
<path d="M520.888 422.601V584.391C520.888 597.594 531.588 608.297 544.784 608.297H776.235C789.432 608.297 800.131 597.594 800.131 584.391V422.601C800.131 409.399 789.432 398.696 776.235 398.696H544.784C531.588 398.696 520.888 409.399 520.888 422.601Z" fill="#9ED9F0"/>
<path d="M284.071 396.999C284.071 396.999 299.818 396.865 303.607 402.183C307.397 407.5 315.706 436.104 311.37 445.625C307.034 455.143 298.921 441.688 294.418 435.855C289.915 430.025 284.071 396.999 284.071 396.999Z" fill="#2B478B"/>
<path d="M284.232 394.595L284.223 396.224C284.223 396.224 284.667 401.315 278.398 402.06C272.129 402.804 267.38 400.072 267.55 396.142C268.115 393.099 268.735 391.009 268.777 388.492C268.792 387.556 268.728 386.562 268.554 385.442L280.701 385.2L284.279 385.784L284.232 394.595Z" fill="#FFB27D"/>
<path d="M284.279 385.784L284.232 394.594C282.942 395.195 281.486 395.561 279.854 395.561C274.271 395.561 270.663 391.463 268.777 388.492C268.792 387.556 268.728 386.562 268.554 385.442L280.701 385.2L284.279 385.784Z" fill="#E2915A"/>
<path d="M267.623 383.485C269.033 391.073 278.819 390.824 283.049 390.349C284.239 390.216 284.988 390.063 284.988 390.063C286.33 389.704 287.079 387.59 287.427 384.821C288.117 379.336 287.245 371.29 286.319 369.231C284.926 366.134 282.302 362.783 272.446 365.201C262.588 367.619 265.815 373.763 267.623 383.485Z" fill="#FFB27D"/>
<path d="M273.518 607.282C273.518 607.282 272.937 602.631 271.59 599.936C270.244 597.242 261.676 598.956 261.676 598.956C261.676 598.956 259.963 600.424 259.595 607.282H273.518Z" fill="#233862"/>
<path d="M302.708 607.282C300.696 606.052 301.841 596.883 301.841 596.883C301.841 596.883 311.222 589.373 312.511 595.121C313.801 600.872 321.423 603.45 325.762 604.157C328.757 604.642 329.684 606.302 329.972 607.282H302.708Z" fill="#233862"/>
<path d="M300.173 418.315C300.173 418.315 308.115 434.847 307.938 438.88C307.938 438.88 305.13 436.217 300.173 436.568C295.218 436.917 300.173 418.315 300.173 418.315Z" fill="#233862"/>
<path d="M283.049 390.349C284.239 390.216 284.988 390.063 284.988 390.063C286.33 389.704 287.079 387.59 287.427 384.82C284.91 385.439 283.757 387.385 283.277 388.215C283.059 388.587 283.015 389.424 283.049 390.349Z" fill="#E2915A"/>
<path d="M289.443 394.642C289.443 394.642 294.923 385.592 290.662 385.2C286.399 384.807 284.687 387.693 284.072 388.751C283.456 389.81 284.232 394.594 284.232 394.594L289.443 394.642Z" fill="#FFB27D"/>
<path d="M283.278 540.392C283.66 542.499 283.903 544.224 283.967 545.463C284.839 562.48 298.285 601.394 300.69 602.299C304.412 603.706 310.272 600.718 313.338 599.742C314.608 599.335 315.466 598.055 315.183 596.753C308.525 566.124 306.077 522.022 305.187 495.911C304.737 482.76 302.481 473.676 302.481 473.676C302.481 473.676 269.685 464.92 269.491 475.995C269.318 485.796 280.354 524.229 283.278 540.392Z" fill="#C65447"/>
<path d="M283.278 540.392L305.187 495.911C304.737 482.76 302.481 473.676 302.481 473.676C302.481 473.676 269.685 464.92 269.491 475.995C269.318 485.796 280.354 524.229 283.278 540.392Z" fill="#9E322A"/>
<path d="M290.575 476.032L273.238 601.75C273.238 601.75 265.624 603.587 259.703 602.118C259.703 602.118 254.627 535.256 255.05 519.092C255.473 502.926 251.407 475.838 255.978 472.85C260.549 469.865 290.575 476.032 290.575 476.032Z" fill="#C65447"/>
<path d="M253.464 469.281C253.512 468.738 253.556 468.198 253.6 467.665C253.611 467.522 253.621 467.382 253.631 467.239C253.665 466.819 253.697 466.398 253.729 465.982C253.738 465.859 253.746 465.739 253.755 465.616C253.833 464.551 253.903 463.496 253.969 462.458C253.976 462.341 253.983 462.229 253.99 462.109C254.016 461.679 254.041 461.252 254.066 460.825C254.071 460.733 254.076 460.637 254.082 460.545C254.11 460.023 254.139 459.507 254.165 458.991L254.167 458.961C254.193 458.469 254.216 457.984 254.239 457.502C254.244 457.39 254.25 457.274 254.255 457.164C254.274 456.748 254.294 456.334 254.311 455.925C254.315 455.839 254.319 455.754 254.322 455.672C254.345 455.18 254.364 454.692 254.384 454.21C254.387 454.145 254.389 454.08 254.393 454.012C254.409 453.606 254.424 453.199 254.44 452.796C254.445 452.656 254.451 452.516 254.456 452.376C254.469 452.031 254.481 451.69 254.495 451.348C254.499 451.219 254.504 451.086 254.509 450.959C254.523 450.543 254.538 450.129 254.552 449.72C254.564 449.405 254.575 449.091 254.585 448.78C254.587 448.716 254.588 448.647 254.592 448.582C254.647 446.953 254.7 445.369 254.756 443.825L254.76 443.757C254.794 442.852 254.827 441.961 254.864 441.083C254.866 441.032 254.869 440.977 254.871 440.926C254.885 440.564 254.901 440.205 254.919 439.854C254.922 439.758 254.926 439.666 254.931 439.573C254.949 439.194 254.967 438.819 254.986 438.447C254.988 438.412 254.99 438.385 254.992 438.351C255.011 437.962 255.032 437.579 255.053 437.197C255.06 437.077 255.067 436.958 255.074 436.841C255.09 436.575 255.106 436.312 255.122 436.053C255.131 435.913 255.14 435.773 255.149 435.636C255.168 435.359 255.185 435.086 255.205 434.813C255.217 434.646 255.23 434.478 255.242 434.314C255.26 434.082 255.276 433.85 255.295 433.618L255.302 433.532C255.327 433.218 255.353 432.911 255.381 432.603C255.391 432.508 255.397 432.409 255.406 432.313C255.435 431.989 255.467 431.664 255.5 431.343C255.392 431.217 255.284 431.091 255.178 430.964C247.675 421.904 243.813 410.218 246.841 405.888C251.786 398.822 267.55 396.141 267.55 396.141C267.55 398.757 273.223 402.036 277.762 401.738C278.516 401.687 279.216 401.534 279.857 401.308C281.335 397.671 282.349 395.26 282.349 395.26C282.349 395.26 284.154 391.562 290.576 393.689C290.576 393.689 290.77 396.957 290.576 401.834C290.572 401.923 290.568 402.012 290.564 402.1C295.456 406.55 301.324 413.278 301.332 419.719C301.343 428.82 301.456 436.486 301.624 442.944C301.809 450.119 302.067 455.795 302.334 460.275C303.121 473.495 303.995 476.278 303.423 476.268C303.423 476.268 298.395 480.847 285.115 480.762C276.766 480.711 269.97 479.782 264.92 478.73C258.126 477.323 254.495 475.694 254.495 475.694C253.038 475.674 253.344 470.657 253.464 469.281Z" fill="#2B478B"/>
<path d="M289.344 362.009C289.344 362.009 285.006 361.674 279.889 359.447C275.736 357.641 270.496 359.632 268.795 360.526C268.841 360.253 268.951 359.878 269.21 359.505C269.21 359.505 268.446 360.045 268.334 360.803C268.255 360.861 268.22 360.902 268.241 360.916C268.241 360.916 267.375 360.755 266.819 361.008C266.819 361.008 267.208 360.95 267.347 361.203L267.409 361.271C260.931 364.402 260.333 374.644 262.417 377.014C264.926 379.869 267.933 386.289 267.933 386.289C267.933 386.289 269.03 384.773 268.574 382.263C268.118 379.753 270.284 379.753 273.02 378.612C275.756 377.472 273.476 374.279 275.87 372.339C278.265 370.399 287.043 371.54 286.929 370.058C290.188 368.869 289.344 362.343 289.344 362.009Z" fill="#233862"/>
<path d="M265.638 443.525C268.209 453.852 296.013 459.19 302.333 460.276C302.067 455.795 301.809 450.119 301.623 442.944L265.638 443.525Z" fill="#233862"/>
<path d="M271.741 446.881C271.476 446.881 265.56 445.997 264.5 445.468C263.441 444.938 258.595 438.047 261.769 436.278C264.942 434.512 273.462 441.581 273.462 441.581L271.741 446.881Z" fill="#FFB27D"/>
<path d="M307.724 448.927C307.724 448.927 284.843 450.17 269.488 446.882C269.488 446.882 269.101 442.442 273.927 440.472C273.927 440.472 297.858 435.397 303.608 436.811C309.357 438.221 307.724 448.927 307.724 448.927Z" fill="#2B478B"/>
<path d="M255.178 430.964C259.927 436.691 266.134 441.366 272.978 442.463H272.98C287.213 436.032 290.093 413.961 290.576 401.834C290.576 401.834 283.84 426.272 274.673 434.816C273.016 436.363 271.279 437.388 269.488 437.654C269.488 437.654 257.928 434.386 255.504 431.309C255.331 431.087 255.224 430.978 255.178 430.964Z" fill="#233862"/>
<path d="M259.899 417.089C259.899 417.089 267.039 426.053 271.303 418.069C271.303 418.069 266.841 422.41 259.899 417.089Z" fill="#233862"/>
<path d="M789.582 534.409H393.464L409.548 474.977H789.582V534.409Z" fill="#1C2948"/>
<path d="M609.15 416.796L609.121 416.8L609.15 416.796Z" fill="#163560"/>
<path d="M495.384 461.607C501.323 461.385 507.493 461.266 513.903 461.266C513.903 461.266 549.382 430.459 590.423 419.975C548.227 430.401 495.384 461.607 495.384 461.607Z" fill="#163560"/>
<path d="M816.728 484.73V450.719C816.728 450.719 776.842 446.16 752.728 437.418C696.893 416.897 666.886 416.518 616.174 416.518C577.674 416.518 538.683 442.312 522.142 454.732C516.563 458.919 509.799 461.231 502.828 461.385C441.927 462.72 404.282 474.885 385.583 483.094C376.821 486.943 371.182 495.627 371.182 505.203V516.653C369.923 516.653 368.903 517.675 368.903 518.931V537.932C368.903 539.193 369.923 540.214 371.182 540.214H397.202H407.524C403.923 533.76 401.937 526.28 402.138 518.32C402.705 495.641 421.219 477.173 443.887 476.671C467.93 476.138 487.588 495.48 487.588 519.413C487.588 526.967 485.622 534.057 482.188 540.214H705.791C702.189 533.76 700.201 526.28 700.403 518.32C700.97 495.641 719.484 477.173 742.151 476.671C766.194 476.138 785.851 495.48 785.851 519.413C785.851 526.967 783.889 534.057 780.449 540.214H789.377C820.28 540.214 824.655 508.597 824.943 493.1C825.034 488.5 821.322 484.73 816.728 484.73Z" fill="#F1A34F"/>
<path d="M596.599 422.658C561.324 431.592 523.498 462.119 523.498 462.119L623.623 459.978C627.548 459.892 631.084 457.58 632.737 454.015L648.08 420.886H610.957C606.114 420.886 601.291 421.47 596.599 422.658Z" fill="#163560"/>
<path d="M653.965 421.648L639.912 453.866C638.826 456.345 640.639 459.118 643.343 459.118C657.529 459.124 694.771 458.599 716.214 453.223C721.361 451.933 723.09 445.451 719.26 441.773C710.544 433.409 691.602 421.648 653.965 421.648Z" fill="#163560"/>
<path d="M373.786 494.279H388.415C388.415 494.279 412.339 471.935 450.729 465.603C450.729 465.603 379.807 473.423 373.786 494.279Z" fill="#C65447"/>
<path d="M816.739 484.73H812.868C810.695 484.73 808.717 483.48 807.785 481.513C805.547 476.77 800.629 467.771 793.083 461.378C790.164 458.909 791.931 454.138 795.752 454.138H815.462C816.168 454.138 816.739 454.712 816.739 455.419V484.73Z" fill="#C65447"/>
<path d="M624.673 469.434H605.217C604.141 469.434 603.266 468.563 603.266 467.487C603.266 466.412 604.141 465.541 605.217 465.541H624.673C625.748 465.541 626.62 466.412 626.62 467.487C626.62 468.563 625.748 469.434 624.673 469.434Z" fill="#DD7F30"/>
<path d="M710.704 469.434H691.244C690.169 469.434 689.3 468.564 689.3 467.488C689.3 466.412 690.169 465.541 691.244 465.541H710.704C711.779 465.541 712.653 466.412 712.653 467.488C712.653 468.564 711.779 469.434 710.704 469.434Z" fill="#DD7F30"/>
<path d="M694.231 482.069H518.777C511.521 482.069 507.056 490.013 510.831 496.214L522.127 514.796C524.587 518.839 529.953 519.953 533.809 517.203C548.808 506.504 592.023 484.303 694.231 482.069Z" fill="#DD7F30"/>
<path d="M780.636 519.423C780.636 539.961 763.994 556.609 743.467 556.609C722.944 556.609 706.302 539.961 706.302 519.423C706.302 498.889 722.944 482.241 743.467 482.241C763.994 482.241 780.636 498.889 780.636 519.423Z" fill="#2D3A62"/>
<path d="M754.599 522.535C754.876 521.545 755.027 520.503 755.027 519.424C755.027 518.307 754.867 517.231 754.576 516.21L762.55 511.282C763.617 513.782 764.209 516.534 764.209 519.424C764.209 522.278 763.631 524.997 762.593 527.47L754.599 522.535ZM746.619 539.937V530.553C748.396 530.051 749.998 529.136 751.309 527.92L759.284 532.845C756.122 536.571 751.671 539.166 746.619 539.937ZM738.241 519.424C738.241 516.534 740.581 514.195 743.466 514.195C746.356 514.195 748.697 516.534 748.697 519.424C748.697 522.313 746.356 524.656 743.466 524.656C740.581 524.656 738.241 522.313 738.241 519.424ZM740.313 539.937C735.261 539.166 730.816 536.571 727.653 532.845L735.623 527.92C736.939 529.136 738.541 530.051 740.313 530.553V539.937ZM724.34 527.47C723.301 524.997 722.723 522.278 722.723 519.424C722.723 516.534 723.315 513.782 724.387 511.282L732.362 516.21C732.066 517.231 731.906 518.307 731.906 519.424C731.906 520.503 732.056 521.545 732.333 522.535L724.34 527.47ZM740.313 498.91V508.298C738.574 508.789 737 509.674 735.703 510.855L727.719 505.924C730.877 502.243 735.299 499.678 740.313 498.91ZM746.619 498.91C751.634 499.678 756.056 502.243 759.214 505.924L751.234 510.855C749.933 509.674 748.358 508.789 746.619 508.298V498.91ZM743.466 496.386C730.75 496.386 720.439 506.699 720.439 519.424C720.439 532.148 730.75 542.465 743.466 542.465C756.183 542.465 766.493 532.148 766.493 519.424C766.493 506.699 756.183 496.386 743.466 496.386Z" fill="#98BDF4"/>
<path d="M482.057 519.683C482.057 540.221 465.417 556.869 444.889 556.869C424.361 556.869 407.725 540.221 407.725 519.683C407.725 499.148 424.361 482.5 444.889 482.5C465.417 482.5 482.057 499.148 482.057 519.683Z" fill="#2D3A62"/>
<path d="M456.023 522.794C456.3 521.804 456.45 520.762 456.45 519.683C456.45 518.566 456.289 517.491 455.992 516.47L463.969 511.542C465.038 514.041 465.632 516.794 465.632 519.683C465.632 522.538 465.055 525.256 464.014 527.729L456.023 522.794ZM448.043 540.197V530.813C449.818 530.311 451.415 529.395 452.733 528.18L460.703 533.104C457.542 536.83 453.094 539.425 448.043 540.197ZM439.66 519.683C439.66 516.794 442.001 514.455 444.889 514.455C447.777 514.455 450.118 516.794 450.118 519.683C450.118 522.572 447.777 524.915 444.889 524.915C442.001 524.915 439.66 522.572 439.66 519.683ZM441.735 540.197C436.683 539.425 432.236 536.83 429.075 533.104L437.045 528.18C438.363 529.395 439.96 530.311 441.735 530.813V540.197ZM425.764 527.729C424.723 525.256 424.146 522.538 424.146 519.683C424.146 516.794 424.74 514.041 425.808 511.542L433.785 516.47C433.488 517.491 433.328 518.566 433.328 519.683C433.328 520.762 433.478 521.804 433.755 522.794L425.764 527.729ZM441.735 499.169V508.557C439.998 509.049 438.424 509.933 437.124 511.115L429.143 506.184C432.3 502.502 436.721 499.937 441.735 499.169ZM448.043 499.169C453.057 499.937 457.477 502.502 460.635 506.184L452.654 511.115C451.354 509.933 449.78 509.049 448.043 508.557V499.169ZM444.889 496.645C432.171 496.645 421.862 506.959 421.862 519.683C421.862 532.407 432.171 542.724 444.889 542.724C457.607 542.724 467.915 532.407 467.915 519.683C467.915 506.959 457.607 496.645 444.889 496.645Z" fill="#98BDF4"/>
<path d="M551.825 379.229H895.143L881.202 327.718H551.825V379.229Z" fill="#1C2948"/>
<path d="M708.204 277.297V277.296L708.228 277.298L708.204 277.297Z" fill="#163560"/>
<path d="M806.808 316.132V316.133C801.658 315.94 796.311 315.837 790.756 315.837C790.756 315.837 760.002 289.138 724.436 280.051C761.007 289.087 806.808 316.132 806.808 316.132Z" fill="#163560"/>
<path d="M528.302 336.173V306.695C528.302 306.695 562.87 302.743 583.773 295.168C632.166 277.382 658.172 277.053 702.119 277.053C735.486 277.053 769.28 299.409 783.62 310.173C788.453 313.803 794.314 315.807 800.354 315.94C853.141 317.097 885.766 327.638 901.972 334.755C909.569 338.091 914.452 345.619 914.452 353.917V363.841C915.548 363.841 916.43 364.726 916.43 365.815V382.286C916.43 383.375 915.548 384.26 914.452 384.26H891.908H882.956C886.081 378.666 887.8 372.184 887.626 365.285C887.132 345.629 871.089 329.624 851.444 329.188C830.602 328.727 813.571 345.489 813.571 366.232C813.571 372.778 815.273 378.925 818.251 384.26H624.451C627.575 378.666 629.294 372.184 629.12 365.285C628.626 345.629 612.583 329.624 592.938 329.188C572.097 328.727 555.063 345.489 555.063 366.232C555.063 372.778 556.766 378.925 559.742 384.26H552.005C525.223 384.26 521.431 356.861 521.178 343.426C521.103 339.441 524.319 336.173 528.302 336.173Z" fill="#699DEE"/>
<path d="M719.087 282.377C749.66 290.118 782.444 316.577 782.444 316.577L695.663 314.72C692.261 314.647 689.196 312.642 687.766 309.552L674.469 280.842H706.643C710.841 280.842 715.019 281.347 719.087 282.377Z" fill="#163560"/>
<path d="M669.365 281.5L681.549 309.424C682.486 311.571 680.913 313.973 678.57 313.974C666.277 313.98 633.998 313.523 615.417 308.867C610.953 307.748 609.455 302.128 612.777 298.941C620.325 291.694 636.747 281.5 669.365 281.5Z" fill="#163560"/>
<path d="M912.196 344.448H899.516C899.516 344.448 878.782 325.084 845.508 319.595C845.508 319.595 906.977 326.372 912.196 344.448Z" fill="#B64C41"/>
<path d="M528.301 336.174H531.656C533.537 336.174 535.254 335.098 536.056 333.397C537.994 329.289 542.258 321.489 548.794 315.943C551.324 313.795 549.811 309.66 546.49 309.66H528.301V336.174Z" fill="#B64C41"/>
<path d="M694.754 322.917H711.621C712.552 322.917 713.309 322.16 713.309 321.229C713.309 320.296 712.552 319.541 711.621 319.541H694.754C693.822 319.541 693.066 320.296 693.066 321.229C693.066 322.16 693.822 322.917 694.754 322.917Z" fill="#4A75CB"/>
<path d="M620.188 322.917H637.056C637.988 322.917 638.744 322.161 638.744 321.229C638.744 320.297 637.988 319.541 637.056 319.541H620.188C619.256 319.541 618.504 320.297 618.504 321.229C618.504 322.161 619.256 322.917 620.188 322.917Z" fill="#4A75CB"/>
<path d="M634.47 333.868H786.533C792.824 333.868 796.693 340.753 793.425 346.127L783.632 362.233C781.502 365.737 776.847 366.7 773.506 364.319C760.503 355.044 723.053 335.801 634.47 333.868Z" fill="#4A75CB"/>
<path d="M559.582 366.242C559.582 384.041 574.003 398.469 591.794 398.469C609.584 398.469 624.005 384.041 624.005 366.242C624.005 348.443 609.584 334.014 591.794 334.014C574.003 334.014 559.582 348.443 559.582 366.242Z" fill="#2D3A62"/>
<path d="M582.142 368.938C581.902 368.081 581.771 367.179 581.771 366.243C581.771 365.277 581.913 364.341 582.165 363.457L575.253 359.185C574.327 361.353 573.813 363.737 573.813 366.243C573.813 368.716 574.316 371.072 575.216 373.217L582.142 368.938ZM589.057 384.022V375.887C587.52 375.453 586.136 374.661 584.992 373.606L578.081 377.875C580.822 381.102 584.681 383.356 589.057 384.022ZM596.325 366.243C596.325 363.74 594.292 361.712 591.791 361.712C589.29 361.712 587.261 363.74 587.261 366.243C587.261 368.747 589.29 370.779 591.791 370.779C594.292 370.779 596.325 368.747 596.325 366.243ZM594.525 384.022C598.905 383.356 602.756 381.102 605.497 377.875L598.59 373.606C597.45 374.661 596.062 375.453 594.525 375.887V384.022ZM608.366 373.217C609.269 371.072 609.768 368.716 609.768 366.243C609.768 363.737 609.254 361.353 608.328 359.185L601.417 363.457C601.672 364.341 601.811 365.277 601.811 366.243C601.811 367.179 601.683 368.081 601.443 368.938L608.366 373.217ZM594.525 348.465V356.599C596.028 357.026 597.393 357.795 598.522 358.815L605.437 354.543C602.703 351.35 598.871 349.127 594.525 348.465ZM589.057 348.465C584.711 349.127 580.882 351.35 578.145 354.543L585.06 358.815C586.188 357.795 587.55 357.026 589.057 356.599V348.465ZM591.791 346.276C602.812 346.276 611.748 355.216 611.748 366.243C611.748 377.27 602.812 386.211 591.791 386.211C580.77 386.211 571.833 377.27 571.833 366.243C571.833 355.216 580.77 346.276 591.791 346.276Z" fill="#98BDF4"/>
<path d="M818.358 366.469C818.358 384.268 832.778 398.696 850.569 398.696C868.361 398.696 882.781 384.268 882.781 366.469C882.781 348.669 868.361 334.241 850.569 334.241C832.778 334.241 818.358 348.669 818.358 366.469Z" fill="#2D3A62"/>
<path d="M840.922 369.162C840.681 368.305 840.548 367.403 840.548 366.468C840.548 365.502 840.692 364.566 840.948 363.681L834.036 359.409C833.107 361.578 832.595 363.961 832.595 366.468C832.595 368.94 833.097 371.297 833.999 373.442L840.922 369.162ZM847.839 384.246V376.112C846.302 375.675 844.914 374.886 843.772 373.831L836.865 378.099C839.603 381.326 843.457 383.577 847.839 384.246ZM855.104 366.468C855.104 363.965 853.075 361.933 850.572 361.933C848.069 361.933 846.04 363.965 846.04 366.468C846.04 368.971 848.069 370.999 850.572 370.999C853.075 370.999 855.104 368.971 855.104 366.468ZM853.305 384.246C857.682 383.577 861.541 381.326 864.279 378.099L857.372 373.831C856.23 374.886 854.842 375.675 853.305 376.112V384.246ZM867.145 373.442C868.047 371.297 868.549 368.94 868.549 366.468C868.549 363.961 868.037 361.578 867.108 359.409L860.196 363.681C860.452 364.566 860.591 365.502 860.591 366.468C860.591 367.403 860.463 368.305 860.222 369.162L867.145 373.442ZM853.305 348.69V356.824C854.81 357.25 856.171 358.016 857.303 359.041L864.22 354.768C861.482 351.575 857.65 349.352 853.305 348.69ZM847.839 348.69C843.494 349.352 839.657 351.575 836.924 354.768L843.841 359.041C844.968 358.016 846.334 357.25 847.839 356.824V348.69ZM850.572 346.501C861.594 346.501 870.529 355.441 870.529 366.468C870.529 377.495 861.594 386.435 850.572 386.435C839.55 386.435 830.615 377.495 830.615 366.468C830.615 355.441 839.55 346.501 850.572 346.501Z" fill="#98BDF4"/>
<path d="M573.047 265.76H309.166L319.88 226.164H573.047V265.76Z" fill="#1C2948"/>
<path d="M452.852 187.405L452.832 187.408L452.852 187.405Z" fill="#163560"/>
<path d="M377.062 217.259C381.018 217.109 385.132 217.03 389.402 217.03C389.402 217.03 413.036 196.509 440.376 189.526C412.268 196.468 377.062 217.259 377.062 217.259Z" fill="#163560"/>
<path d="M591.132 232.662V210.004C591.132 210.004 564.564 206.967 548.497 201.145C511.297 187.474 491.309 187.222 457.532 187.222C431.882 187.222 405.907 204.406 394.887 212.679C391.167 215.467 386.669 217.008 382.02 217.11C341.452 218 316.372 226.101 303.916 231.572C298.079 234.137 294.323 239.922 294.323 246.3V253.93C293.484 253.93 292.805 254.611 292.805 255.449V268.106C292.805 268.944 293.484 269.625 294.323 269.625H311.656H318.533C316.134 265.325 314.811 260.345 314.944 255.039C315.323 239.933 327.656 227.627 342.758 227.294C358.773 226.939 371.867 239.824 371.867 255.767C371.867 260.798 370.561 265.523 368.268 269.625H517.225C514.826 265.325 513.506 260.345 513.641 255.039C514.018 239.933 526.351 227.627 541.452 227.294C557.468 226.939 570.562 239.824 570.562 255.767C570.562 260.798 569.253 265.523 566.967 269.625H572.914C593.498 269.625 596.413 248.562 596.607 238.239C596.665 235.173 594.193 232.662 591.132 232.662Z" fill="#C65447"/>
<path d="M444.489 191.312C420.988 197.264 395.791 217.6 395.791 217.6L462.491 216.173C465.106 216.115 467.464 214.575 468.563 212.198L478.786 190.133H454.053C450.828 190.133 447.616 190.519 444.489 191.312Z" fill="#163560"/>
<path d="M482.708 190.639L473.342 212.102C472.622 213.752 473.83 215.599 475.629 215.599C485.081 215.603 509.889 215.255 524.174 211.672C527.604 210.815 528.754 206.495 526.201 204.043C520.398 198.473 507.779 190.639 482.708 190.639Z" fill="#163560"/>
<path d="M296.058 239.023H305.805C305.805 239.023 321.741 224.137 347.315 219.92C347.315 219.92 300.07 225.128 296.058 239.023Z" fill="#F1A34F"/>
<path d="M591.135 232.661H588.555C587.11 232.661 585.791 231.831 585.171 230.526C583.682 227.368 580.406 221.372 575.384 217.112C573.438 215.463 574.601 212.283 577.152 212.283H591.135V232.661Z" fill="#F1A34F"/>
<path d="M463.191 222.474H450.227C449.511 222.474 448.93 221.893 448.93 221.176C448.93 220.459 449.511 219.878 450.227 219.878H463.191C463.908 219.878 464.488 220.459 464.488 221.176C464.488 221.893 463.908 222.474 463.191 222.474Z" fill="#9E322A"/>
<path d="M520.505 222.474H507.541C506.824 222.474 506.244 221.893 506.244 221.176C506.244 220.459 506.824 219.878 507.541 219.878H520.505C521.222 219.878 521.802 220.459 521.802 221.176C521.802 221.893 521.222 222.474 520.505 222.474Z" fill="#9E322A"/>
<path d="M509.527 230.892H392.644C387.811 230.892 384.838 236.182 387.35 240.314L394.877 252.694C396.515 255.385 400.092 256.126 402.659 254.295C412.653 247.168 441.441 232.378 509.527 230.892Z" fill="#9E322A"/>
<path d="M567.088 255.774C567.088 269.456 556.004 280.546 542.329 280.546C528.654 280.546 517.573 269.456 517.573 255.774C517.573 242.097 528.654 231.003 542.329 231.003C556.004 231.003 567.088 242.097 567.088 255.774Z" fill="#2D3A62"/>
<path d="M549.749 257.845C549.93 257.185 550.033 256.494 550.033 255.776C550.033 255.03 549.923 254.312 549.729 253.631L555.04 250.348C555.755 252.014 556.148 253.847 556.148 255.776C556.148 257.674 555.765 259.486 555.071 261.135L549.749 257.845ZM544.434 269.442V263.187C545.613 262.852 546.68 262.243 547.555 261.432L552.866 264.715C550.761 267.195 547.797 268.925 544.434 269.442ZM538.848 255.776C538.848 253.85 540.407 252.291 542.328 252.291C544.256 252.291 545.815 253.85 545.815 255.776C545.815 257.698 544.256 259.257 542.328 259.257C540.407 259.257 538.848 257.698 538.848 255.776ZM540.229 269.442C536.866 268.925 533.902 267.195 531.797 264.715L537.105 261.432C537.98 262.243 539.05 262.852 540.229 263.187V269.442ZM529.592 261.135C528.898 259.486 528.512 257.674 528.512 255.776C528.512 253.847 528.908 252.014 529.619 250.348L534.935 253.631C534.736 254.312 534.63 255.03 534.63 255.776C534.63 256.494 534.729 257.185 534.914 257.845L529.592 261.135ZM540.229 242.11V248.361C539.074 248.69 538.025 249.278 537.16 250.064L531.841 246.781C533.943 244.329 536.89 242.619 540.229 242.11ZM544.434 242.11C547.773 242.619 550.716 244.329 552.819 246.781L547.503 250.064C546.638 249.278 545.589 248.69 544.434 248.361V242.11ZM542.328 240.427C533.858 240.427 526.991 247.298 526.991 255.776C526.991 264.25 533.858 271.121 542.328 271.121C550.802 271.121 557.669 264.25 557.669 255.776C557.669 247.298 550.802 240.427 542.328 240.427Z" fill="#98BDF4"/>
<path d="M368.184 255.948C368.184 269.628 357.098 280.717 343.424 280.717C329.751 280.717 318.666 269.628 318.666 255.948C318.666 242.267 329.751 231.175 343.424 231.175C357.098 231.175 368.184 242.267 368.184 255.948Z" fill="#2D3A62"/>
<path d="M350.845 258.018C351.026 257.358 351.128 256.665 351.128 255.948C351.128 255.204 351.019 254.486 350.825 253.807L356.139 250.522C356.849 252.188 357.245 254.022 357.245 255.948C357.245 257.847 356.859 259.66 356.167 261.306L350.845 258.018ZM345.527 269.612V263.362C346.708 263.024 347.773 262.416 348.65 261.607L353.961 264.889C351.855 267.368 348.893 269.099 345.527 269.612ZM339.943 255.948C339.943 254.022 341.502 252.461 343.425 252.461C345.35 252.461 346.91 254.022 346.91 255.948C346.91 257.871 345.35 259.431 343.425 259.431C341.502 259.431 339.943 257.871 339.943 255.948ZM341.324 269.612C337.959 269.099 334.996 267.368 332.89 264.889L338.2 261.607C339.077 262.416 340.143 263.024 341.324 263.362V269.612ZM330.686 261.306C329.992 259.66 329.608 257.847 329.608 255.948C329.608 254.022 330.003 252.188 330.714 250.522L336.028 253.807C335.832 254.486 335.724 255.204 335.724 255.948C335.724 256.665 335.824 257.358 336.008 258.018L330.686 261.306ZM341.324 242.281V248.534C340.167 248.862 339.119 249.453 338.253 250.238L332.936 246.953C335.039 244.501 337.984 242.79 341.324 242.281ZM345.527 242.281C348.869 242.79 351.811 244.501 353.914 246.953L348.599 250.238C347.732 249.453 346.684 248.862 345.527 248.534V242.281ZM343.425 240.601C334.954 240.601 328.086 247.472 328.086 255.948C328.086 264.424 334.954 271.295 343.425 271.295C351.896 271.295 358.764 264.424 358.764 255.948C358.764 247.472 351.896 240.601 343.425 240.601Z" fill="#98BDF4"/>
<path d="M465.942 580.666V584.391C465.942 597.594 476.639 608.296 489.835 608.296H820.8C833.996 608.296 844.691 597.594 844.691 584.391V580.666C844.691 567.463 833.996 556.76 820.8 556.76H489.835C476.639 556.76 465.942 567.463 465.942 580.666Z" fill="#4A75CB"/>
<path d="M349.156 580.665V584.391C349.156 597.593 359.853 608.296 373.049 608.296H704.021C717.217 608.296 727.914 597.593 727.914 584.391V580.665C727.914 567.462 717.217 556.76 704.021 556.76H373.049C359.853 556.76 349.156 567.462 349.156 580.665Z" fill="#699DEE"/>
<path d="M151.523 601.22L146.594 603.778C146.594 603.778 143.645 599.936 141.011 595.292C139.168 592.044 137.475 588.397 137.061 585.412C136.054 578.162 128.382 566.247 129.18 564.215C129.978 562.186 145.193 558.676 145.193 558.676C145.193 558.676 148.167 579.05 150.145 592.218C150.722 596.06 151.213 599.291 151.523 601.22Z" fill="#FFB27D"/>
<path d="M147.768 572.78C144.951 574.146 142.336 574.931 140.091 575.372C136.746 576.027 134.229 575.915 133.116 575.805C132.704 575.764 132.485 575.727 132.485 575.727C132.485 575.727 129.747 573.753 126.575 569.156C123.666 564.942 121.506 558.911 121.506 558.84L144.738 556.575L147.768 572.78Z" fill="#2B478B"/>
<path d="M140.091 575.372C136.746 576.027 134.229 575.915 133.116 575.805L135.726 565.659C135.726 565.659 139.107 570.942 140.091 575.372Z" fill="#233862"/>
<path d="M151.523 601.22L146.594 603.778C146.594 603.778 143.645 599.936 141.011 595.292C143.063 595.138 146.627 594.523 150.145 592.218C150.722 596.06 151.213 599.291 151.523 601.22Z" fill="#739AF0"/>
<path d="M140.322 563.331C140.322 563.331 134.094 572.124 130.322 584.48C129.435 587.389 126.409 591.016 123.351 594.237C120.384 597.361 117.388 600.107 116.279 601.456L111.259 599.038C111.259 599.038 113.023 593.977 115.633 589.38C116.602 587.669 117.685 586.027 118.842 584.733C120.44 582.943 119.914 560.329 121.506 558.84C123.1 557.348 140.322 563.331 140.322 563.331Z" fill="#FFB27D"/>
<path d="M143.289 558.096L134.095 576.796C134.042 576.803 127.242 577.008 122.413 574.303C119.645 572.753 118.402 570.919 118.402 570.919L121.268 558.096H143.289Z" fill="#2B478B"/>
<path d="M126.192 523.003L126.215 523.016L126.192 523.003Z" fill="#FFB27D"/>
<path d="M139.064 530.772L126.217 523.017C126.288 522.989 126.547 522.6 127.508 519.82C127.917 518.635 128.134 517.607 128.241 516.791C128.252 516.709 128.262 516.631 128.269 516.552C128.401 515.367 128.305 514.684 128.305 514.684L131.119 515.702L136.324 517.59C136.264 518.908 136.449 519.837 136.73 520.476C137.41 522.023 138.676 522.037 138.711 522.037L139.064 530.772Z" fill="#FFB27D"/>
<path d="M136.73 520.475C131.699 520.902 128.867 517.62 128.241 516.791C128.148 516.671 128.102 516.603 128.102 516.603C128.102 516.603 128.163 516.586 128.269 516.552C128.678 516.432 129.789 516.097 131.119 515.701L136.324 517.59C136.264 518.908 136.449 519.837 136.73 520.475Z" fill="#ED985F"/>
<path d="M136.982 518.669C136.982 518.669 125.805 519.895 125.577 512.334C125.347 504.773 123.695 501.314 131.428 500.641C139.161 499.965 140.988 502.752 141.444 505.313C142.867 513.304 140.13 518.328 136.982 518.669Z" fill="#FFB27D"/>
<path d="M166.372 490.751C165.947 490.505 165.205 490.539 164.251 490.788C163.544 491 162.731 491.318 161.884 491.779C161.813 491.779 161.778 491.813 161.707 491.847C159.707 492.937 159.762 498.032 159.763 498.103C158.482 499.148 153.577 509.103 152.435 511.825C151.291 514.554 140.574 522.791 140.574 522.791L143.266 531.844C146.467 530.218 156.211 519.007 158.245 515.701C160.279 512.395 163.197 501.443 162.816 499.599L162.811 499.579C162.849 499.51 163.084 499.118 163.439 498.602C164.039 497.683 164.994 496.27 165.594 495.559C166.054 495.03 166.442 494.005 166.619 493.049C166.831 491.991 166.76 490.966 166.372 490.751Z" fill="#FFB27D"/>
<path d="M132.029 504.332C128.074 503.332 129.587 510.343 128.587 509.861C127.469 509.325 125.548 509.332 125.851 510.684C126.154 512.033 126.592 512.518 126.82 513.362C127.048 514.205 126.818 515.875 125.899 515.537C124.979 515.202 116.426 505.429 122.466 497.82C128.504 490.208 146.512 494.897 140.841 502.857C139.844 504.257 134.845 505.046 132.029 504.332Z" fill="#233862"/>
<path d="M146.383 560.855C146.383 560.855 143.025 562.638 137.737 562.552C134.369 562.501 127.216 561.036 122.617 559.376C119.996 558.434 118.203 557.423 118.419 556.576C118.73 555.357 120.974 545.983 123.049 537.312C124.945 529.379 126.7 522.037 126.7 522.037C126.7 522.037 131.933 525.756 134.984 524.444C138.034 523.129 137.643 521.647 137.643 521.647C137.643 521.647 139.638 520.841 140.574 521.138C141.51 521.432 144.166 519.926 144.166 519.926C144.166 519.926 147.1 522.194 147.211 527.067C147.229 527.784 147.186 528.566 147.059 529.403L144.941 531.845C144.941 531.845 149.433 546.013 146.383 560.855Z" fill="#699DEE"/>
<path d="M159.686 607.278H144.968C144.968 607.278 144.687 604.881 145.025 602.835C145.066 602.586 145.196 602.361 145.389 602.163C146.251 602.456 147.517 602.661 148.925 602.156C150.079 601.739 150.933 601.111 151.528 600.534C151.68 600.684 154.721 603.583 156.127 603.583C157.568 603.583 159.77 604.277 159.686 607.278Z" fill="#2B478B"/>
<path d="M123.351 594.237C120.384 597.361 117.388 600.107 116.279 601.456L111.259 599.038C111.259 599.038 113.023 593.977 115.633 589.38C116.531 590.781 118.887 593.656 123.351 594.237Z" fill="#739AF0"/>
<path d="M117.367 600.158C117.367 600.158 117.183 603.354 118.248 603.778C119.314 604.201 121.299 605.25 121.299 607.278H113.927C113.927 607.278 108.843 604.775 108.165 603.713C107.487 602.651 111.552 598.112 111.552 598.112C111.552 598.112 114.049 600.875 117.367 600.158Z" fill="#2B478B"/>
<path d="M122.617 559.375C119.996 558.433 118.203 557.422 118.419 556.575C118.73 555.356 120.974 545.982 123.049 537.311C123.661 536.184 124.05 535.515 124.05 535.515C124.05 535.515 127.986 553.515 122.617 559.375Z" fill="#4A75CB"/>
<path d="M134.055 548.428C132.894 547.666 130.076 548.114 129.627 548.192C128.033 547.25 123.451 544.07 121.281 542.209C120.806 541.799 120.825 540.942 121.169 540.42C122.058 539.064 123.548 536.718 124.049 535.512C124.78 533.757 129.608 523.843 126.829 523.047C126.829 523.047 116.887 525.151 112.966 540.614C112.582 542.131 112.979 543.742 114.024 544.904C115.827 546.901 119.802 549.825 129.045 550.904C129.045 550.904 131.933 552.734 134.782 551.078C135.691 550.549 135.318 549.254 134.055 548.428Z" fill="#FFB27D"/>
<path d="M126.701 522.036C126.701 522.036 120.855 522.449 116.089 528.808C116.089 528.808 117.702 534.658 125.273 536.219C125.273 536.219 129.94 525.687 126.701 522.036Z" fill="#699DEE"/>
<path d="M166.619 493.08C166.442 494.036 166.054 495.061 165.594 495.59C164.994 496.297 164.039 497.711 163.439 498.629C161.778 497.147 161.707 493.787 161.884 491.806C162.731 491.349 163.544 491.031 164.251 490.816C165.382 491.311 166.16 492.124 166.619 493.08Z" fill="#E8945B"/>
<path d="M200.216 369.31C200.064 368.777 198.136 362.79 188.799 364.778C188.799 364.778 193.474 364.187 194.755 365.99C194.755 365.99 191.05 364.293 188.729 365.714C186.409 367.134 186.029 371.915 186.375 373.37C186.721 374.825 189.283 379.155 190.981 379.155C191.624 379.155 192.31 378.943 192.917 378.677C192.657 379.445 192.422 380.282 192.227 381.201C190.426 389.684 196.065 396.135 198.981 394.54C200.851 393.519 202.266 396.794 202.266 396.794L217.786 376.211C217.786 376.211 206.971 363.21 200.216 369.31Z" fill="#233862"/>
<path d="M241.247 488.822C240.833 490.399 239.482 493.961 238.433 493.961C237.577 493.958 237.271 489.6 236.171 488.675C234.574 487.329 233.274 484.515 233.067 483.832C232.64 482.425 232.238 482.132 232.238 482.132H232.24H232.235C232.235 482.132 219.487 458.81 218.49 452.841C218.162 450.898 217.328 446.998 216.347 442.633C215.282 437.883 214.047 432.58 213.114 428.608C217.184 427.816 221.686 427.536 225.356 427.464C226.104 432.296 226.772 437.234 227.349 441.524C228.206 447.906 228.857 452.858 229.259 453.917C230.367 456.83 233.422 472.525 236.303 480.673C236.633 481.476 237.569 483.562 238.593 484.273C239.874 485.157 241.659 487.244 241.247 488.822Z" fill="#E8945B"/>
<path d="M224.597 470.995C217.555 448.473 225.273 443.576 224.539 432.306C223.806 421.037 215.085 408.92 215.085 408.92C215.085 408.92 214.64 408.876 213.887 408.808C213.302 408.497 213.146 406.048 213.153 403.463C213.16 400.359 213.398 397.067 213.398 397.067L202.939 394.994L202.317 394.871C202.343 402.155 200.426 406.936 199.037 408.05C197.73 408.2 192.158 408.903 188.725 410.338C187.431 410.877 186.443 411.523 186.098 412.281C183.226 418.599 180.358 434.547 178.343 445.922C177.22 452.26 176.363 457.181 175.915 458.226C174.688 461.088 170.978 476.644 167.758 484.666C167.393 485.451 166.373 487.497 165.318 488.163C164.002 488.992 162.132 491.004 162.478 492.599C162.825 494.19 163.171 496.686 164.834 496.686C165.554 496.686 166.692 495.303 167.789 493.627C168.531 494.043 168.702 492.8 169.521 492.083C170.405 491.308 170.859 487.954 170.859 487.954C171.344 486.568 171.76 486.291 171.76 486.291L171.757 486.288L171.761 486.291C171.761 486.291 185.475 463.527 186.722 457.602C187.129 455.672 188.125 451.813 189.289 447.49C189.465 446.837 189.645 446.171 189.826 445.502C191.882 451.075 192.931 453.657 192.874 456.065C192.792 459.493 190.47 462.574 185.613 473.471C182.931 479.492 231.787 493.995 224.597 470.995Z" fill="#FFB27D"/>
<path d="M213.398 397.067C213.398 397.067 213.16 400.359 213.153 403.463C207.3 403.296 204.206 397.955 202.939 394.994L213.398 397.067Z" fill="#E8945B"/>
<path d="M201.859 393.857C201.859 393.857 198.792 389.007 198.055 384.861C197.53 381.901 199.036 370.928 210.057 372.509C210.057 372.509 213.257 372.824 216.266 374.855C218.659 376.474 222.112 379.964 218.251 389.54L217.248 392.774L201.859 393.857Z" fill="#233862"/>
<path d="M215.353 400.004C215.353 400.004 201.505 400.232 201.495 391.603C201.486 382.973 199.692 377.188 208.533 376.679C217.374 376.167 219.096 379.459 219.799 382.338C220.503 385.22 218.954 399.724 215.353 400.004Z" fill="#FFB27D"/>
<path d="M234.676 601.134L230.233 602.227C230.233 602.227 223.245 592.655 217.436 579.592C213.755 571.314 210.552 561.868 209.906 553.085C209.614 549.11 209.845 545.271 210.793 541.74C210.793 541.74 209.55 533.384 207.852 522.237C205.966 509.844 203.52 493.998 201.604 482.346L202.76 482.005L227.558 474.635C227.558 474.635 232.409 493.646 230.189 523.436C229.734 529.545 228.982 536.109 227.828 543.058C225.858 554.932 226.668 566.871 228.303 576.806C230.645 591.016 234.676 601.134 234.676 601.134Z" fill="#F99F46"/>
<path d="M209.906 553.085C209.828 552.03 209.788 550.982 209.788 549.95C209.787 547.092 210.097 544.333 210.793 541.741C210.793 541.741 209.55 533.384 207.852 522.238C205.966 509.844 203.52 493.999 201.604 482.347L202.76 482.005L227.558 474.636C227.558 474.636 230.768 487.217 230.771 507.946C230.772 512.696 230.603 517.88 230.189 523.436L209.906 553.085Z" fill="#EC8932"/>
<path d="M208.426 543.732C207.546 545.381 198.832 555.862 190.08 567.47C189.33 568.46 188.552 569.532 187.756 570.656C182.598 577.923 176.66 587.4 173.111 592.013C169.886 596.207 166.988 590.955 168.614 587.208C171.182 581.3 173.358 570.967 175.844 563.361C176.416 561.599 177.008 559.987 177.624 558.608C180.3 552.621 185.517 546.054 191.859 539.559C192.96 538.432 182.659 511.538 183.346 490.796C183.615 482.576 184.759 475.349 187.377 470.944L213.432 472.235C213.432 472.235 216.995 527.633 208.426 543.732Z" fill="#F99F46"/>
<path d="M219.387 377.54C217.25 374.948 215.635 375.511 214.728 376.29C207.302 372.171 199.942 376.624 199.942 376.624C199.017 382.819 196.888 388.027 196.888 388.027C196.888 388.027 199.411 389.588 205.23 388.089C207.006 387.631 208.592 386.371 209.94 384.841C207.585 388.789 204.383 391.63 204.383 391.63C211.334 388.413 214.125 378.742 214.402 377.721C215.248 378.479 216.914 380.132 217.422 381.747C218.112 383.946 218.423 388.468 219.741 388.314C219.741 388.314 222.597 381.433 219.387 377.54Z" fill="#233862"/>
<path d="M226.252 435.284C226.913 431.299 227.139 427.839 227.068 424.868C226.88 416.86 224.531 412.373 222.725 410.566C222.213 410.174 221.702 409.928 219.648 409.576C218.599 409.398 217.145 409.19 215.085 408.92C215.085 408.92 214.198 408.804 214.217 408.835C214.598 409.518 218.694 415.552 218.297 417.536C217.88 419.616 202.13 419.316 200.884 418.172C199.636 417.031 196.383 408.411 196.383 408.411C196.383 408.411 189.958 409.053 186.826 411.331C186.448 411.604 186.221 411.987 186.06 412.294C182.719 418.66 179.382 434.721 177.036 446.178C182.723 449.313 187.692 448.377 189.234 447.964C187.219 461.16 182.647 475.325 182.348 481.336C182.303 482.213 182.35 482.917 182.509 483.419C183.064 485.164 184.968 485.96 189.569 485.482C192.382 485.191 193.636 480.475 194.196 476.449C195.885 482.207 198.251 485.437 201.308 486.117C205.77 487.111 228.277 489.846 229.75 479.143C231.37 467.372 226.518 446.523 226.252 435.284Z" fill="#A8D29F"/>
<path d="M217.436 579.592C223.243 592.655 230.231 602.227 230.231 602.227L234.676 601.134C234.676 601.134 230.644 591.016 228.304 576.806C226.911 577.84 223.896 579.169 217.436 579.592Z" fill="#FFB27D"/>
<path d="M226.719 607.251H229.764C230.784 607.091 231.537 606.797 232.582 606.66C234.171 606.452 234.902 607.101 235.047 607.251L235.076 607.282H248.008C248.333 606.817 248.021 605.742 247.715 604.949C247.509 604.41 247.059 604.003 246.504 603.843C245.133 603.443 242.429 603.092 239.953 600.848C238.56 599.588 233.227 596.217 233.227 596.217L233.199 596.21C233.081 596.214 232.524 596.385 230.098 598.434C228.844 599.492 226.706 596.941 226.706 596.941C226.706 596.941 226.305 597.272 226.006 597.891C225.765 598.379 225.589 599.052 225.728 599.878C225.921 601.043 225.298 603.211 224.801 604.676C224.5 605.564 224.246 606.192 224.246 606.192C224.246 606.192 224.1 606.923 226.719 607.251Z" fill="#233862"/>
<path d="M226.719 607.251H229.764C230.784 607.091 231.537 606.797 232.582 606.66C234.171 606.452 234.902 607.101 235.047 607.251L235.076 607.282H248.008C248.333 606.817 248.021 605.742 247.715 604.949C247.322 604.601 247.211 606.466 246.994 606.763C246.777 607.06 236.445 606.872 235.848 606.438C235.251 606.005 233.461 605.243 230.966 605.841C228.794 606.36 225.594 605.028 224.801 604.676C224.5 605.564 224.246 606.192 224.246 606.192C224.246 606.192 224.1 606.923 226.719 607.251Z" fill="#466AA5"/>
<path d="M182.348 481.336C185.439 480.304 189.406 477.555 194.17 471.395C206.781 455.088 195.241 435.923 193.694 435.564C192.147 435.209 189.235 447.964 189.235 447.964C187.219 461.16 182.647 475.325 182.348 481.336Z" fill="#82B378"/>
<path d="M211.374 394.908C211.374 394.908 211.637 395.971 214.284 395.776C214.284 395.776 216.507 395.612 216.425 394.441C216.425 394.441 214.259 393.635 211.374 394.908Z" fill="white"/>
<path d="M187.756 570.656C182.598 577.923 176.66 587.4 173.111 592.013C169.886 596.207 166.988 590.955 168.614 587.208C171.182 581.3 173.358 570.967 175.844 563.361C177.514 565.902 180.926 569.18 187.756 570.656Z" fill="#FFB27D"/>
<path d="M180.017 607.278C180.017 607.278 172.43 606.329 170.538 603.874C170.315 603.583 169.835 600.93 169.831 600.902C169.793 600.687 169.538 599.7 168.048 598.959C167.068 598.471 166.211 598.365 165.278 597.836C164.588 597.45 163.275 596.562 162.655 596.074C160.5 594.376 161.136 593.728 161.136 593.728C161.136 593.728 161.718 593.331 162.494 592.741C162.703 592.583 162.929 592.406 163.158 592.218C164.325 591.282 165.645 590.077 166.07 589.145C166.428 588.352 166.969 587.874 167.46 587.594C168.075 587.236 168.614 587.181 168.614 587.181C168.614 587.181 168.977 590.616 170.672 590.432C173.948 590.073 174.527 590.248 174.629 590.312L174.651 590.336C174.651 590.336 176.537 595.715 177.009 597.607C177.844 600.974 179.32 602.409 180.206 603.6C180.431 603.904 180.58 604.222 180.67 604.539C181.041 605.827 180.458 607.111 180.017 607.278Z" fill="#233862"/>
<path d="M180.017 607.278C180.017 607.278 172.43 606.329 170.538 603.874C170.315 603.583 169.835 600.93 169.831 600.902C169.793 600.687 169.538 599.7 168.048 598.959C167.068 598.471 166.211 598.365 165.278 597.836C164.588 597.45 163.275 596.562 162.655 596.074C160.5 594.376 161.136 593.728 161.136 593.728C161.136 593.728 161.718 593.331 162.494 592.741C162.703 592.583 162.929 592.406 163.158 592.218C163.27 593.219 163.714 595.032 165.427 595.988C167.871 597.351 170.406 599.465 171.026 600.967C171.645 602.47 171.998 603.788 173.504 604.536C175.01 605.281 179.106 606.001 179.413 605.899C179.659 605.813 180.03 604.823 180.67 604.539C181.041 605.827 180.458 607.111 180.017 607.278Z" fill="#466AA5"/>
<path d="M979.92 609.259H45.0785C44.5689 609.259 44.1523 608.839 44.1523 608.33V607.668C44.1523 607.159 44.5689 606.742 45.0785 606.742H979.92C980.432 606.742 980.847 607.159 980.847 607.668V608.33C980.847 608.839 980.432 609.259 979.92 609.259Z" fill="#2E3552"/>
</g>
<defs>
<clipPath id="clip0_9_387">
<rect width="1012" height="675" fill="white" transform="translate(0.5 0.312439)"/>
</clipPath>
</defs>
</svg>
