<svg width="775" height="534" viewBox="0 0 775 534" fill="none" xmlns="http://www.w3.org/2000/svg">
<path d="M670.573 317.716C690.84 414.009 552.6 462.369 552.6 462.369C552.6 462.369 511.813 506.489 426.307 511.969C352.28 516.729 315.093 493.956 306.453 487.769C305.88 487.889 305.347 487.996 304.773 488.089C304.693 488.116 304.573 488.116 304.453 488.116C303.573 488.116 302.773 487.489 302.627 486.582C288.173 489.316 192.24 506.076 167.64 475.236C141.04 441.889 150.333 396.276 209.453 305.303C263.04 222.849 328.48 207.823 340.307 205.716C340.187 205.036 340.453 204.316 341.053 203.889C341.307 203.689 341.627 203.569 341.933 203.543C341.613 200.463 341.16 194.529 342.16 192.569C343.16 190.596 346.92 188.836 348.92 188.009L347.547 172.556C347.347 172.182 347.173 171.849 347 171.503C344.84 169.596 342.693 167.343 340.64 164.743C336.08 158.983 333 151.289 330.973 142.849C321.133 141.116 308.373 135.436 308.507 117.849C308.587 104.423 318.4 101.436 327.267 101.489C327.267 101.489 301.587 60.9825 312.307 45.7959C323.027 30.5692 342.147 41.9825 342.147 41.9825C342.147 41.9825 337.667 14.9558 375.747 23.8225C413.8 32.6892 423.827 64.7825 423.827 64.7825C423.827 64.7825 436.6 63.1025 438.733 74.9292C440.84 86.7559 436.507 99.0492 436.507 99.0492C442.92 104.462 447.36 114.076 443.8 125.783C438.44 143.423 417.24 141.236 417.24 141.236C417.24 141.236 415.907 155.036 404.84 167.396L406.24 181.049C409.32 181.076 411.707 181.329 412.973 181.929C414.547 182.636 416.333 187.489 416.333 187.489C416.333 187.489 439.56 183.876 471.653 187.489C503.773 191.116 650.307 221.463 670.573 317.716Z" fill="#E5C1E1"/>
<path d="M552.6 462.369C552.6 462.369 511.813 506.489 426.307 511.969C352.28 516.729 315.093 493.956 306.453 487.769C305.12 486.796 304.453 486.236 304.453 486.236C304.453 486.236 303.827 486.382 302.627 486.582C288.173 489.316 192.24 506.076 167.64 475.236C141.04 441.889 150.333 396.276 209.453 305.302C263.04 222.849 328.48 207.822 340.307 205.716H340.333C341.533 205.516 342.16 205.436 342.16 205.436C342.16 205.436 342.08 204.689 341.933 203.556C341.613 200.476 341.16 194.542 342.16 192.582C343.16 190.609 346.92 188.849 348.92 188.022C349.72 187.676 350.253 187.516 350.253 187.516C350.253 187.516 353.24 187.009 357.947 186.236C367.32 184.782 383.48 182.382 396.053 181.449C399.907 181.169 403.373 180.996 406.253 181.076C409.333 181.102 411.72 181.356 412.987 181.956C414.56 182.662 416.347 187.516 416.347 187.516C416.347 187.516 439.573 183.902 471.667 187.516C503.76 191.129 650.293 221.489 670.56 317.742C690.84 414.009 552.6 462.369 552.6 462.369Z" fill="#FF903F"/>
<path d="M345.427 333.356C345.427 333.356 321.453 322.676 330.573 361.476C337.04 388.996 352.747 350.156 352.747 350.156L345.427 333.356Z" fill="#F28D95"/>
<path d="M342.16 143.542C342.16 143.542 337.147 143.969 330.987 142.862C321.147 141.129 308.387 135.449 308.52 117.862C308.6 104.436 318.413 101.449 327.28 101.502H327.307C334.72 101.556 341.507 103.729 341.507 103.729L342.16 143.542Z" fill="#F28D95"/>
<path d="M327.987 130.716C327.4 130.716 326.813 130.436 326.44 129.916L314.227 112.849C313.613 111.996 313.813 110.809 314.667 110.196C315.52 109.583 316.707 109.769 317.32 110.636L329.533 127.716C330.147 128.569 329.947 129.756 329.093 130.369C328.76 130.596 328.387 130.716 327.987 130.716Z" fill="black"/>
<path d="M315.227 126.449C314.267 126.449 313.453 125.729 313.347 124.756C313.227 123.716 313.987 122.769 315.027 122.663L324.013 121.676C325.04 121.569 326 122.316 326.107 123.356C326.227 124.396 325.467 125.343 324.427 125.449L315.44 126.436C315.373 126.449 315.293 126.449 315.227 126.449Z" fill="black"/>
<path d="M408.053 198.862C408.053 198.862 395.88 206.929 379.92 208.703C358.373 211.103 349.88 198.956 349.88 198.956L349 189.062L348.92 188.009L347.547 172.556L347.493 171.929L346.747 163.609L346.427 160.076L403.747 165.662L404.653 165.743H404.68L404.853 167.396L406.253 181.049L406.28 181.596L406.307 181.622L408.053 198.862Z" fill="#F28D95"/>
<path d="M404.693 165.689C404.693 165.689 404.693 165.716 404.693 165.743H404.667C404.613 165.996 404.267 167.116 403.587 168.769C402.36 171.876 399.973 176.862 396.067 181.422C390.933 187.436 383.213 192.742 372.013 192.116C366.427 191.796 361.787 189.463 357.96 186.209C353.28 182.276 349.867 177.036 347.56 172.556C347.36 172.182 347.187 171.849 347.013 171.503C344.76 166.969 343.707 163.489 343.707 163.489L346.76 163.609L403.76 165.663L404.693 165.689Z" fill="black"/>
<path d="M443.827 125.782C438.467 143.422 417.267 141.236 417.267 141.236C417.267 141.236 415.933 155.036 404.867 167.396C404.467 167.849 404.04 168.302 403.587 168.769C402.96 169.422 402.307 170.076 401.587 170.742C392.24 179.436 367.813 189.502 347.493 171.942C347.32 171.822 347.173 171.689 347.013 171.516C344.853 169.609 342.707 167.356 340.653 164.756C336.093 158.996 333.013 151.302 330.987 142.862C330.013 138.876 329.28 134.742 328.733 130.556C328.533 128.982 328.333 127.422 328.187 125.849C327.333 117.356 327.16 108.889 327.307 101.502C327.333 100.449 327.36 99.4491 327.387 98.4491C327.387 98.3691 327.413 98.3024 327.413 98.2224C327.813 86.1424 328.92 77.5558 328.92 77.5558C344.48 12.5424 414.373 77.0091 414.373 77.0091L413.867 84.6758L413.293 93.4224L413.093 96.3291C413.093 96.3291 413.293 95.9291 414.467 95.4758C415.267 95.1558 416.493 94.8491 418.347 94.5958C419.947 94.3958 422 94.2491 424.64 94.1958C428.373 94.1691 432.587 95.7958 436.213 98.7824C436.413 98.9558 436.533 99.0358 436.533 99.0358C442.947 104.462 447.387 114.062 443.827 125.782Z" fill="#F28D95"/>
<path d="M418.92 123.542C418.44 123.542 417.96 123.369 417.6 123.009C416.853 122.276 416.827 121.076 417.56 120.316L432.333 105.036C433.067 104.289 434.267 104.262 435.027 104.996C435.787 105.729 435.8 106.929 435.067 107.689L420.28 122.969C419.907 123.356 419.413 123.542 418.92 123.542Z" fill="black"/>
<path d="M434 124.703C433.653 124.703 433.307 124.609 433 124.423L422.853 118.182C421.96 117.636 421.68 116.463 422.227 115.569C422.787 114.676 423.96 114.396 424.84 114.943L434.987 121.196C435.88 121.743 436.16 122.916 435.613 123.809C435.253 124.383 434.627 124.703 434 124.703Z" fill="black"/>
<path d="M386.027 109.716C385 109.716 384.16 108.902 384.12 107.889L383.76 97.6358C383.72 96.5825 384.547 95.7025 385.587 95.6625C386.587 95.6092 387.52 96.4492 387.56 97.5025L387.92 107.756C387.96 108.809 387.133 109.689 386.08 109.716C386.067 109.716 386.053 109.716 386.027 109.716Z" fill="black"/>
<path d="M346.76 111.209C345.733 111.209 344.893 110.396 344.853 109.369L344.493 99.1026C344.453 98.0492 345.28 97.1692 346.32 97.1426C347.307 97.1559 348.253 97.9292 348.293 98.9692L348.653 109.236C348.693 110.289 347.867 111.169 346.813 111.209C346.8 111.209 346.787 111.209 346.76 111.209Z" fill="black"/>
<path d="M367.32 136.609C366.493 136.609 365.747 136.076 365.493 135.249C360.813 119.449 364.733 105.889 364.907 105.316C365.2 104.316 366.267 103.756 367.267 104.036C368.28 104.342 368.853 105.396 368.547 106.396C368.507 106.529 364.787 119.489 369.133 134.169C369.44 135.182 368.853 136.236 367.853 136.529C367.68 136.582 367.493 136.609 367.32 136.609Z" fill="black"/>
<path d="M339.773 90.2759C339.307 90.2759 338.827 90.1025 338.453 89.7425C337.693 89.0225 337.667 87.8225 338.4 87.0492C342.453 82.8092 349.8 82.1825 350.107 82.1559C351.16 82.0092 352.067 82.8492 352.147 83.9025C352.227 84.9559 351.453 85.8625 350.4 85.9425C350.333 85.9559 344.173 86.4892 341.133 89.6759C340.787 90.0759 340.28 90.2759 339.773 90.2759Z" fill="black"/>
<path d="M390.227 89.4358C389.893 89.4358 389.573 89.3558 389.267 89.1824C385.467 86.9558 379.4 88.1558 379.333 88.1691C378.32 88.3825 377.307 87.7158 377.093 86.6891C376.88 85.6624 377.547 84.6624 378.573 84.4491C378.88 84.3824 386.107 82.9425 391.173 85.9025C392.08 86.4225 392.387 87.5958 391.853 88.5025C391.52 89.1025 390.88 89.4358 390.227 89.4358Z" fill="black"/>
<path d="M417.92 95.9958C417.92 95.9958 413.12 115.316 410.627 114.769C408.133 114.236 409.467 84.3558 416.4 82.5025C423.333 80.6625 417.92 95.9958 417.92 95.9958Z" fill="black"/>
<path d="M374.56 407.222C374.56 407.222 374.507 446.929 343.387 440.569C312.267 434.196 317.96 389.222 317.96 389.222L374.56 407.222Z" fill="#F28D95"/>
<path d="M370.333 154.116C369.32 154.116 368.48 153.316 368.44 152.289C368.4 151.249 369.213 150.356 370.253 150.316C370.68 150.303 380.573 149.783 384.453 141.276C384.893 140.316 386.013 139.903 386.973 140.329C387.933 140.756 388.347 141.889 387.92 142.849C383.067 153.516 370.933 154.089 370.413 154.116C370.387 154.116 370.36 154.116 370.333 154.116Z" fill="black"/>
<path d="M436.533 99.0491C436.533 99.0491 436.413 98.9691 436.213 98.7958C434.88 97.8224 429.547 94.4891 422.28 97.5691C419.88 98.5691 418.147 99.2758 416.92 99.8224C413.813 101.102 413.813 101.102 413.813 101.102L414.467 95.4891L414.693 93.5158C414.693 93.5158 414.213 93.4891 413.293 93.4358C412.693 93.3824 411.867 93.3158 410.893 93.2091C406.613 92.7291 399.24 91.5558 391.627 88.7958C388.24 87.5691 384.787 86.0358 381.533 84.0891C380.653 83.5424 379.8 82.9824 378.933 82.3824C366.613 73.6624 361.427 60.6891 361.427 60.6891C361.427 60.6891 352.307 59.9424 339.76 68.4358C330.04 74.9958 327.88 91.2358 327.387 98.2224C327.387 98.3024 327.36 98.3691 327.36 98.4491C327.24 100.276 327.24 101.409 327.24 101.502C327.24 101.502 301.56 60.9958 312.28 45.8091C323 30.5825 342.12 41.9958 342.12 41.9958C342.12 41.9958 337.64 14.9691 375.72 23.8358C413.773 32.7024 423.8 64.7958 423.8 64.7958C423.8 64.7958 436.573 63.1158 438.707 74.9424C440.867 86.7558 436.533 99.0491 436.533 99.0491Z" fill="black"/>
<path d="M350.267 187.489C350.267 187.489 357.587 194.422 374.52 194.849C391.453 195.276 406.307 181.582 406.307 181.582L417.213 201.609L390.24 218.076L345.04 214.276V194.009L350.267 187.489Z" fill="#FF903F"/>
<path d="M207.76 374.609C207.067 374.609 206.413 374.236 206.067 373.569C205.587 372.636 205.947 371.489 206.893 371.009C260.16 343.596 319.693 361.076 320.28 361.262C321.293 361.569 321.853 362.622 321.547 363.636C321.24 364.636 320.187 365.209 319.173 364.902C318.6 364.729 260.493 347.702 208.613 374.396C208.347 374.529 208.053 374.609 207.76 374.609Z" fill="#A9622F"/>
<path d="M494.067 385.716C494.067 385.716 465.267 336.582 461.093 333.276C456.907 329.969 410.747 318.956 404.693 319.822C398.64 320.689 409.453 333.356 414.6 336.742C419.747 340.116 426.307 343.676 426.307 343.676C426.307 343.676 392.813 346.809 390.227 352.756C387.64 358.702 397.107 363.089 397.107 363.089C397.107 363.089 385.213 365.222 390.227 372.516C395.253 379.809 428.92 385.356 428.92 385.356C428.92 385.356 438.24 417.436 461.093 423.116C483.933 428.796 494.067 425.636 494.067 425.636V385.716Z" fill="#F28D95"/>
<path d="M472.547 360.462C472.547 360.462 479.28 321.276 486.253 332.809C493.213 344.342 494.067 385.729 494.067 385.729L477.173 381.929L472.547 360.462Z" fill="#F28D95"/>
<path d="M360.573 421.702L405.12 419.889C409.867 419.702 413.547 415.702 413.36 410.956L409.627 318.902C409.427 314.156 405.427 310.476 400.693 310.662L356.147 312.476C351.4 312.676 347.72 316.662 347.907 321.409L351.64 413.449C351.827 418.209 355.827 421.902 360.573 421.702Z" fill="white"/>
<path d="M353.8 421.982L398.347 420.182C403.093 419.996 406.773 415.982 406.587 411.249L402.853 319.209C402.667 314.462 398.667 310.782 393.92 310.969L349.373 312.782C344.627 312.982 340.947 316.982 341.133 321.716L344.867 413.756C345.053 418.489 349.053 422.169 353.8 421.982Z" fill="black"/>
<path d="M328.307 377.622C328.307 377.622 300.84 372.129 310.427 360.089C320.013 348.036 370.707 346.116 374.8 361.542C378.92 376.969 328.307 377.622 328.307 377.622Z" fill="#F28D95"/>
<path d="M329.4 400.782C329.4 400.782 301.933 395.289 311.52 383.249C321.12 371.196 371.8 369.276 375.893 384.702C380.013 400.116 329.4 400.782 329.4 400.782Z" fill="#F28D95"/>
<path d="M345.04 419.743C338.747 419.876 332.44 418.583 326.96 415.476C322.067 412.703 318.293 408.649 322.773 403.516C331.733 393.249 376.613 393.583 379.627 407.369C381.867 417.663 357.56 419.476 345.04 419.743Z" fill="#F28D95"/>
<path d="M360.773 374.276C360.76 374.276 322.093 373.943 322.093 373.943C320.987 373.929 320.093 373.023 320.093 371.903C320.107 370.796 321 369.903 322.107 369.903C322.12 369.903 360.787 370.236 360.787 370.236C361.907 370.249 362.787 371.156 362.787 372.276C362.787 373.383 361.88 374.276 360.773 374.276Z" fill="black"/>
<path d="M365.013 398.636C365 398.636 326.333 398.303 326.333 398.303C325.213 398.289 324.32 397.383 324.333 396.263C324.347 395.156 325.253 394.263 326.36 394.263C326.373 394.263 365.027 394.596 365.027 394.596C366.147 394.609 367.04 395.516 367.027 396.636C367.013 397.743 366.12 398.636 365.013 398.636Z" fill="black"/>
<path d="M452.133 345.569H426.307C425.253 345.569 424.4 344.716 424.4 343.663C424.4 342.609 425.253 341.756 426.307 341.756H452.133C453.187 341.756 454.04 342.609 454.04 343.663C454.027 344.716 453.187 345.569 452.133 345.569Z" fill="black"/>
<path d="M414.587 364.983C413.573 364.983 412.733 364.183 412.68 363.156C412.64 362.103 413.453 361.223 414.507 361.183L439.24 360.183C440.28 360.223 441.173 360.956 441.213 362.009C441.253 363.063 440.44 363.943 439.387 363.996L414.653 364.996C414.64 364.983 414.613 364.983 414.587 364.983Z" fill="black"/>
<path d="M486.253 379.529C485.547 379.529 484.867 379.143 484.547 378.463L472.427 353.409C471.973 352.463 472.373 351.329 473.307 350.876C474.253 350.423 475.387 350.823 475.84 351.756L487.96 376.809C488.413 377.756 488.027 378.889 487.08 379.343C486.813 379.463 486.533 379.529 486.253 379.529Z" fill="black"/>
<path d="M498.28 360.103C497.867 360.103 497.44 359.969 497.093 359.689C496.28 359.036 496.133 357.836 496.787 357.023C497.147 356.569 533.147 311.969 587.88 288.036C588.84 287.623 589.96 288.049 590.387 289.023C590.813 289.983 590.373 291.103 589.4 291.529C535.56 315.076 500.107 358.956 499.76 359.396C499.387 359.849 498.84 360.103 498.28 360.103Z" fill="#A9622F"/>
<path d="M558.92 281.489C558.32 280.289 556.893 278.889 553.88 279.089C538.347 280.036 533.413 316.743 532.907 320.903C532.88 321.249 532.933 321.583 533.08 321.876C533.253 322.329 533.587 322.703 534.053 322.903C534.307 322.983 534.56 323.049 534.827 323.049C535.373 323.049 535.907 322.796 536.28 322.343C537.707 320.609 539.867 317.956 542.24 314.783L542.267 314.756C542.293 314.729 542.32 314.729 542.32 314.703C550.547 303.903 561.893 287.303 558.92 281.489ZM537.8 314.303C540.16 301.876 545.493 283.409 554.107 282.889H554.387C554.813 282.889 555.387 282.943 555.533 283.236C557.187 286.423 548.213 300.823 537.8 314.303Z" fill="#A9622F"/>
<path d="M265.347 356.889C265.227 356.689 265.027 356.382 264.773 355.916C262.013 351.302 251.44 334.716 241.547 333.916C238.52 333.716 235.707 334.969 233.507 337.676C230.827 340.982 231.08 343.836 231.8 345.622C233.96 351.236 243.547 354.969 251.667 357.196H251.693C257.333 358.729 262.24 359.529 263.413 359.729H263.693C264.32 359.729 264.893 359.449 265.267 358.902C265.68 358.316 265.707 357.542 265.347 356.889ZM235.333 344.262C235.013 343.436 234.787 342.129 236.48 340.076C237.76 338.476 239.187 337.716 240.813 337.716H241.24C247.48 338.222 255.467 348.516 259.853 355.249C250 353.236 237.213 349.129 235.333 344.262Z" fill="#A9622F"/>
<path d="M340.587 469.929C340.04 470.503 326.68 483.863 306.44 487.769C305.867 487.889 305.333 487.996 304.76 488.089C304.68 488.116 304.56 488.116 304.44 488.116C303.56 488.116 302.76 487.489 302.613 486.583C302.587 486.556 302.587 486.556 302.587 486.529C302.413 485.503 303.093 484.529 304.16 484.369C324.107 481.063 337.76 467.409 337.88 467.263C338.627 466.516 339.853 466.516 340.587 467.263C341.333 467.996 341.333 469.183 340.587 469.929Z" fill="#A9622F"/>
<path d="M548.147 464.196C516.96 463.996 505.027 456.769 504.533 456.462C503.64 455.902 503.373 454.742 503.933 453.849C504.493 452.956 505.667 452.689 506.547 453.236C506.667 453.302 518.267 460.209 548.173 460.396C549.227 460.409 550.067 461.249 550.067 462.302C550.04 463.342 549.187 464.196 548.147 464.196Z" fill="#A9622F"/>
<path d="M382.147 217.396C381.92 217.742 381.573 217.996 381.173 218.142C376.76 219.476 372.68 220.022 368.947 220.022C361.08 220.022 354.747 217.542 350.107 214.716C348.08 213.489 346.4 212.209 345.027 211.036C342.173 208.582 340.693 206.596 340.64 206.529C340.44 206.276 340.32 205.982 340.32 205.702H340.293C340.173 205.022 340.44 204.302 341.04 203.876C341.293 203.676 341.613 203.556 341.92 203.529C342.573 203.409 343.253 203.702 343.693 204.276C343.773 204.396 344.24 204.982 345.027 205.876C347.627 208.662 353.84 214.289 363.56 215.849C365.093 216.076 366.693 216.222 368.4 216.249C371.933 216.276 375.813 215.769 380.053 214.476C381.053 214.156 382.133 214.729 382.413 215.729C382.6 216.302 382.493 216.929 382.147 217.396Z" fill="#A9622F"/>
</svg>
