<?xml version="1.0" encoding="utf-8"?>
<!-- Generator: Adobe Illustrator 26.3.1, SVG Export Plug-In . SVG Version: 6.00 Build 0)  -->
<svg version="1.1" id="Слой_1" xmlns="http://www.w3.org/2000/svg" xmlns:xlink="http://www.w3.org/1999/xlink" x="0px" y="0px"
	 viewBox="0 0 800 543" style="enable-background:new 0 0 800 543;" xml:space="preserve">
<style type="text/css">
	path{fill:#FFFFFF;}
</style>
<path class="st0" d="M97.5,306.2l-5,0c2.4,8.1,14.2,13.8,21,18.1c21.6,13.6,46.9,25.2,73,18.5c8.2-2.1,15.6-5.1,22.9-9.3
	c2.5-1.5,6.5-5.9,9.6-5.6c10.4,1.1,10.8,17.3,20.5,18.9c5.2,0.8,11.8-0.7,17-1.4c13.4-1.6,26.7-3.4,40-5.3
	c5.8-0.8,15.2-3.8,20.9-2.1c5.9,1.8,10.1,14.4,13.4,19.2c10.6,15.6,24.5,26.9,36.6,41c4.1,2.9,8.9,4.7,12.8,8.1
	c0.7,0.4,1.5,0.8,2.2,1l0,0.7c3.3,2.5,6.7,4.5,10.6,6.3c10.3,4.8,20.2,10.6,30.9,14.2c9.4,3.2,20.2,6.6,30.2,6.9
	c6.9,0.2,14.3-1.1,21.2,0.2c27.7-1.6,55.7-7,81.1-18.6c0.6-0.6,9.9-5.9,13.6-8.4c3.5-2.2,16.7-13.6,19.8-16.9
	c3-3.2,19.6-23.9,24.7-31.3c3.9-5.6,21-30.6,25-35.9c0,0,0.1,0,0.1,0c4.2-6,9.1-10.3,13.7-15.3c1.3-1.5,8.2-7.7,8.2-7.7
	c12.5-8.9,28.1-18.2,43.8-20.5c0-0.5,0.1-1,0.3-1.5c0,0,0,0-0.1,0c-9.5-74.3-68.7-140.3-142.9-153.6c-5.7-0.9-12.5-0.4-18-2.3
	c-6.3-2.2-11.8-6.3-18-8.7c-15.1-5.7-30.9-9.4-47-10.5c-94.3-6.9-185.1,51.9-180.1,153.8c-14.4-1.8-28.6-4.6-43-6.2
	c-5.7-0.6-12.3-2.5-18-1.3c-10,2.1-9,20.2-20,19.3c-2.9-0.2-5.6-2.8-8-4.3c-33.1-20.5-74.9-6.7-103,16.2c-5.2,4.1-11.2,8.1-10,15.3
	c-2.3,0.4-3.9,1-6,2C93.3,301.8,95.3,303.9,97.5,306.2z M535.8,421.8c3-3.1,8.2-4.8,12-7.2c40.2-23.6,70.3-72.1,62.8-119.8
	c-4.6-27.6-19.1-51.4-42.7-66.6c-24.9-15.9-62.7-14.1-79.6,12.5c-7.1,11.2-7.4,28.9,4.6,37.4c5.5,3.8,11.5,2,16.9,4.6
	c9.9,4.7,11,19.4,6.6,28.1c-8,15.7-23.7,23-40.6,23c-4.6,0-23-2.2-30.3-7.5c-9.8-5.2-17.6-11.5-24.4-20.4
	c-50-67.5,3.2-160.4,80.7-173.6c66.9-17.6,139.8,18.7,174.1,77.1c9.8,14.9,16.4,31.1,21,48.3c1.8,6.8,3.7,13,3.8,20.1
	c-65.6,13.2-80,90.3-128.8,126.3C561.6,411.8,548.9,419.8,535.8,421.8z M522.1,384.4c-0.8-3-3-4.6-5-6.9c-1.7-1.9-2.5-4.6-4.8-6
	c-3.9-2.3-10.4-1.2-14.8-1.2c-11.7,0-26.9,2.5-38-1.4c-11.8-4.2-21.5-17-30-25.6c-18.2-18.4-36.4-37.5-56-54.3
	c-9.5-8.2-25.2-22.7-39-19.7c-4.7-5.3-11-8.1-18-8.8c-3.6-0.4-10.5,0.4-12.4-3.5c-2.6-5.4,0.1-14,0.4-19.7
	c5-81.8,75.8-124.9,151.1-130.1c27.8-2.6,59.3,1.2,84,15.2c-6,2.5-14.5,1.6-21,2.1c-7.8,0.5-15.5,2.3-23,4.1
	c-53,13.1-98.7,61.9-99.9,117.7c0,35.9,18.9,74.9,53.8,88.2c8.6,3.3,17.6,6.4,27,5.7c9.3-0.6,19-2.7,27-7.6
	c14.6-8.8,27.6-30.2,16.5-46.3c-8.1-11.7-23.9-6.8-30-20c-9.7-21,16.9-39.7,34.6-41.8c47.9-5.7,82.8,42.7,80.9,86.9
	c-0.6,13.6-3.5,27.4-8.4,40c-35.5,85.9-152.5,100.6-221.3,46.1c-14.8-11.4-28.7-24.9-39.5-40.2c-4.3-6.2-9.4-13.5-10.7-21
	c2.7-1.4,4.9-2.8,7-5l2,0c4.8,4.6,12.4,5.6,17.8,9.8c14.7,11.3,28,24.3,42.2,36.2c9.1,7.6,18.3,17.7,29,22.9
	c11.4,5.5,23.6,4.2,36,4.2c6.8,0,14.3,0.9,21-0.3c3.5-0.6,6.5-2.5,10-3.3c10.3-2.2,31.1,5,32-11.4
	C522.5,387.7,522.5,386,522.1,384.4z M247.1,269.4c3.4-4.1,9.7-3.4,14.5-2.7c14.6,2.3,29.5,3.7,44,6.4c4.6,0.9,12.9,1.4,14.2,7.2
	c1.6,6.9-10.1,7.6-14.2,8.1c-13.5,1.6-27.5,3.5-41,3.8c-4.2,0.1-8.8,1.7-12.9,0.6C243.1,290.6,242.2,275.3,247.1,269.4z"/>

</svg>
